<svg xmlns="http://www.w3.org/2000/svg" width="272" height="84" viewBox="0 0 272 84" fill="none"><path d="M124.978 61.6548C125.389 61.7086 125.406 61.1811 125.782 60.9774L127.376 60.7551L127.768 60.2361C128.439 59.9397 129.195 59.899 129.893 60.1217L127.765 61.5895C128.252 62.0366 128.714 61.5885 129.137 61.7214L129.706 61.0262L130.815 60.8716L131.489 59.9801L130.735 58.9947C131.297 58.1693 131.741 58.5314 132.229 58.9178L132.745 58.3411L133.212 58.6496C133.824 58.9176 134.451 58.5577 135.088 58.5698C135.442 59.3686 136.411 59.8698 136.209 60.8873L136.916 61.4653L137.228 63.7037L138.174 64.4098L139.234 64.2621L139.98 64.7639C140.376 64.9208 140.962 64.203 141.411 65.0291C140.374 65.2743 139.325 65.461 138.268 65.5882L138.069 66.6255C137.054 67.3122 136.217 66.4495 135.298 66.3049L134.746 62.3432C134.109 61.9775 133.655 61.324 132.804 61.0892L132.035 61.8728L130.401 62.1006L129.463 63.3419C128.43 63.1728 127.883 64.39 126.67 64.3067L126.107 65.5563L124.126 65.8323C123.554 66.5078 123.041 67.175 122.458 67.7712C122.168 68.0841 121.713 68.5111 121.383 68.4661C120.351 68.307 119.997 69.8911 118.939 69.3317L118.337 70.082L117.218 70.2379C116.845 70.7829 116.443 71.3074 116.013 71.8093C115.551 72.2042 115.057 72.5601 114.536 72.8733L113.219 73.0569L111.35 74.4986L110.359 74.6367L109.435 75.8257L107.86 76.0451L107.189 76.7344L105.703 76.9414C105.493 77.2043 105.227 77.417 104.924 77.564C104.622 77.711 104.29 77.7885 103.953 77.791L103.263 77.3318L100.5 77.7169L99.988 77.3743C99.385 77.105 98.7587 77.4648 98.1011 77.4555C97.7699 77.1446 97.3292 76.9774 96.8752 76.9903C96.5571 76.9538 96.0647 76.6085 96.0162 76.3325C95.9755 76.1154 95.8861 75.9103 95.7546 75.7328C95.6232 75.5552 95.4532 75.4098 95.2574 75.3074L94.9676 73.2275L95.5603 71.5396C95.8485 70.9946 96.0495 70.4079 96.156 69.8007C96.1565 69.2251 96.8662 68.8839 96.5586 68.2705C96.7638 68.0791 96.9076 67.8311 96.972 67.558C97.0364 67.2849 97.0184 66.9988 96.9203 66.7359C97.6926 66.6989 97.2325 66.0058 97.4558 65.6516C97.9062 65.0436 98.3874 64.5121 98.8251 63.8857C98.792 63.648 98.6813 63.3605 98.7437 63.3014C99.2457 62.9184 98.971 62.1792 99.347 61.8341C100.146 61.117 99.9335 59.8844 100.79 59.2199C100.842 58.4352 101.601 57.7943 101.277 56.9206C101.344 56.9283 101.412 56.9205 101.476 56.8977C101.539 56.875 101.597 56.8379 101.644 56.7894C101.691 56.7409 101.726 56.6822 101.746 56.618C101.767 56.5537 101.773 56.4856 101.763 56.4188C101.71 56.0425 101.659 55.676 101.12 55.7915L101.004 54.9596L101.466 54.2894C101.299 54.2155 101.129 54.1517 100.955 54.0981C100.069 53.8278 99.8047 54.9752 99.0525 54.9387C98.8285 55.505 98.2103 55.5609 97.7919 55.8918C97.4503 56.1646 97.0949 56.4197 96.7272 56.6561C96.5172 56.8125 96.2928 56.9486 96.0569 57.0625C95.0246 57.3925 94.1275 58.0491 93.5006 58.9332C93.2691 59.228 93.0714 59.5483 93.2392 59.3028C92.0381 60.2476 91.1784 60.5997 90.6667 61.3474C90.2037 62.0313 89.5933 62.6029 88.8805 63.02C88.322 63.3227 87.83 63.7346 87.4338 64.2312C87.0775 64.7433 86.5705 65.1316 85.9832 65.3421C85.3447 65.5421 85.1521 66.0435 84.8155 66.4539C84.4789 66.8643 84.0467 67.5303 83.6959 67.9831C82.7992 67.9969 82.6438 68.7658 82.1117 69.2943L81.0503 69.5027C80.4719 69.9165 80.1286 70.6409 79.3534 71.0922C78.5783 71.5435 78.3137 72.3981 77.7698 73.0596C77.566 73.2216 77.345 73.3608 77.1108 73.4745C76.5784 73.7795 76.0907 74.1567 75.6616 74.5952C75.2623 75.1355 74.5644 75.3438 74.2545 75.801C73.629 76.7463 72.4117 77.0674 71.9455 78.1421C70.9261 78.0721 70.4041 78.9627 69.5658 79.2511C69.1753 80.1436 68.2788 80.5209 67.5741 81.0432C66.9877 81.5968 66.2437 81.9546 65.445 82.0668C65.3262 82.0834 65.2121 82.3517 65.0672 82.5435L64.4279 82.1581C64.1727 82.3552 63.9282 82.7022 63.6311 82.7436C63.334 82.7851 62.9954 82.5293 62.6748 82.4024L62.1196 83.0552C61.6377 82.8564 61.1302 82.7266 60.612 82.6696C60.1771 82.6051 59.7481 82.5062 59.3289 82.3739C58.4002 82.2307 57.8003 81.9104 57.5503 80.9861C57.5296 80.8375 57.2555 80.7546 57.1174 80.6325C56.9792 80.5104 57.0994 80.5037 57.0898 80.4344L57.4307 79.983L56.6883 79.1475L57.2376 78.1622L57.0126 76.5478L57.4929 75.865C57.0553 74.8255 58.0935 73.9437 57.7392 72.9228C57.7323 72.8733 57.8613 72.7847 57.8899 72.6999C58.2469 71.7112 58.6222 70.7098 58.9184 69.7194C58.9073 69.6402 58.8853 69.4817 58.8811 69.452C60.1099 68.2711 59.8537 66.2875 61.0824 65.1066C61.1497 64.4073 61.3382 63.7251 61.6395 63.0904C61.7914 62.514 62.3654 62.1412 62.4132 61.3974C62.461 60.6537 63.2656 60.269 63.3376 59.4815C63.399 58.9076 64.0325 58.5265 64.1736 57.8001C64.3147 57.0736 65.0721 56.4229 65.5382 55.7824L65.4001 54.792C65.9372 54.0811 66.503 53.2147 67.1844 52.4533C67.8659 51.692 67.7809 50.5023 68.6528 49.876L68.6136 48.5083L69.5475 47.9642C70.1851 47.6129 69.7334 46.545 70.3405 46.4099C71.1529 46.226 71.1135 45.3632 71.81 45.145L73.3185 47.3478L74.3414 45.9937L74.8013 47.5552L76.449 45.4678L77.478 45.6071L76.2115 46.662L76.3344 47.5435L74.918 49.4068L75.0698 50.4963L73.6451 52.3002C73.7397 52.498 73.7747 52.7191 73.7458 52.9364C73.717 53.1538 73.6255 53.358 73.4825 53.5243C73.3484 53.8553 73.2744 54.2075 73.264 54.5644L72.6004 54.6569L72.2314 55.8492L71.6273 55.9334C71.5164 56.3552 71.3712 56.7671 71.1931 57.1651C71.0279 57.5012 70.5617 57.7782 70.5635 58.0808C70.5665 58.5408 70.3981 58.9854 70.0911 59.3279C69.3219 60.1178 68.7628 61.0878 68.4649 62.1494C67.7803 62.5982 67.8778 63.4428 67.532 64.0766C67.2829 64.5354 67.4026 65.1043 66.9175 65.5354C66.4323 65.9665 66.6725 66.458 66.4508 66.7514C65.1068 68.5542 65.061 70.7616 64.0505 72.6391C64.2741 73.8094 63.296 74.9049 63.9828 76.2833L64.678 76.8528C64.8108 76.8035 64.934 76.7317 65.0422 76.6405C65.6981 75.913 66.8101 75.7782 67.3661 74.9132C68.0628 75.0584 68.1394 74.1593 68.718 74.1089C69.2966 74.0586 69.4229 73.516 69.666 73.159C69.909 72.802 70.6926 72.7736 70.9548 72.1919C71.0938 71.8515 71.3601 71.5789 71.6971 71.4321C72.3397 71.2618 72.5128 70.6925 72.8466 70.2623C73.1804 69.8321 73.6678 69.9964 73.9776 69.5392C74.2875 69.0821 74.9253 69.0942 75.179 68.5237C75.4327 67.9533 75.8963 68.0199 76.2423 67.7496C76.9428 67.1976 77.06 66.01 78.1834 65.8838L79.641 63.9541L80.8394 63.7871L82.381 61.3006C82.9356 61.2233 83.2228 61.1833 83.274 61.1156C83.515 60.5267 84.3052 60.6185 84.5191 60.1242C84.8769 59.2868 85.9067 59.214 86.3067 58.4616C86.7067 57.7092 87.7547 57.6944 88.0985 56.8287C88.2425 56.4855 88.7707 56.2907 89.142 56.0573C90.4889 55.3563 91.6194 54.3017 92.4123 53.0067C92.6004 52.9805 92.7094 52.9653 92.7886 52.9543L102.062 46.5429L103.479 46.3456L104.051 45.6701L107.399 45.2036C108.216 45.6116 108.884 46.2679 109.306 47.0783C109.322 47.1972 109.8 47.1508 110.078 47.1828C110.575 47.7092 110.36 48.4156 110.536 49.0271L110.049 49.7311L110.199 50.8107L109.73 51.5021C109.773 51.8091 109.93 52.1406 109.85 52.3637C109.588 53.0162 109.616 53.7998 109.114 54.3242C108.611 54.8485 108.757 55.3836 108.478 55.7758C108.2 56.168 108.255 56.9983 107.713 57.5282C107.379 58.0413 107.117 58.5975 106.933 59.1816C106.58 59.9073 106.206 60.6258 105.823 61.3557C105.44 62.0855 105.342 62.9068 104.722 63.5284C104.44 63.8201 104.729 64.4462 104.277 64.7516C104.393 65.5835 103.735 66.0791 103.307 66.7041L103.457 67.7837L102.674 68.9025C102.481 69.5453 102.387 69.8815 102.447 69.6611C102.158 70.2668 102.078 70.3486 102.089 70.4278C102.193 71.1706 102.296 71.9135 102.392 72.5968L103.351 73.3214L103.876 72.6727C104.578 72.7062 105.018 72.1703 105.572 71.9417C106.125 71.7131 106.45 71.0014 107.198 71.0082C107.502 70.9696 107.794 70.8709 108.059 70.7178C108.324 70.5648 108.555 70.3605 108.74 70.1169C109.161 69.5838 109.997 69.6489 110.197 68.9043L112.177 68.6282C112.089 68.8627 111.981 69.0999 111.903 69.3429C111.841 69.4955 111.823 69.6623 111.85 69.8249L110.384 70.0292C109.522 71.0883 109.531 71.1577 110.236 71.9379C110.127 70.6506 111.554 70.7446 111.85 69.8249C112.006 69.7879 112.165 69.7657 112.325 69.7587C112.393 69.7677 112.463 69.7609 112.528 69.7388C112.594 69.7166 112.653 69.6798 112.702 69.631C112.751 69.5822 112.788 69.5228 112.81 69.4575C112.832 69.3922 112.839 69.3226 112.83 69.2541C112.778 68.8778 112.727 68.5113 112.177 68.6282C112.198 68.3649 112.285 68.1112 112.431 67.8912C112.577 67.6712 112.777 67.4921 113.012 67.371C113.561 67.126 114.071 66.7997 114.523 66.4032C114.935 65.8814 115.763 65.9578 115.95 65.1947C116.738 65.4181 116.817 64.1752 117.579 64.3518C117.668 64.3394 117.862 63.9186 117.96 63.7535L120.02 63.4664C119.983 63.6331 119.965 63.9385 119.886 63.9496C119.182 64.0476 118.864 64.5867 118.542 65.2475C119.329 65.2906 120.118 65.2281 120.889 65.0618L122.912 63.639L123.034 64.5204C122.4 64.8195 121.87 65.3013 121.511 65.904C121.679 66.058 121.896 66.1497 122.123 66.1639C122.351 66.1781 122.577 66.1138 122.764 65.9818C123.447 65.3817 124.595 65.2117 124.692 64.0269C125.649 64.0854 126.066 63.1591 126.809 62.8434C126.809 62.8434 126.786 62.675 126.709 62.6352C127.052 62.4864 127.493 62.4653 127.04 62.0339C126.913 62.2248 126.803 62.4259 126.709 62.6352C126.294 62.6714 125.881 62.729 125.471 62.8077C125.139 63.1771 124.687 63.4824 124.698 64.0665L123.965 64.1687L122.896 63.7421L122.698 62.3258C123.298 61.8485 122.935 60.9096 123.579 60.4564L124.978 59.484C125.663 60.0549 125.027 60.4868 124.788 60.8735C124.811 61.1422 124.874 61.4057 124.978 61.6548C124.633 61.7937 124.185 61.7652 124.646 62.2463C124.771 62.0573 124.881 61.8597 124.978 61.6548ZM102.604 53.9086C102.075 54.3155 102.075 54.3155 102.428 55.0337C103.002 54.7317 102.555 54.279 102.458 54.0199C102.877 53.8403 103.319 53.8192 102.873 53.3764C102.752 53.5362 102.661 53.7165 102.604 53.9086ZM117.152 65.633C116.613 66.334 116.051 67.0788 115.499 67.8321C115.499 67.8321 115.575 67.9427 115.654 68.0731L116.853 67.9061L118.149 66.3421L117.845 65.6071L117.152 65.633ZM114.073 69.0406C113.966 69.3048 113.936 69.5937 113.986 69.8742C114.036 70.1546 114.163 70.4155 114.354 70.6269L115.321 70.3205L114.571 69.7183C114.442 69.2314 114.442 69.2314 114.073 69.0406ZM107.16 72.1847C107.063 72.3119 106.992 72.457 106.952 72.6117C106.911 72.7664 106.902 72.9276 106.924 73.086C106.946 73.2444 106.999 73.3969 107.08 73.5346C107.162 73.6723 107.27 73.7925 107.398 73.8883C107.589 73.6296 107.671 73.3065 107.626 72.9881C107.582 72.6697 107.415 72.3813 107.16 72.1847ZM112.286 72.7426C112.592 72.2557 112.985 72.0294 113.01 71.5613C112.656 71.3381 112.338 71.3724 111.981 71.7855L112.286 72.7426ZM73.3878 49.0041L73.6369 49.343C73.688 49.2753 73.8058 49.1781 73.789 49.13C73.7236 49.0056 73.6463 48.8879 73.5582 48.7785L73.3878 49.0041ZM67.4282 62.1727L67.5987 61.947C67.4709 61.8882 67.336 61.8459 67.1975 61.8212C67.1975 61.8212 67.0952 61.9566 67.0441 62.0243L67.4282 62.1727ZM116.833 68.9285L117.061 69.1089C117.117 68.9767 117.158 68.8389 117.185 68.6978C117.185 68.6978 117.05 68.5955 116.982 68.5443L116.833 68.9285Z" fill="#DC3943"></path><path d="M242.222 22.9827C242.961 22.8937 243.695 22.7645 244.42 22.5957C244.568 22.9384 244.59 23.3798 245.022 22.9358C244.834 22.8022 244.632 22.6883 244.42 22.5957C244.485 22.1929 243.957 22.1755 243.794 21.8751L243.64 20.7658L244.339 19.8405L245.006 20.2826L245.365 19.8186C245.943 19.5484 246.577 19.4252 247.214 19.4601L247.733 19.8522L248.555 19.162L249.709 19.6878L254.602 19.006L255.187 19.4394L258.525 18.9742L259.342 19.547L260.327 18.7938L260.859 19.2043L263.107 18.891C263.377 19.0857 263.551 19.3239 263.669 19.2974C264.647 19.0702 265.574 19.9304 266.731 19.537L267.895 20.6469L268.51 19.9151L269.436 20.614L269.622 21.9511L271.54 23.1075L271.552 23.8429L271.105 24.1171C271.016 24.1296 270.858 24.1517 270.828 24.1558C270.403 23.5688 269.58 23.8955 269.043 23.304L266.706 23.6297C266.102 22.7041 264.967 23.6902 264.369 22.8042L261.23 23.2418C260.615 23.176 260.354 22.5359 259.752 22.852L259.249 23.4471L258.58 22.9951L255.797 23.3829L255.14 22.9394L254.624 23.5161L254.025 23.0544L246.111 24.1571L245.503 23.7067L244.97 24.2961L242.187 24.6839L241.539 24.239L241.029 24.8553L239.91 25.0112L238.986 24.3222C239.295 23.643 239.945 23.9563 240.45 23.8152C240.983 23.7058 241.522 23.6306 242.064 23.5903L242.222 22.9827ZM251.965 20.4437C251.596 20.9091 251.638 21.2869 252.126 21.6025C252.319 21.2425 252.731 21.0134 252.751 20.5058L251.965 20.4437ZM246.021 21.7668L245.971 21.4102C245.713 21.4461 245.455 21.4014 245.206 21.426C245.146 21.4343 245.027 21.5923 245.052 21.6291C245.078 21.666 245.221 21.9691 245.3 21.9581C245.533 21.9214 245.762 21.8591 245.981 21.7723L246.021 21.7668Z" fill="#DC3943"></path><path d="M234.401 24.3856L233.325 25.0706C233.438 25.1559 233.525 25.275 233.585 25.2667L237.021 24.7878C237.154 24.5969 237.31 24.4228 237.484 24.2689C237.645 24.1892 237.821 24.1441 238.001 24.1364C238.435 24.2779 238.5 24.6019 238.407 25.0188C238.357 25.0257 238.321 25.2024 238.252 25.212L235.479 25.5985L234.926 26.2712L229.915 26.9695L229.379 27.6197L227.171 27.9274C227.101 27.9371 227.017 27.8378 226.863 27.7482C227.21 27.2657 227.908 27.2087 228.163 26.6481L232.056 26.1057L232.736 25.1931C232.347 24.8513 232.042 24.4237 231.845 23.9441L231.055 23.8523C230.634 23.5072 230.845 22.9931 230.677 22.5117L231.324 22.159C232.253 22.5815 233.016 23.2984 233.496 24.1987L234.328 24.0827L234.401 24.3856Z" fill="#DC3943"></path><path d="M184.43 47.2615L186.153 46.153L186.541 46.9774C186.393 47.1494 186.288 47.4065 186.176 47.4018C185.168 47.4111 184.585 48.1586 183.865 48.6427C183.724 48.7819 183.542 48.872 183.346 48.8993C183.149 48.9267 182.949 48.8899 182.776 48.7945L183.122 48.1607C183.189 47.5556 183.259 46.8997 182.502 46.5407C182.562 46.391 182.588 46.2157 182.696 46.1199C183.225 45.6701 183.78 45.2522 184.359 44.8684C184.56 44.7192 184.904 44.7925 185.448 44.7166L186.287 45.4478C186.021 45.9291 185.588 45.7876 185.249 45.8953C184.911 46.0031 184.486 45.8503 184.118 46.3256L184.43 47.2615Z" fill="#DC3943"></path><path d="M236.832 21.4015L236.951 22.2532L238.571 22.7948L238.79 21.7547L239.396 21.6097L240.415 22.9821C240.365 23.0598 240.312 23.1883 240.253 23.1966L236.895 23.6644L236.236 23.211L235.728 23.8372L234.331 24.0318C234.394 23.1043 235.174 22.834 235.787 22.3751L235.213 21.8796L235.868 21.0008L236.832 21.4015Z" fill="#DC3943"></path><path d="M228.638 24.3305L229.499 25.5836C228.872 26.0151 228.111 26.2072 227.354 26.1249C227.335 25.8203 227.417 25.5182 227.587 25.2645C227.17 24.8784 226.714 25.2346 226.204 25.1947L225.353 24.5964C225.337 24.1141 225.769 23.8822 225.958 23.5024L227.147 23.3368L227.641 24.3482L228.638 24.3305Z" fill="#DC3943"></path><path d="M196.145 38.0061C196.132 37.9169 196.11 37.7585 196.107 37.7386C197.027 37.0955 197.95 36.4722 198.923 35.7712L200.077 37.4581L197.541 37.8115C197.172 38.2769 197.434 38.6342 197.42 38.9693C196.892 39.0933 196.841 38.7269 196.749 38.356C196.74 38.2891 196.716 38.2251 196.679 38.1689C196.641 38.1127 196.591 38.0659 196.533 38.0321C196.475 37.9983 196.409 37.9783 196.342 37.9738C196.275 37.9693 196.207 37.9803 196.145 38.0061Z" fill="#DC3943"></path><path d="M196.145 38.0061C195.365 38.5691 194.934 39.6085 193.747 39.3498L193.225 40.6039L191.462 40.8495C191.513 40.6305 191.524 40.4976 191.566 40.3606C191.823 39.5978 192.869 39.7145 193.139 38.9701L194.238 38.8169L194.754 38.1696L196.145 38.0061Z" fill="#DC3943"></path><path d="M167.772 52.9955C167.787 53.6093 167.295 53.4153 167.025 53.5742C166.534 54.2584 167.222 54.9905 166.977 55.8424L165.847 55.8484L166.4 55.0343L166.306 54.3609L164.754 54.3046C164.741 54.2155 164.599 54.1344 164.616 54.1118C164.919 53.6051 165.467 53.8418 165.926 53.6567L166.434 53.0305C166.841 53.0545 167.317 52.7762 167.772 52.9955Z" fill="#DC3943"></path><path d="M141.196 67.4721C141.205 67.5414 141.229 67.7098 141.23 67.7197C140.295 68.2539 140.057 68.287 138.388 68.1158L139.462 67.4209C139.23 67.2508 139.019 67.053 138.835 66.8318C138.746 66.7028 138.786 66.4852 138.76 66.297C139.167 65.7355 139.751 66.159 140.332 65.6943L139.934 67.547L141.196 67.4721Z" fill="#DC3943"></path><path d="M242.212 22.9841L241.321 23.1083L240.975 22.5103C241.203 21.4688 242.273 21.3198 242.828 20.6669C243.328 20.991 243.002 21.5514 243.227 21.8633C243.15 22.5404 241.997 22.0952 242.212 22.9841Z" fill="#DC3943"></path><path d="M164.04 54.1819L163.273 55.1975C162.55 55.2983 161.797 55.4032 161.054 55.5067C160.985 55.5164 160.9 55.4171 160.812 55.3588C160.91 54.954 161.151 54.598 161.49 54.3556L161.942 54.7065C162.536 54.4016 163.026 53.7881 164.04 54.1819Z" fill="#DC3943"></path><path d="M223.049 28.9259C222.959 28.2821 223.51 28.6092 223.717 28.4289L224.232 27.7816L225.47 27.6091L225.806 28.5719C225.525 28.6749 225.235 28.7525 224.94 28.8037C224.343 28.8667 223.73 29.1743 223.049 28.9259Z" fill="#DC3943"></path><path d="M200.364 37.4181L201.374 38.8726L200.72 39.6807L200.034 39.6854C199.575 39.3656 199.803 38.829 199.599 38.3022C199.748 38.1401 200.065 37.9545 200.084 37.7297C200.103 37.5049 200.074 37.3676 200.364 37.4181Z" fill="#DC3943"></path><path d="M214.28 28.2395L214.371 28.8932C213.788 29.4187 213.048 29.32 212.258 29.3795L211.985 28.5795C212.319 28.3578 212.698 28.2124 213.095 28.1536C213.491 28.0948 213.896 28.1242 214.28 28.2395Z" fill="#DC3943"></path><path d="M207.584 35.2509C206.762 35.3654 206.627 35.1217 206.544 34.4567L207.506 33.7473L208.153 34.3336C208.187 34.7226 207.621 34.8621 207.584 35.2509Z" fill="#DC3943"></path><path d="M153.014 61.7865C153.019 62.2603 153.451 62.8968 152.528 63.0053C152.041 62.9923 151.807 62.5404 151.425 62.3411C151.519 62.217 151.582 62.0163 151.7 61.9899C152.12 61.8909 152.568 61.8486 153.014 61.7865Z" fill="#DC3943"></path><path d="M216.357 27.3444C216.438 27.9287 215.935 27.7262 215.658 27.8356L215.065 28.5845L214.759 27.6175C214.973 27.427 215.236 27.3003 215.519 27.252C215.801 27.2037 216.091 27.2357 216.357 27.3444Z" fill="#DC3943"></path><path d="M227.804 23.3461L229.498 23.1101C229.577 23.6747 229.102 23.8922 228.921 24.2607C228.484 24.453 228.657 23.8836 228.377 23.8318C228.097 23.7799 228.116 23.6258 227.804 23.3461Z" fill="#DC3943"></path><path d="M73.7102 42.4065L74.5431 42.4419C74.6231 43.0163 74.0273 43.1599 73.9889 43.6095L73.1561 43.5741C73.0945 42.987 73.6719 42.8561 73.7102 42.4065Z" fill="#DC3943"></path><path d="M142.059 65.1204L141.907 64.0309L142.794 63.7257L143.138 64.7479L142.059 65.1204Z" fill="#DC3943"></path><path d="M221.115 25.914C221.832 25.0467 222.383 25.0203 223.05 25.3111C222.416 25.7629 222.416 25.7629 221.115 25.914Z" fill="#DC3943"></path><path d="M219.768 26.3944C219.672 26.5226 219.552 26.6304 219.414 26.7118C219.277 26.7932 219.124 26.8465 218.966 26.8685C218.807 26.8906 218.646 26.8811 218.492 26.8404C218.337 26.7998 218.192 26.7289 218.065 26.6318C218.261 26.3775 218.55 26.2102 218.868 26.1659C219.186 26.1215 219.509 26.2035 219.768 26.3944Z" fill="#DC3943"></path><path d="M197.435 39.0075L198.188 38.9026C198.774 39.1238 198.551 39.5488 198.689 40.0343C198.02 39.7237 197.585 39.5016 197.435 39.0075Z" fill="#DC3943"></path><path d="M164.782 56.4614L163.51 56.9011C163.422 56.8533 163.345 56.7877 163.283 56.7083C163.222 56.629 163.178 56.5376 163.154 56.4402C163.13 56.3428 163.126 56.2414 163.144 56.1426C163.161 56.0438 163.199 55.9497 163.255 55.8664C163.773 55.8144 163.904 56.3919 164.782 56.4614Z" fill="#DC3943"></path><path d="M96.0149 67.6294L95.7795 66.592C96.1417 66.1477 96.5081 66.0967 96.8987 66.436C97.0769 66.8453 96.5486 66.6766 96.4925 66.9268C96.4365 67.1769 96.2935 67.2372 96.0149 67.6294Z" fill="#DC3943"></path><path d="M152.91 59.6606L152.574 58.6977C152.62 58.6167 152.683 58.5458 152.757 58.489C152.832 58.4322 152.916 58.3906 153.007 58.3667C153.098 58.3429 153.192 58.3371 153.285 58.3498C153.377 58.3626 153.467 58.3935 153.547 58.4409C153.594 58.919 153.17 59.1396 152.91 59.6606Z" fill="#DC3943"></path><path d="M94.7745 70.9726C94.6817 70.7376 94.617 70.4924 94.5818 70.2422C94.5708 70.163 94.7763 70.0435 94.9108 69.9944C95.0453 69.9454 95.1056 70.0884 95.1139 70.1479C95.1484 70.3955 95.1235 70.6514 95.1297 70.913L94.7745 70.9726Z" fill="#DC3943"></path><path d="M121.045 62.7784C120.952 62.9831 120.9 63.2629 120.743 63.3656C120.502 63.4504 120.246 63.4861 119.99 63.4705C120.083 63.2658 120.135 62.9859 120.292 62.8832C120.534 62.7985 120.79 62.7628 121.045 62.7784Z" fill="#DC3943"></path><path d="M175.522 50.1385C175.76 50.0558 176.004 49.9914 176.252 49.9459C176.331 49.9348 176.452 50.1502 176.51 50.2734C176.567 50.3967 176.417 50.4782 176.356 50.4766C176.102 50.4973 175.846 50.5026 175.591 50.4923L175.522 50.1385Z" fill="#DC3943"></path><path d="M101.313 56.9561C100.778 57.0306 100.673 56.7121 100.66 56.3302C100.649 56.2624 100.655 56.1931 100.676 56.1278C100.697 56.0625 100.733 56.003 100.781 55.9542C100.829 55.9053 100.888 55.8683 100.953 55.8462C101.018 55.8242 101.087 55.8176 101.155 55.827L101.313 56.9561Z" fill="#DC3943"></path><path d="M205.011 34.9733C204.918 34.7349 204.853 34.4865 204.817 34.233C204.807 34.1637 205.013 34.0442 205.136 33.9866C205.259 33.9291 205.341 34.0792 205.349 34.1387C205.366 34.3938 205.368 34.6498 205.355 34.9052L205.011 34.9733Z" fill="#DC3943"></path><path d="M200.852 34.7653C200.902 34.6646 200.976 34.5777 201.067 34.512C201.158 34.4463 201.264 34.4038 201.375 34.3883C201.487 34.3728 201.6 34.3847 201.706 34.423C201.811 34.4613 201.906 34.5248 201.982 34.6079C201.933 34.7105 201.861 34.7994 201.769 34.8666C201.678 34.9338 201.572 34.9772 201.46 34.9928C201.347 35.0085 201.233 34.9959 201.127 34.9561C201.021 34.9164 200.927 34.8508 200.852 34.7653Z" fill="#DC3943"></path><path d="M211.595 29.2599C211.191 29.6898 210.877 29.7538 210.507 29.4923C210.661 28.855 211.039 28.9638 211.595 29.2599Z" fill="#DC3943"></path><path d="M241.344 20.5204C240.941 20.9602 240.627 21.0242 240.257 20.7627C240.399 20.1169 240.779 20.2356 241.344 20.5204Z" fill="#DC3943"></path><path d="M236.698 21.5212L237.103 20.8791C237.555 21.3007 237.139 21.3587 236.698 21.5212Z" fill="#DC3943"></path><path d="M76.9695 44.2038L76.5754 44.0568C76.6266 43.9891 76.6879 43.8493 76.7388 43.8523C76.8763 43.8812 77.0106 43.9234 77.14 43.9782L76.9695 44.2038Z" fill="#DC3943"></path><path d="M221.603 25.7955L221.198 26.4375C220.693 26.0031 221.134 25.9819 221.603 25.7955Z" fill="#DC3943"></path><path d="M231.474 24.6824L231.327 25.0765C231.258 25.0155 231.119 24.9641 231.122 24.9132C231.151 24.7757 231.193 24.6413 231.248 24.512L231.474 24.6824Z" fill="#DC3943"></path><path d="M221.023 27.8653L220.875 28.2495C220.807 28.1983 220.667 28.137 220.67 28.0861C220.699 27.9486 220.741 27.8143 220.796 27.6849L221.023 27.8653Z" fill="#DC3943"></path><path d="M217.051 29.3578C217.136 29.4679 217.21 29.5861 217.272 29.7107C217.272 29.7107 217.18 29.8447 217.13 29.9223C217.038 29.8156 216.961 29.6974 216.899 29.5708C216.899 29.5708 216.96 29.431 217.051 29.3578Z" fill="#DC3943"></path><path d="M214.572 31.4904L214.987 30.847C215.431 31.2798 214.99 31.3009 214.572 31.4904Z" fill="#DC3943"></path><path d="M214.871 31.3175L214.456 31.961C214.01 31.5182 214.451 31.4971 214.871 31.3175Z" fill="#DC3943"></path><path d="M204.031 36.4931L203.388 36.0779C203.791 35.6381 203.854 36.0937 204.031 36.4931Z" fill="#DC3943"></path><path d="M201.336 36.7879L201.73 36.9349C201.68 37.0125 201.618 37.1424 201.567 37.1394C201.428 37.1148 201.294 37.0725 201.166 37.0136L201.336 36.7879Z" fill="#DC3943"></path><path d="M203.868 36.1927L204.512 36.6079C204.062 37.0744 204.038 36.6133 203.868 36.1927Z" fill="#DC3943"></path><path d="M189.917 42.0746L190.065 41.6904C190.133 41.7416 190.272 41.8029 190.268 41.8439C190.241 41.985 190.2 42.1228 190.144 42.255L189.917 42.0746Z" fill="#DC3943"></path><path d="M195.22 41.0831L195.456 41.2522C195.347 41.3461 195.225 41.4243 195.095 41.4843C195.095 41.4843 194.961 41.3919 194.892 41.3308L195.22 41.0831Z" fill="#DC3943"></path><path d="M188.284 42.7464L188.464 42.5193C188.552 42.627 188.627 42.7456 188.685 42.8722C188.685 42.8722 188.592 43.0063 188.541 43.074L188.284 42.7464Z" fill="#DC3943"></path><path d="M193.931 42.1209L194.09 41.7354C194.157 41.7865 194.287 41.8492 194.283 41.8902C194.262 42.0279 194.223 42.1622 194.167 42.29L193.931 42.1209Z" fill="#DC3943"></path><path d="M179.862 48.1L180.009 47.7059C180.077 47.7571 180.217 47.8184 180.214 47.8693C180.185 48.0067 180.142 48.1411 180.088 48.2705L179.862 48.1Z" fill="#DC3943"></path><path d="M167.847 54.4793L167.453 54.3323C167.514 54.2632 167.566 54.1248 167.617 54.1278C167.751 54.1422 167.884 54.1711 168.012 54.214L167.847 54.4793Z" fill="#DC3943"></path><path d="M120.899 62.8896L121.304 62.2475C121.738 62.6817 121.322 62.7397 120.899 62.8896Z" fill="#DC3943"></path><path d="M158.141 58.0027L157.97 58.2284C157.875 58.1242 157.797 58.0055 157.74 57.8769C157.74 57.8769 157.832 57.7428 157.893 57.6737L158.141 58.0027Z" fill="#DC3943"></path><path d="M152.865 61.8779L153.28 61.2345C153.724 61.6673 153.283 61.6884 152.865 61.8779Z" fill="#DC3943"></path><path d="M149.099 63.9778L148.713 63.8195C148.765 63.7518 148.827 63.6219 148.868 63.6263C149.009 63.6492 149.146 63.6876 149.278 63.7409L149.099 63.9778Z" fill="#DC3943"></path><path d="M137.55 67.4652L137.775 67.6357C137.669 67.7274 137.551 67.8049 137.424 67.8664C137.424 67.8664 137.28 67.7754 137.211 67.7144L137.55 67.4652Z" fill="#DC3943"></path><path d="M141.043 67.5338L141.448 66.8917C141.903 67.3331 141.462 67.3542 141.043 67.5338Z" fill="#DC3943"></path><path d="M181.151 47.0621L181.377 47.2326C181.269 47.3214 181.151 47.3956 181.024 47.4534C181.024 47.4534 180.88 47.3624 180.812 47.3113L181.151 47.0621Z" fill="#DC3943"></path><path d="M43.04 7.6C49.52 8.53333 53.28 11.24 54.32 15.72C55.2267 19.6133 54.04 24.24 50.76 29.6C47.6667 34.6933 43.5867 39.04 38.52 42.64C33.1333 46.48 28.1733 48.3333 23.64 48.2C22.12 48.1733 20.44 47.9333 18.6 47.48C17.88 47.2933 17.08 47.0667 16.2 46.8L15.04 46.44L13.92 46.08C11.7333 47.6533 9 48.3467 5.72 48.16C3.74667 48.0533 2.29333 47.7333 1.36 47.2C0.533333 46.72 0.24 46.1467 0.48 45.48C0.693333 44.8133 1.33333 44.2533 2.4 43.8C3.57333 43.2667 4.97333 42.9867 6.6 42.96C8.41333 42.9333 10.7467 43.3867 13.6 44.32C14.4 43.6 15.3333 42.52 16.4 41.08C17.28 39.9067 18.48 38.1733 20 35.88L20.88 34.56L21.76 33.24C22.4267 32.2533 23 31.4267 23.48 30.76C26.0933 27.1067 28.16 25.32 29.68 25.4C29.8933 25.4267 30.0267 25.5467 30.08 25.76C30.1067 25.9733 30.04 26.12 29.88 26.2C29.32 26.0667 27.8133 27.7733 25.36 31.32C24.9867 31.88 24.44 32.6933 23.72 33.76L22.84 35.04L21.96 36.36C20.52 38.44 19.3067 40.1333 18.32 41.44C17.12 42.96 16.12 44.1067 15.32 44.88C19.2133 46.2667 22 46.9467 23.68 46.92C28.1067 46.84 33.16 44.5067 38.84 39.92C42.0667 37.3333 44.88 34.4 47.28 31.12C49.7067 27.76 51.3333 24.5467 52.16 21.48C53.04 18.1733 52.84 15.4133 51.56 13.2C50.12 10.7733 47.4267 9.21333 43.48 8.52C39.48 7.82667 34.8933 8.33333 29.72 10.04C25.1067 11.56 20.7733 13.7333 16.72 16.56C13.28 18.9867 10.6933 21.48 8.96 24.04C7.17333 26.68 6.58667 29.0133 7.2 31.04C7.57333 32.1867 8.41333 32.9067 9.72 33.2C10.9467 33.4933 12.1733 33.32 13.4 32.68C13.6933 32.4933 13.9067 32.4933 14.04 32.68C14.2 32.8933 14.1333 33.1067 13.84 33.32C12.24 34.6267 10.5467 34.8667 8.76 34.04C6.94667 33.1867 6 31.6667 5.92 29.48C5.81333 26.52 6.96 23.56 9.36 20.6C11.5733 17.8267 14.6267 15.3333 18.52 13.12C22.3333 10.9333 26.3733 9.34667 30.64 8.36C35.12 7.32 39.2533 7.06666 43.04 7.6ZM5.92 47.08C8.4 47.1067 10.48 46.5733 12.16 45.48C9.70667 44.7067 7.8 44.32 6.44 44.32C3.29333 44.32 1.61333 44.76 1.4 45.64C1.32 46.0133 1.64 46.3333 2.36 46.6C3.18667 46.8933 4.37333 47.0533 5.92 47.08ZM69.3891 33.6C69.4691 33.52 69.5891 33.52 69.7491 33.6C69.8824 33.68 69.9091 33.8 69.8291 33.96C69.2691 34.8933 68.2424 35.72 66.7491 36.44C65.2557 37.16 63.7357 37.56 62.1891 37.64C60.4291 39.16 58.7891 39.6667 57.2691 39.16C55.8557 38.68 55.0557 37.72 54.8691 36.28C54.6824 34.8133 55.2024 33.36 56.4291 31.92C56.6957 30.4533 57.3757 29.24 58.4691 28.28C59.6691 27.2667 61.0157 26.8933 62.5091 27.16C64.6957 27.56 65.7624 28.8133 65.7091 30.92C65.6824 32.8133 64.8691 34.6933 63.2691 36.56C64.4157 36.3467 65.6157 35.9067 66.8691 35.24C67.9357 34.7067 68.7757 34.16 69.3891 33.6ZM58.3091 30.96C57.8824 31.92 57.7357 32.8533 57.8691 33.76C58.0024 34.6667 58.3891 35.36 59.0291 35.84C59.6157 36.32 60.3357 36.6 61.1891 36.68C61.7224 36.0933 62.2957 35.2933 62.9091 34.28C63.7891 32.7067 64.2424 31.3067 64.2691 30.08C64.2691 28.72 63.6557 28 62.4291 27.92C61.5757 27.8667 60.7624 28.1467 59.9891 28.76C59.2424 29.3467 58.6824 30.08 58.3091 30.96ZM57.6291 38.4C58.3491 38.7467 59.2424 38.4533 60.3091 37.52C59.5091 37.3867 58.8157 37.1067 58.2291 36.68C57.3224 36.0667 56.7357 35.2133 56.4691 34.12C56.0157 36.44 56.4024 37.8667 57.6291 38.4ZM86.3872 29.32C84.3072 31.08 82.4805 33 80.9072 35.08C80.6939 35.7733 80.6805 36.5467 80.8672 37.4C81.0539 38.2533 81.3339 38.64 81.7072 38.56C83.0939 38.4533 84.9872 36.6667 87.3872 33.2C88.3472 31.7867 89.0805 30.44 89.5872 29.16C90.1472 27.8267 90.2272 27.1333 89.8272 27.08C89.3739 27 88.2272 27.7467 86.3872 29.32ZM91.4272 15.04C89.3472 17.6 87.1205 21.1333 84.7472 25.64C86.6672 24.6 88.2805 23.6133 89.5872 22.68C91.8805 21.0533 93.8672 19.12 95.5472 16.88C97.4672 14.32 97.8805 12.6533 96.7872 11.88C95.6405 11.0267 93.8539 12.08 91.4272 15.04ZM84.0672 27.64L84.1472 27.76C83.3739 28.8 82.4672 30.2933 81.4272 32.24L81.1072 32.88L80.7472 33.52C82.3205 31.4133 83.9205 29.6133 85.5472 28.12C87.1739 26.6267 88.2939 25.9067 88.9072 25.96C89.5739 26.04 90.1739 26.36 90.7072 26.92C91.2672 27.5067 91.5072 28.1333 91.4272 28.8C91.1872 30 90.4405 31.5467 89.1872 33.44C86.9205 36.88 84.8539 38.9867 82.9872 39.76C82.7472 39.84 82.3872 39.8133 81.9072 39.68C81.3739 39.5467 81.0005 39.36 80.7872 39.12C80.4672 38.8 80.2405 38.36 80.1072 37.8C80.0005 37.4 79.9605 36.9333 79.9872 36.4C79.3205 37.36 78.7739 38.32 78.3472 39.28C78.0539 40.4533 78.0005 41.3333 78.1872 41.92C78.0005 42.08 77.7472 42.1067 77.4272 42C77.1339 41.8933 76.9472 41.7467 76.8672 41.56C76.1205 39.9333 77.2272 36.4667 80.1872 31.16C80.6672 30.3067 81.3605 28.9067 82.2672 26.96C85.0405 21.36 87.5072 17.24 89.6672 14.6C92.5205 11.0533 94.9339 9.89333 96.9072 11.12C98.8539 12.2933 98.8272 14.36 96.8272 17.32C95.1739 19.8 92.8539 22.08 89.8672 24.16C88.2672 25.28 86.3339 26.44 84.0672 27.64ZM102.403 31.24C102.669 30.1467 102.456 29.2667 101.763 28.6C101.203 28.04 100.176 28.3333 98.6825 29.48C98.1225 29.88 97.5625 30.36 97.0025 30.92C96.5225 31.4267 96.1625 31.84 95.9225 32.16C94.0825 34.72 93.6558 36.5467 94.6425 37.64C95.4425 38.4667 96.6692 38.7867 98.3225 38.6C100.136 38.4133 101.816 37.84 103.363 36.88C104.269 36.32 105.616 35.2533 107.403 33.68C107.563 33.5733 107.709 33.5733 107.843 33.68C107.949 33.7867 107.963 33.9067 107.883 34.04C106.896 35.8 105.336 37.2 103.203 38.24C101.096 39.3067 98.9758 39.7333 96.8425 39.52C94.8158 39.3333 93.4558 38.28 92.7625 36.36C92.1492 34.7067 93.0025 32.68 95.3225 30.28C96.3092 29.2933 97.3358 28.52 98.4025 27.96C99.5225 27.3733 100.469 27.1733 101.243 27.36C102.336 27.6267 103.043 28.2 103.363 29.08C103.656 29.8267 103.589 30.56 103.163 31.28C103.056 31.44 102.896 31.5333 102.683 31.56C102.469 31.56 102.376 31.4533 102.403 31.24ZM111.472 29C111.312 29.6133 110.752 30.68 109.792 32.2L109.192 33.12L108.592 34.12C108.138 34.92 107.765 35.6667 107.472 36.36C107.898 35.8533 108.512 35.0533 109.312 33.96L110.272 32.56L111.272 31.2C112.872 29.12 113.965 28.1333 114.552 28.24C114.898 28.2933 115.178 28.48 115.392 28.8C115.605 29.0667 115.712 29.3333 115.712 29.6C115.712 29.9733 115.565 30.64 115.272 31.6C115.138 31.9733 114.978 32.4133 114.792 32.92L114.312 34.32C113.432 36.6667 113.072 37.88 113.232 37.96C113.365 38.0133 114.365 36.4267 116.232 33.2C117.112 31.7067 117.805 30.6 118.312 29.88C119.032 28.8667 119.538 28.36 119.832 28.36C120.098 28.36 120.378 28.5333 120.672 28.88C120.938 29.2 121.045 29.48 120.992 29.72C120.912 30.0933 120.738 30.72 120.472 31.6C120.392 31.8933 120.272 32.2933 120.112 32.8L119.752 34.08C119.112 36.1867 118.818 37.3733 118.872 37.64C119.005 38.2267 120.045 38.04 121.992 37.08C122.658 36.76 123.365 36.3867 124.112 35.96C124.378 35.8 124.632 35.64 124.872 35.48C125.085 35.3467 125.232 35.2533 125.312 35.2C125.498 35.0667 125.645 35.08 125.752 35.24C125.832 35.4 125.805 35.5467 125.672 35.68C125.565 35.7867 125.432 35.92 125.272 36.08C125.032 36.2667 124.792 36.4667 124.552 36.68C123.885 37.2133 123.218 37.6667 122.552 38.04C120.658 39.1067 119.218 39.28 118.232 38.56C117.672 38.16 117.418 37.4267 117.472 36.36C117.472 35.5067 117.672 34.4667 118.072 33.24C118.232 32.76 118.405 32.2533 118.592 31.72C118.752 31.32 118.925 30.8933 119.112 30.44L119.592 29.24C119.512 29.2667 119.165 29.84 118.552 30.96L118.352 31.36L118.112 31.76L117.632 32.64C117.232 33.3867 116.885 34.0267 116.592 34.56C114.592 38.0267 113.258 39.6533 112.592 39.44C111.792 39.1733 111.418 38.4667 111.472 37.32C111.525 36.44 111.832 35.2667 112.392 33.8C112.605 33.2933 112.858 32.72 113.152 32.08L113.512 31.28C113.645 30.96 113.738 30.7333 113.792 30.6C114.192 29.6933 114.298 29.28 114.112 29.36C113.632 29.5467 112.285 31.2533 110.072 34.48C109.245 35.68 108.418 36.9333 107.592 38.24C106.845 39.3867 106.312 40.2267 105.992 40.76C105.912 41 105.712 41.04 105.392 40.88C105.045 40.72 104.845 40.4267 104.792 40C104.632 38.8267 105.418 36.68 107.152 33.56L107.632 32.64L108.112 31.8C108.538 31.08 108.845 30.5467 109.032 30.2C109.618 29.08 109.952 28.3067 110.032 27.88C110.058 27.6933 110.152 27.6 110.312 27.6C110.472 27.6 110.658 27.6667 110.872 27.8C111.085 27.96 111.245 28.1467 111.352 28.36C111.485 28.5733 111.525 28.7867 111.472 29ZM133.723 27.16C135.51 26.8667 136.39 27.4 136.363 28.76C136.336 30.12 135.55 32 134.003 34.4C132.563 36.64 131.336 38.0933 130.323 38.76C129.39 39.3467 128.416 39.32 127.403 38.68C126.47 38.0667 125.976 37.3067 125.923 36.4C124.083 38.64 122.55 40.7333 121.323 42.68C118.763 47.24 117.763 50.3067 118.323 51.88C117.416 51.9867 116.883 51.7333 116.723 51.12C116.19 49.2533 118.043 44.8667 122.283 37.96L123.483 36L124.083 35.04L124.643 34.12C125.523 32.68 126.216 31.52 126.723 30.64C128.056 28.2667 128.67 26.68 128.563 25.88C128.963 25.6933 129.31 25.8133 129.603 26.24C129.87 26.64 129.95 27.1067 129.843 27.64C129.71 28.6533 128.696 30.7067 126.803 33.8C130.296 29.5867 132.603 27.3733 133.723 27.16ZM128.963 38.08C129.736 37.84 131.07 36.0933 132.963 32.84C134.856 29.56 135.416 27.88 134.643 27.8C134.323 27.7733 133.39 28.4933 131.843 29.96C130.19 31.5333 128.496 33.3467 126.763 35.4C126.976 36.28 127.296 36.9867 127.723 37.52C128.15 38.0267 128.563 38.2133 128.963 38.08ZM151.403 33.56C151.563 33.4533 151.71 33.4533 151.843 33.56C151.95 33.6667 151.963 33.7867 151.883 33.92C151.297 34.96 150.443 35.96 149.323 36.92C148.363 37.72 147.203 38.36 145.843 38.84C144.377 39.3467 143.03 39.5333 141.803 39.4C139.777 39.2133 138.403 38.1733 137.683 36.28C137.07 34.6 137.923 32.5733 140.243 30.2C141.23 29.1867 142.257 28.4133 143.323 27.88C144.47 27.2933 145.43 27.0933 146.203 27.28C147.35 27.5733 148.003 28.1067 148.163 28.88C148.297 29.6 147.99 30.4 147.243 31.28C145.51 33.36 142.897 34.6533 139.403 35.16C139.19 36.1733 139.337 36.9733 139.843 37.56C140.83 38.6267 142.323 38.8667 144.323 38.28C145.07 38.04 145.857 37.7067 146.683 37.28C147.377 36.9067 147.99 36.5067 148.523 36.08C149.163 35.6 150.123 34.76 151.403 33.56ZM140.883 32.04C140.35 32.76 139.923 33.5467 139.603 34.4C141.31 33.92 143.043 32.8533 144.803 31.2C146.537 29.5467 146.977 28.5067 146.123 28.08C145.59 27.84 144.657 28.2933 143.323 29.44C142.817 29.8933 142.323 30.3867 141.843 30.92C141.417 31.3733 141.097 31.7467 140.883 32.04ZM151.974 26.24C152.107 27.1467 152.494 27.8533 153.134 28.36C153.721 28.7867 154.414 29.04 155.214 29.12C155.614 28.6933 155.987 28.2533 156.334 27.8C156.627 27.4 156.854 27.0667 157.014 26.8C157.921 25.1467 158.427 23.64 158.534 22.28C158.641 20.7333 158.081 19.92 156.854 19.84C156.027 19.7867 155.161 20.16 154.254 20.96C153.427 21.7067 152.814 22.5333 152.414 23.44C151.987 24.4267 151.841 25.36 151.974 26.24ZM163.574 27.92C163.441 28.32 163.001 29.12 162.254 30.32L161.774 31.08L161.294 31.88C160.894 32.52 160.561 33.08 160.294 33.56C158.747 36.3333 158.587 37.96 159.814 38.44C160.347 38.7333 161.561 38.2133 163.454 36.88C165.214 35.6533 166.467 34.5467 167.214 33.56C167.534 33.56 167.721 33.6933 167.774 33.96C165.001 37.64 162.454 39.4933 160.134 39.52C158.961 39.52 158.161 39.0267 157.734 38.04C157.174 36.8133 157.614 34.88 159.054 32.24C159.294 31.8133 159.587 31.32 159.934 30.76L160.334 30.08L160.734 29.4C160.841 29.2133 160.947 29.04 161.054 28.88C161.001 28.9067 160.934 28.9333 160.854 28.96C159.361 29.68 157.841 30.08 156.294 30.16C155.361 30.96 154.134 32.1733 152.614 33.8C152.374 34.0133 152.147 34.2267 151.934 34.44C151.721 34.6267 151.307 35 150.694 35.56C150.507 35.7467 150.347 35.6667 150.214 35.32C150.054 34.9733 150.107 34.7067 150.374 34.52C151.094 33.8267 152.321 32.6 154.054 30.84C154.321 30.5733 154.534 30.3067 154.694 30.04H154.334C153.561 29.88 152.894 29.6 152.334 29.2C151.347 28.5067 150.774 27.5333 150.614 26.28C150.427 25.1067 150.614 23.92 151.174 22.72C151.707 21.4933 152.467 20.5467 153.454 19.88C154.547 19.1333 155.707 18.8667 156.934 19.08C158.694 19.4 159.681 20.4133 159.894 22.12C160.081 23.6133 159.707 25.24 158.774 27C158.401 27.6933 157.921 28.3733 157.334 29.04C159.814 28.64 161.294 28.1067 161.774 27.44V27.4H161.814V27.36H161.854C162.147 27.28 162.441 27.28 162.734 27.36C163.107 27.44 163.374 27.6133 163.534 27.88L163.694 27.92H163.574ZM181.918 33.64C182.078 33.72 182.118 33.84 182.038 34L181.958 34.08C181.931 34.1333 181.878 34.2133 181.798 34.32C181.611 34.5333 181.411 34.7733 181.198 35.04C180.531 35.8133 179.851 36.5067 179.158 37.12C176.945 39.04 175.091 39.72 173.598 39.16C172.185 38.6267 172.251 37.0533 173.798 34.44C174.065 33.9867 174.371 33.5067 174.718 33L175.158 32.32C175.291 32.16 175.438 31.96 175.598 31.72C176.211 30.8667 176.505 30.4133 176.478 30.36C176.451 30.4133 176.318 30.5867 176.078 30.88C175.811 31.2267 175.505 31.6133 175.158 32.04C174.225 33.1867 173.291 34.2533 172.358 35.24C169.478 38.2267 167.451 39.6133 166.278 39.4C165.665 39.2933 165.318 38.9333 165.238 38.32C165.078 37.1467 165.678 35.44 167.038 33.2L167.438 32.56L167.838 31.96C168.158 31.4267 168.398 31.0267 168.558 30.76C169.038 29.9333 169.318 29.3067 169.398 28.88C169.398 28.6933 169.505 28.56 169.718 28.48C169.905 28.4267 170.131 28.44 170.398 28.52C170.665 28.6 170.865 28.72 170.998 28.88C171.158 29.0667 171.171 29.2667 171.038 29.48C170.958 29.8 170.638 30.4533 170.078 31.44C169.865 31.7867 169.585 32.2667 169.238 32.88L168.798 33.6L168.318 34.36C166.825 36.92 166.238 38.2667 166.558 38.4C166.958 38.5333 168.731 37.1067 171.878 34.12C175.105 31.0267 176.891 28.8667 177.238 27.64C177.345 27.32 177.625 27.32 178.078 27.64C178.531 27.9867 178.771 28.2933 178.798 28.56C178.798 28.9333 178.518 29.6267 177.958 30.64C177.745 31.04 177.451 31.5333 177.078 32.12L176.598 32.92L176.118 33.68C174.491 36.4 173.878 37.9733 174.278 38.4C174.571 38.72 175.865 38.0267 178.158 36.32C178.905 35.7867 179.691 35.1867 180.518 34.52C180.785 34.3067 181.038 34.0933 181.278 33.88C181.358 33.8267 181.425 33.7733 181.478 33.72L181.558 33.64C181.665 33.56 181.785 33.56 181.918 33.64ZM192.892 21C193.612 20.92 194.052 21.0933 194.212 21.52C194.212 22.0533 192.999 24.24 190.572 28.08L189.852 29.2L189.132 30.32C188.626 31.1467 188.199 31.84 187.852 32.4C186.972 33.84 186.426 34.8267 186.212 35.36C186.026 35.3867 185.839 35.2267 185.652 34.88C185.492 34.5333 185.452 34.24 185.532 34C185.719 33.3867 186.212 32.4 187.012 31.04C187.332 30.5067 187.732 29.8667 188.212 29.12L188.852 28.08L189.532 27.08C191.772 23.56 192.892 21.5333 192.892 21ZM185.092 36.44C185.439 36.52 185.626 36.7333 185.652 37.08C185.679 37.4 185.599 37.76 185.412 38.16C184.879 39.1733 184.252 39.6 183.532 39.44C183.186 39.3867 182.999 39.1733 182.972 38.8C182.946 38.48 183.039 38.12 183.252 37.72C183.759 36.7333 184.372 36.3067 185.092 36.44Z" fill="#DC3943"></path></svg>