<?xml version="1.0" encoding="UTF-8"?> <svg xmlns="http://www.w3.org/2000/svg" width="1458" height="241" viewBox="0 0 1458 241" fill="none"><g clip-path="url(#clip0_9_2)"><path d="M1350 2.77009C1347.37 6.04009 1345.58 8.83009 1343.24 11.0301C1339.52 14.5401 1338.69 18.6301 1338.74 23.5801C1338.96 46.2101 1338.74 68.8601 1338.92 91.5001C1338.92 95.3901 1338.38 97.0501 1333.92 96.8501C1325.35 96.4601 1325.33 96.7601 1325.33 88.2701V32.7001C1319.58 39.5301 1314.51 45.5401 1309.45 51.5601C1304.84 57.0301 1300.11 62.4101 1295.73 68.0601C1293.73 70.6001 1292.73 70.0601 1291 67.9501C1281.73 56.6301 1272.35 45.4001 1262.79 33.8901C1261.31 35.5701 1261.9 37.4401 1261.9 39.0801C1261.85 56.7301 1261.78 74.3801 1261.9 92.0201C1261.9 95.5101 1261.39 97.0201 1257.37 96.8401C1248.15 96.5601 1248.14 96.8401 1248.14 87.3901C1248.14 66.0801 1247.98 44.7701 1248.26 23.4601C1248.32 18.4601 1247.26 14.4601 1243.73 10.9501C1241.45 8.66009 1239.57 5.95009 1236.95 2.77009C1242.95 2.77009 1248.04 2.86009 1253.13 2.77009C1255.64 2.71009 1256.5 4.61009 1257.72 6.07009C1268.4 18.8401 1279.18 31.5201 1289.59 44.5001C1292.71 48.3801 1294.21 47.7801 1297.05 44.3201C1307.6 31.4601 1318.52 18.9001 1329.12 6.07009C1331.12 3.65009 1333.12 2.53009 1336.23 2.74009C1340.5 3.00009 1344.78 2.77009 1350 2.77009Z" fill="#DC3943"></path><path d="M764.9 48.54C776.43 34.93 788 21.62 799.11 7.91002C802.29 3.98002 805.47 2.19002 810.41 2.70002C813.86 2.89854 817.318 2.92191 820.77 2.77002C820.77 3.41002 820.77 3.83002 820.66 3.97002C811.77 11.69 809.82 21.41 810.32 32.97C811.18 52.59 810.46 72.27 810.65 91.97C810.65 95.76 809.87 97.08 805.82 96.97C796.88 96.66 796.82 96.9 796.82 88.15C796.82 71.83 796.82 55.4967 796.82 39.15C796.82 37.55 797.25 35.87 796.06 33.73C785.72 46 775.53 58.17 765 70.72L733.41 32.79V68.88C733.41 77.04 733.32 85.2 733.46 93.36C733.46 95.86 732.95 96.75 730.21 96.81C719.57 97.06 719.57 97.18 719.57 86.72C719.57 65.72 719.41 44.72 719.68 23.72C719.75 18.39 718.79 14.04 714.84 10.31C712.71 8.31003 711.05 5.79002 708.54 2.73002C714.54 2.73002 719.8 2.80002 725.03 2.73002C727.13 2.73002 727.83 4.29002 728.85 5.51003C739.983 18.7834 751.09 32.07 762.17 45.37C763 46.39 763.9 47.38 764.9 48.54Z" fill="#DC3943"></path><path d="M472.44 32.8501C472.44 53.5901 472.34 73.0301 472.53 92.4701C472.53 95.9701 471.71 96.9001 468.19 96.8201C458.61 96.6101 458.61 96.8201 458.61 87.2301C458.61 65.9201 458.45 44.6101 458.72 23.3001C458.79 18.1201 457.72 13.9901 453.92 10.4001C451.81 8.40006 450.16 5.89006 447.62 2.77006C453.74 2.77006 458.97 2.77006 464.19 2.77006C466.27 2.77006 466.97 4.37006 468 5.59006C485.333 26.2034 502.667 46.8267 520 67.4601C521.55 69.2901 523.8 71.8301 525.53 73.8201C525.53 71.6101 525.53 69.4601 525.53 67.8901C525.53 47.7401 525.64 27.6001 525.48 7.46006C525.48 3.93006 526.01 2.56006 529.99 2.68006C539.55 2.95006 539.56 2.68006 539.56 12.2301C539.56 38.7001 539.47 65.1701 539.66 91.6401C539.66 95.6401 538.93 96.7201 534.66 96.9601C528.21 97.3301 524.12 95.1201 520.1 90.1101C506.03 72.6101 491.45 55.5201 477.1 38.2701C475.84 36.7501 474.54 35.2801 472.44 32.8501Z" fill="#191919"></path><path d="M353.68 98.77C339.26 98.77 327.29 93.16 317.25 82.97C315.03 80.72 314.43 79.2 317.2 76.72C323.94 70.72 323.81 70.53 330.6 76.39C341.88 86.14 360.38 87.81 373.14 80.23C379.14 76.67 381.64 71.33 380.42 64.67C379.47 59.48 375.32 56.07 368.61 54.81C359.08 53.03 349.32 54.72 339.78 52.81C326.68 50.14 319.02 42.81 318.57 31.28C318.09 19.21 324.19 10.61 334.33 4.92999C350.33 -4.02001 375.78 0.0199947 389.08 13.21C390.08 14.21 391.28 14.9 389.97 16.43C387.81 18.96 385.68 21.51 383.5 24.03C381.61 26.21 380.5 23.91 379.5 23.03C371.91 16.9032 362.332 13.7818 352.59 14.26C346.28 14.53 340.88 16.71 336.91 21.73C331.41 28.73 333.86 36.31 342.38 38.73C349.85 40.88 357.62 39.73 365.19 40.66C368.336 40.9475 371.464 41.4082 374.56 42.04C384.15 44.34 392.07 48.88 394.28 59.41C396.69 70.91 394.61 81.23 385.02 89.11C377.35 95.41 366.54 98.73 353.68 98.77Z" fill="#191919"></path><path d="M981.46 98.78C966.84 98.78 954.72 93.05 944.72 82.51C942.9 80.59 942.07 79.4 944.72 77.05C951.72 70.79 951.59 70.6 958.48 76.41C964.181 81.0639 971.108 83.9657 978.424 84.7643C985.739 85.563 993.129 84.2242 999.7 80.91C1006.53 77.32 1009.47 71.91 1008.36 65.09C1007.45 59.44 1002.86 55.94 995.36 54.66C986.45 53.13 977.36 54.75 968.5 52.89C958.31 50.75 949.61 46.74 947.06 35.52C944.51 24.3 948.68 15.21 957.31 8.13004C970.61 -2.75996 993.66 -2.65996 1010.31 8.13004C1010.44 8.22004 1010.57 8.33004 1010.71 8.42004C1019.77 14.42 1019.8 16.55 1011.53 23.85C1009.45 25.68 1008.53 24.07 1007.42 23.15C999.718 16.8562 989.929 13.6899 980 14.28C973.87 14.59 968.65 16.83 964.74 21.62C959.18 28.44 961.62 36.28 970.05 38.73C977.34 40.85 984.95 39.73 992.36 40.64C995.997 41.0019 999.609 41.5728 1003.18 42.35C1012.49 44.6 1019.89 49.29 1021.99 59.35C1024.29 70.45 1022.58 80.59 1013.52 88.45C1005.71 95.3 994.8 98.73 981.46 98.78Z" fill="#DC3943"></path><path d="M1056.53 44.5101C1068.7 39.6601 1080.81 42.2601 1092.68 41.6001C1094.08 41.5201 1094.87 42.1201 1094.86 43.6001C1094.86 46.9301 1094.86 50.2601 1094.86 53.6001C1094.86 55.9101 1093.09 55.6001 1091.63 55.6001C1086.63 55.6001 1081.63 55.6001 1076.63 55.6001C1074.14 55.6001 1071.63 55.6001 1069.15 55.7801C1057.79 56.4901 1056.47 57.7801 1056.57 68.8601C1056.57 73.3101 1054.68 79.1001 1057.34 81.8601C1060 84.6201 1065.84 82.6701 1070.28 82.7001C1083.43 82.8201 1096.59 82.8701 1109.74 82.7001C1113.31 82.6401 1114.59 83.3001 1114.47 87.2301C1114.19 96.7701 1114.47 96.7801 1104.87 96.7801C1085.55 96.7801 1066.24 96.6901 1046.92 96.8601C1043.59 96.8601 1042.77 95.9201 1042.78 92.6901C1042.9 64.0634 1042.9 35.4334 1042.78 6.80006C1042.78 3.40006 1043.89 2.73006 1047.03 2.80006C1066.36 2.94006 1085.7 2.94006 1105.03 2.80006C1108.03 2.80006 1109.03 3.41006 1109.03 6.61006C1109.09 17.0301 1109.23 17.0301 1098.66 17.0301C1086 17.0301 1073.35 17.1401 1060.66 16.9501C1057.36 16.9501 1056.39 17.8801 1056.48 21.1601C1056.68 28.7001 1056.53 36.3601 1056.53 44.5101Z" fill="#DC3943"></path><path d="M923.54 36.28C923.54 44.28 923.54 52.28 923.54 60.28C923.54 82.97 910.43 97.06 887.65 98.65C877.77 99.33 867.97 98.79 858.86 94.34C846.47 88.27 840.09 77.83 839.67 64.43C839.07 44.81 839.44 25.15 839.39 5.49998C839.39 4.18998 839.14 2.74998 841.25 2.78998C844.58 2.84998 847.92 2.72998 851.25 2.83998C854.39 2.92998 853.18 5.45998 853.18 6.96998C853.27 23.97 853.18 40.97 853.26 57.91C853.178 60.5864 853.345 63.2646 853.76 65.91C855.76 76.91 863.99 83.69 876.43 84.71C879.586 84.94 882.754 84.94 885.91 84.71C901.44 83.71 909.85 74.71 909.91 59.25C909.91 41.94 910.04 24.62 909.82 7.30998C909.82 3.46998 910.88 2.59998 914.56 2.69998C923.56 2.92998 923.56 2.69998 923.56 11.82L923.54 36.28Z" fill="#DC3943"></path><path d="M1219.18 35.45C1219.18 43.61 1219.18 51.77 1219.18 59.93C1219.18 82.71 1205.74 97.16 1182.96 98.61C1177.65 99.0865 1172.29 98.9119 1167.02 98.09C1146.02 94.25 1135.26 82.09 1134.9 60.77C1134.59 42.62 1134.9 24.47 1134.78 6.32003C1134.78 3.45003 1135.65 2.73003 1138.45 2.70003C1148.52 2.57003 1148.52 2.46003 1148.52 12.28C1148.52 26.44 1149 40.61 1148.42 54.74C1147.29 82.56 1166.06 86.55 1183.68 84.42C1198.22 82.67 1205.34 73.94 1205.35 59.42C1205.35 42.1 1205.44 24.78 1205.27 7.47003C1205.27 3.99003 1205.73 2.56003 1209.75 2.68003C1219.18 2.98003 1219.19 2.73003 1219.19 12L1219.18 35.45Z" fill="#DC3943"></path><path d="M192.21 70.6C193.36 72.15 194.55 73.74 195.72 75.34C200.95 82.47 200.95 82.47 193.72 88.09C174.85 102.83 147.1 102.38 129.14 87.09C111.18 71.8 106.24 45.75 117.48 25.57C132.76 -1.83997 172.09 -8.39997 195.63 12.35C198.2 14.62 198.07 15.96 195.82 18.12C193.57 20.28 192.21 23.63 189.75 24.49C187.29 25.35 185.33 21.73 183.02 20.26C169.82 11.84 151.84 12.26 139.32 21.39C133.673 25.5917 129.427 31.4008 127.138 38.0564C124.849 44.712 124.623 51.9039 126.49 58.69C130.12 71.86 139.19 80.01 152.07 83.49C166.19 87.31 178.7 83.75 189.16 73.4C189.99 72.59 190.75 71.72 191.55 70.89C191.755 70.7626 191.977 70.665 192.21 70.6Z" fill="#191919"></path><path d="M414.94 49.8001C414.94 35.6601 415.05 21.5301 414.86 7.40005C414.81 3.86005 415.42 2.51005 419.41 2.65005C428.61 2.96005 428.62 2.71005 428.62 12.0401C428.62 38.6401 428.55 65.2501 428.69 91.8501C428.69 95.4801 428.16 97.0101 423.98 96.8501C414.98 96.5001 414.98 96.7701 414.98 87.7001L414.94 49.8001Z" fill="#191919"></path><path d="M158.43 194.67C158.43 202.67 158.35 210.67 158.43 218.61C158.43 221.46 157.95 223.08 154.55 222.95C151.35 222.84 150.55 221.44 150.55 218.49C150.67 208.38 150.5 198.26 150.67 188.15C150.67 185.68 148.91 181.66 154.02 181.82C157.94 181.94 162.44 180.16 164.4 186.13C166.97 193.92 170.31 201.46 173.94 210.71C177.48 202.1 181.19 194.89 183.37 187.25C185.37 180.36 190.09 181.49 194.61 181.89C199.88 182.36 197.38 186.89 197.47 189.43C197.8 198.74 197.54 208.06 197.63 217.38C197.63 220.59 197.63 223.14 193.18 222.96C188.93 222.79 189.55 220.02 189.54 217.41C189.54 210.53 189.54 203.64 189.54 194.5C184.21 203.07 182.6 210.8 179.6 217.89C178.37 220.79 177.6 223.03 173.7 222.99C169.8 222.95 169.54 220.32 168.62 217.99C165.57 210.1 162.62 202.18 159.62 194.27L158.43 194.67Z" fill="#191919"></path><path d="M1160.49 192.82C1153.49 202.65 1147.49 210.65 1141.91 218.94C1139.62 222.36 1136.84 223.69 1133.21 222.74C1128.95 221.62 1131.03 217.83 1130.96 215.29C1130.7 206.51 1130.72 197.72 1130.96 188.93C1131.03 186.02 1128.96 181.54 1135.15 181.7C1140.84 181.84 1138.79 185.92 1138.88 188.59C1139.12 195.38 1138.96 202.19 1140.58 209.54C1146.19 201.69 1151.98 193.96 1157.32 185.93C1159.76 182.26 1162.89 180.72 1166.69 181.93C1170.49 183.14 1168.37 186.93 1168.44 189.48C1168.72 199.06 1168.44 208.66 1168.61 218.24C1168.66 221.55 1167.88 223 1164.2 222.95C1160.52 222.9 1160.47 221.04 1160.5 218.38C1160.54 210.58 1160.49 202.72 1160.49 192.82Z" fill="#191919"></path><path d="M885.84 195.18C880.47 202.68 874.91 210.05 869.84 217.73C867.39 221.42 864.7 224.13 860.2 222.73C855.7 221.33 858.2 217.32 858.09 214.6C857.76 205.6 857.92 196.52 858 187.49C858 184.86 856.76 181.66 861.81 181.59C866.58 181.53 866.03 184.2 866.01 187.16C866.01 194.59 866.01 202.03 866.01 211.78L882.93 188.27C884.17 186.55 885.3 184.74 886.68 183.14C888.77 180.73 891.68 181.53 894.09 182.07C896.5 182.61 895.6 185.14 895.62 186.85C895.69 197.22 895.62 207.59 895.69 217.95C895.69 221.06 895.27 222.95 891.46 222.95C887.35 222.95 887.55 220.42 887.56 217.64C887.61 210.26 887.56 202.88 887.56 195.5L885.84 195.18Z" fill="#191919"></path><path d="M423.36 195.2C418.05 202.66 412.6 210.03 407.47 217.62C405.06 221.17 402.47 224.21 397.87 222.73C393.45 221.31 395.79 217.24 395.69 214.46C395.38 205.46 395.62 196.36 395.55 187.31C395.55 184.25 395.23 181.61 399.84 181.64C404.45 181.67 403.3 184.64 403.33 187.01C403.4 194.65 403.33 202.29 403.33 212.07C410.42 202.2 416.59 194.12 422.13 185.63C424.46 182.07 427.24 181.07 430.79 181.9C434.67 182.81 432.84 186.3 432.89 188.6C433.09 198.44 432.89 208.3 433.03 218.14C433.08 221.42 432.25 223.06 428.6 222.96C425.15 222.87 424.83 220.96 424.86 218.28C424.94 210.72 424.86 203.15 424.86 195.59L423.36 195.2Z" fill="#191919"></path><path d="M800.34 211.79C807.34 201.96 813.13 194.07 818.57 185.93C820.77 182.65 823.37 180.93 827.14 181.87C831.5 182.98 829.22 186.75 829.3 189.2C829.6 198.52 829.42 207.85 829.42 217.2C829.42 220.07 830.14 223.13 825.31 222.98C820.48 222.83 821.42 219.68 821.41 216.89C821.41 209.8 821.41 202.72 821.41 193.38C814.46 203.05 808.63 210.78 803.28 218.83C801.02 222.22 798.33 223.7 794.65 222.83C790.34 221.77 792.51 218 792.44 215.54C792.17 205.95 792.37 196.35 792.31 186.75C792.31 183.97 792.03 181.69 796.22 181.69C800.16 181.69 800.45 183.45 800.39 186.52C800.24 194.15 800.34 201.84 800.34 211.79Z" fill="#191919"></path><path d="M503.93 211.94C511.08 201.94 517.04 193.94 522.61 185.67C524.87 182.3 527.61 180.89 531.27 181.92C535.12 182.99 533.13 186.4 533.18 188.68C533.41 198.54 533.26 208.41 533.29 218.27C533.29 220.8 533.38 222.98 529.68 222.96C526.13 222.96 525.1 221.56 525.19 218.18C525.38 210.72 525.25 203.26 525.25 194.85C520.25 198.53 518.1 203.63 514.88 207.75C511.66 211.87 508.6 216.35 505.61 220.75C503.71 223.55 500.95 223.01 498.39 222.75C494.99 222.45 496.25 219.58 496.23 217.75C496.12 207.35 496.23 196.95 496.15 186.55C496.15 183.7 495.95 181.46 500.15 181.61C504.35 181.76 503.97 184.23 503.96 186.95C503.92 194.58 503.93 202.18 503.93 211.94Z" fill="#191919"></path><path d="M220.54 182.65C226.54 180.34 229.54 181.94 231.16 188.02C233.34 196.2 236.44 204.12 239.6 213.49C243.82 202.38 246.06 196.05 248.74 187.78C250.32 182.9 252.33 180.23 258.65 182.65C252.14 199.89 247.08 217.82 238.98 234.65C236.67 239.43 231.91 240.9 226.9 240.96C224.9 240.96 222.55 240.86 222.63 237.61C222.7 234.89 223.71 234.51 226.4 234.08C233.93 232.89 236.58 227.58 233.95 220.08C229.55 207.61 225 195.2 220.54 182.65Z" fill="#191919"></path><path d="M1197 202.2C1197 196.6 1197.1 191.01 1197 185.41C1196.93 182.69 1197.9 181.65 1200.67 181.71C1203.26 181.71 1204.47 182.49 1204.67 185.33C1204.91 189.47 1202.54 195.41 1205.79 197.33C1209.4 199.45 1215.06 197.88 1219.79 198.33C1224.33 198.81 1225.29 196.71 1224.87 192.81C1224.64 190.71 1224.98 188.54 1224.79 186.43C1224.5 183.13 1225.51 181.63 1229.16 181.63C1232.81 181.63 1232.93 183.38 1232.91 186.09C1232.83 196.75 1232.81 207.4 1232.91 218.09C1232.91 221.17 1232.55 223.17 1228.66 222.97C1225.38 222.8 1224.5 221.29 1224.82 218.42C1224.85 218.154 1224.85 217.886 1224.82 217.62C1224.25 213.5 1226.94 207.31 1223.54 205.68C1219.17 203.6 1213.19 204.92 1207.9 204.75C1205.48 204.68 1204.63 206.02 1204.64 208.22C1204.64 211.153 1204.64 214.083 1204.64 217.01C1204.64 219.88 1205.36 223.01 1200.58 223.01C1196.04 222.96 1197.21 219.83 1197.15 217.43C1197 212.32 1197 207.26 1197 202.2Z" fill="#191919"></path><path d="M966.55 198.78C983.55 181.62 983.55 181.62 993.26 182.16C988.75 186.68 985.2 190.74 981.13 194.16C975.56 198.9 973.61 202.95 980.88 208.06C985.975 211.761 990.546 216.134 994.47 221.06C979.05 225.78 976.64 210.39 966.56 205.62C966.56 209.77 966.41 213.88 966.56 217.98C966.72 221.23 965.88 222.86 962.21 222.88C958.54 222.9 958.46 220.96 958.47 218.31C958.47 207.38 958.54 196.46 958.47 185.53C958.47 182.99 958.93 181.48 961.94 181.65C964.5 181.79 966.75 181.65 966.56 185.33C966.4 189.3 966.55 193.21 966.55 198.78Z" fill="#191919"></path><path d="M291.18 223.65C287.38 224.02 283.58 222.65 279.75 221.65C276.96 220.89 277.28 218.76 277.75 216.55C278.48 213.36 280.28 215.03 281.94 215.44C286.29 216.51 290.64 218.23 295.21 216.63C298.07 215.63 300.7 214.12 300.5 210.54C300.3 206.96 297.92 205.44 294.79 204.91C292.685 204.626 290.564 204.473 288.44 204.45C286.78 204.39 286.07 203.59 286.19 201.97C286.31 200.35 286.04 198.67 288.28 198.37C288.808 198.32 289.339 198.3 289.87 198.31C294.18 198.25 299.87 198.45 298.87 192.47C297.97 186.9 292.16 188.19 287.67 187.8C284.88 187.57 280.57 192.8 279.48 187.1C278.29 180.86 284.48 182.47 287.91 181.57C291.84 180.57 295.91 181.17 299.73 182.2C307.29 184.2 309.93 191.94 305.73 198.6C305 199.76 301.22 200.52 304.36 202.6C309.95 206.24 310.46 211.18 307.98 216.4C305.27 222.1 299.57 223.22 293.84 223.68C293.06 223.71 292.26 223.65 291.18 223.65Z" fill="#191919"></path><path d="M1086.93 223.67C1083.28 223.96 1079.45 222.73 1075.63 221.67C1072.76 220.86 1073.47 218.52 1073.81 216.42C1074.41 212.7 1076.48 215.27 1077.87 215.52C1081.5 216.2 1085.01 217.78 1088.87 217.17C1092.73 216.56 1096.48 215.37 1096.41 210.59C1096.35 206.21 1092.87 205.12 1089.23 204.71C1087.64 204.556 1086.05 204.483 1084.45 204.49C1082.84 204.49 1082.03 203.74 1082.12 202.11C1082.21 200.48 1081.8 198.8 1084.04 198.41C1084.57 198.351 1085.1 198.328 1085.63 198.34C1089.79 198.15 1095.63 198.95 1094.77 192.72C1093.85 186.3 1087.77 187.78 1083.09 188.2C1080.8 188.4 1078.56 189.2 1076.26 189.38C1075.84 188.236 1075.58 187.037 1075.49 185.82C1075.31 183.39 1077.1 182.64 1079.01 182.3C1084.01 181.4 1089.01 180.74 1094.01 181.86C1103.31 183.86 1106.37 191.06 1101.17 199.1C1100.41 200.28 1097.99 201.1 1100.33 202.6C1105.91 206.17 1106.56 211.25 1103.96 216.44C1101.02 222.33 1095.04 223.44 1088.96 223.69C1088.41 223.68 1087.88 223.67 1086.93 223.67Z" fill="#191919"></path><path d="M624.83 181.75C629.61 181.75 634.39 181.83 639.17 181.75C642 181.69 642.8 183 642.75 185.63C642.7 188.26 641.07 188.4 639.07 188.54C635.68 188.78 630.79 186.88 629.27 189.42C627.49 192.42 628.41 197.03 628.34 200.94C628.24 206.51 628.29 212.09 628.34 217.66C628.34 220.41 628.61 222.92 624.51 223.03C619.97 223.15 620.14 220.45 620.17 217.34C620.25 210.18 619.82 202.98 620.32 195.85C620.72 190.13 619.39 187.55 613.09 188.34C610.74 188.63 606.09 190.75 606.37 184.87C606.59 179.7 610.56 182.1 612.92 181.87C616.84 181.47 620.85 181.74 624.83 181.75Z" fill="#191919"></path><path d="M588.14 215.77C589.64 219.4 589.84 222.28 584.89 223.41C576.72 225.26 566.82 221.74 562.24 215.06C557.24 207.81 557.24 196.6 562.13 189.5C566.66 182.95 576.54 179.7 584.91 181.77C587.22 182.35 588.98 182.88 588.66 185.77C588.33 188.77 586.49 188.91 584.11 188.35C577.38 186.76 571.82 188.53 568.67 194.88C565.77 200.71 565.87 206.83 570.01 212.14C574.6 218.04 580.75 218.14 587.26 215.75C587.552 215.709 587.85 215.716 588.14 215.77Z" fill="#191919"></path><path d="M414.84 174.79C409.65 174.2 404.98 173.3 403.08 167.79C402.56 166.3 401.55 164.57 403.44 163.6C404.94 162.84 406.66 162.14 408.26 164.24C412.35 169.64 416.86 169.51 421.14 164.44C421.681 163.677 422.496 163.152 423.416 162.977C424.335 162.802 425.286 162.989 426.07 163.5C428.32 164.74 427.07 166.64 426.36 168.34C424.06 173.56 419.42 174.41 414.84 174.79Z" fill="#191919"></path><path d="M612.69 0.260103C584.07 0.0501032 561.46 21.0901 561.26 48.1001C561.06 76.7001 582.84 98.7401 611.47 98.8901C638.98 99.0401 662.07 77.3601 662.25 51.1901C662.45 22.6701 640.85 0.470103 612.69 0.260103ZM611.88 84.9001C591.47 84.9001 575.12 69.5901 574.88 50.2601C574.69 29.8601 590.45 14.3201 611.38 14.2601C632.31 14.2001 648.38 29.4901 648.38 49.2601C648.38 69.0301 632.23 84.8701 611.88 84.9001Z" fill="#191919"></path><path d="M303.47 93.75C290.84 67.07 277.73 40.6 265.81 13.61C261.44 3.73004 256.48 -1.81996 244.75 2.11004C245.257 3.72066 245.927 5.27537 246.75 6.75004C249.57 10.97 248.84 14.65 246.61 19.08C237.21 37.74 228.26 56.63 219.16 75.44C215.8 82.38 212.49 89.34 208.96 96.73C213.73 96.73 217.72 96.73 221.71 96.73C223.1 96.73 224.24 96.66 224.92 95.1C227.92 88.2 234.18 85.04 240.83 83.62C254.36 80.73 261.07 80.15 271.04 82.18C280.49 84.09 284.74 87.37 287.7 93.3C288.31 94.52 288.31 96.75 290.7 96.72C295.24 96.72 299.77 96.72 304.7 96.72C304.07 95.26 303.81 94.48 303.47 93.75ZM236.53 73.21L256.53 30.05L276.53 68.68C264.73 66.44 253.24 65.08 236.53 73.21Z" fill="#191919"></path><path d="M765.57 194.91C762.57 183.36 752.57 178.27 741.43 182.3C738.81 183.25 736.22 187.72 733.25 182.07C732.69 181.01 727.42 180.41 727.44 185.44C727.507 202.18 727.507 218.92 727.44 235.66C727.44 238.82 728.58 239.72 731.62 239.76C734.66 239.8 735.08 238.33 735.03 235.85C734.93 230.55 735.03 225.24 735.03 218.85C743.81 224.64 752.11 226.24 759.54 219.85C766.97 213.46 768 204.21 765.57 194.91ZM746.87 217.22C740.54 217.22 735.25 210.68 735.09 202.68C734.92 194.51 740.48 187.68 747.21 187.68C753.49 187.74 758.21 193.68 758.32 201.68C758.41 210.37 753.35 217.24 746.87 217.22Z" fill="#191919"></path><path d="M1048.28 218.88C1047.94 212.78 1048.21 206.64 1048.2 200.52C1048.2 184.19 1040.2 178.15 1024.03 182.08C1019.16 183.26 1016.24 185.36 1018.74 191.32C1024.09 188.4 1029.34 186.63 1035.08 188.48C1038.51 189.58 1040.52 192.27 1039.97 195.74C1039.42 199.21 1036.11 197.39 1033.97 197.74C1032.15 198.03 1030.25 197.8 1028.39 197.92C1021.89 198.32 1016.22 200.36 1013.83 207.03C1012.22 211.52 1012.59 216.28 1016.34 219.59C1021.54 224.18 1027.73 224.95 1034.24 222.4C1037.09 221.28 1039.5 218.6 1042.84 222.55C1044.14 224 1048.57 223.87 1048.28 218.88ZM1040.12 207.09C1039.72 213.29 1035.95 216.52 1029.78 217.29C1025.94 217.03 1021.68 215.98 1021.71 211.52C1021.71 203.58 1028.65 204.16 1033.98 203.42C1036.76 203 1040.42 202.49 1040.12 207.09Z" fill="#191919"></path><path d="M1279.36 181.23C1267.16 181.31 1258.28 190.44 1258.47 202.69C1258.67 215.09 1267.47 223.76 1279.84 223.69C1292.21 223.62 1300.72 214.69 1300.59 202.23C1300.46 189.77 1291.79 181.15 1279.36 181.23ZM1279.73 217.23C1272.73 217.33 1267.18 210.83 1267.13 202.56C1267.08 194.29 1272.52 187.79 1279.5 187.75C1286.65 187.7 1292 193.93 1292.02 202.34C1292.04 210.75 1286.79 217.14 1279.73 217.23Z" fill="#191919"></path><path d="M681.18 181.23C668.66 180.99 659.96 189.36 659.72 201.91C659.48 214.46 667.85 223.45 680.15 223.66C692.82 223.88 701.2 215.66 701.36 202.96C701.52 189.8 693.79 181.47 681.18 181.23ZM681.04 217.23C674.04 217.44 668.46 211.1 668.3 202.77C668.14 194.44 673.36 187.94 680.4 187.72C687.44 187.5 692.95 193.72 693.07 202.13C693.19 210.54 688 217 681 217.23H681.04Z" fill="#191919"></path><path d="M344.83 204.41C351.47 204.61 357.59 204.41 364.76 204.57C369.33 204.69 369.99 202.96 369.76 199.11C369.16 188.95 363.32 182.21 353.91 181.26C344 180.26 335.17 185.65 333.3 194.88C331.65 203.03 331.36 211.5 337.98 218.07C344.6 224.64 352.73 224.37 361.11 222.93C366.03 222.08 368.03 219.54 366.11 213.93C363.11 214.93 360.42 216.15 357.61 216.81C354.497 217.617 351.199 217.288 348.307 215.882C345.415 214.477 343.118 212.086 341.83 209.14C340.41 205.82 340.74 204.28 344.83 204.41ZM340.94 198.32C341.94 192.06 344.85 188.32 350.63 187.82C352.62 187.524 354.651 187.902 356.4 188.896C358.149 189.889 359.515 191.44 360.28 193.3C361.5 195.93 362.45 198.45 357.78 198.3C352.3 198.23 346.82 198.32 340.94 198.32Z" fill="#191919"></path><path d="M611.77 79.6801C604.59 69.9501 597.7 60.6201 590.77 51.2901C590.332 50.8003 590.096 50.163 590.109 49.5063C590.122 48.8496 590.383 48.2222 590.84 47.7501C597.77 38.4501 604.61 29.0901 611.71 19.4401C618.78 29.0301 625.5 38.2701 632.4 47.3801C633.88 49.3801 633.18 50.5601 632.01 52.1501C625.41 61.0801 618.84 70.0501 611.77 79.6801Z" fill="#DC3943"></path><path d="M138.56 203.1H9.91C7.94475 203.1 6.05998 202.319 4.67034 200.93C3.28069 199.54 2.5 197.655 2.5 195.69V66.54C2.5 64.5738 3.28037 62.688 4.66973 61.2968C6.05909 59.9056 7.94383 59.1226 9.91 59.12H91.28" stroke="#191919" stroke-width="5" stroke-miterlimit="10"></path><path d="M1447.5 205.6H1314.6V200.6H1447.5C1448.8 200.6 1450.05 200.083 1450.98 199.163C1451.9 198.242 1452.42 196.993 1452.42 195.69V66.54C1452.42 65.2359 1451.9 63.9861 1450.98 63.0639C1450.05 62.1418 1448.8 61.6226 1447.5 61.62H1368.29V56.62H1447.5C1450.13 56.6226 1452.65 57.6686 1454.51 59.5284C1456.37 61.3882 1457.42 63.9099 1457.42 66.54V195.69C1457.42 198.319 1456.37 200.84 1454.51 202.698C1452.65 204.556 1450.13 205.6 1447.5 205.6Z" fill="#191919"></path></g><defs><clipPath id="clip0_9_2"><rect width="1457.42" height="240.93" fill="white"></rect></clipPath></defs></svg> 