<svg xmlns="http://www.w3.org/2000/svg" width="348" height="53" viewBox="0 0 348 53" fill="none"><path d="M25.3893 36.0854C25.6255 36.2036 25.6846 36.3808 25.5665 36.617L25.4483 36.7351C25.409 36.8139 25.3302 36.932 25.2121 37.0895C24.9365 37.4045 24.6411 37.7589 24.3261 38.1527C23.3417 39.2946 22.3376 40.3184 21.3139 41.224C18.0457 44.0591 15.3091 45.0631 13.104 44.2363C11.0171 43.4487 11.1155 41.1256 13.3993 37.2667C13.7931 36.5973 14.2459 35.8886 14.7578 35.1404L15.4075 34.1363C15.6044 33.9001 15.8209 33.6048 16.0572 33.2504C16.9628 31.9904 17.396 31.321 17.3566 31.2422C17.3172 31.321 17.1203 31.5769 16.766 32.01C16.3722 32.5219 15.9194 33.0929 15.4075 33.7229C14.0293 35.4161 12.6512 36.9911 11.273 38.448C7.02043 42.8581 4.02786 44.9056 2.29532 44.5906C1.38967 44.4331 0.877787 43.9016 0.759659 42.9959C0.523404 41.2634 1.40936 38.7433 3.41753 35.4357L4.00817 34.4907L4.59881 33.6048C5.07132 32.8172 5.4257 32.2266 5.66196 31.8328C6.37072 30.6122 6.78417 29.6869 6.9023 29.0568C6.9023 28.7812 7.0598 28.5843 7.37481 28.4662C7.65044 28.3875 7.98514 28.4071 8.37889 28.5253C8.77265 28.6434 9.06797 28.8206 9.26485 29.0568C9.50111 29.3325 9.52079 29.6278 9.32392 29.9428C9.20579 30.4153 8.73328 31.38 7.90638 32.8369C7.59138 33.3488 7.17793 34.0576 6.66604 34.9632L6.01634 36.0264L5.30757 37.1486C3.10252 40.9287 2.23626 42.9172 2.70877 43.114C3.2994 43.3109 5.9179 41.2043 10.5643 36.7942C15.3287 32.2266 17.9669 29.0372 18.4788 27.2259C18.6363 26.7534 19.0498 26.7534 19.7192 27.2259C20.3885 27.7378 20.7429 28.1906 20.7823 28.5843C20.7823 29.1356 20.3689 30.1594 19.542 31.6557C19.227 32.2463 18.7938 32.9748 18.2426 33.841L17.5338 35.0223L16.825 36.1445C14.4231 40.1609 13.5174 42.484 14.1081 43.114C14.5412 43.5866 16.451 42.5628 19.8373 40.0427C20.9398 39.2552 22.1014 38.3692 23.322 37.3849C23.7158 37.0698 24.0899 36.7548 24.4443 36.4398C24.5624 36.3611 24.6608 36.2823 24.7396 36.2036L24.8577 36.0854C25.0152 35.9673 25.1924 35.9673 25.3893 36.0854ZM53.0542 35.7311C53.9205 33.9198 54.3733 32.2857 54.4127 30.8288C54.4127 28.8206 53.507 27.7574 51.6958 27.6393C50.4357 27.5606 49.2348 27.974 48.0929 28.8797C47.6204 29.2734 47.266 29.6081 47.0297 29.8837C46.7935 30.12 46.636 30.2775 46.5572 30.3563C45.6516 31.38 45.0412 32.3447 44.7262 33.2504C44.4112 34.2348 44.5884 34.9632 45.2578 35.4357C45.3365 35.4751 45.3759 35.5145 45.3759 35.5539C45.3759 35.5932 45.3365 35.6523 45.2578 35.7311L44.9625 35.7901C44.8443 35.8295 44.7459 35.8492 44.6672 35.8492C43.4071 34.9829 42.8362 33.8607 42.9543 32.4826C43.1118 31.2619 43.7615 30.1003 44.9034 28.9978C45.179 28.7222 45.4153 28.5056 45.6122 28.3481L45.8484 28.1709C47.6204 26.6746 49.6088 26.1233 51.8139 26.5171C55.0427 27.1077 56.6177 28.9584 56.539 32.0691C56.4996 34.8648 55.2986 37.6408 52.9361 40.3971L51.3414 41.9918C49.1363 43.9212 47.1282 44.7678 45.3169 44.5316C44.7656 44.4134 44.3522 44.315 44.0765 44.2363V44.1772C42.0683 43.4684 41.0643 42.0903 41.0643 40.0427C41.143 39.7277 41.3005 39.5899 41.5368 39.6293C41.773 39.6687 41.9305 39.7671 42.0093 39.9246C42.0487 41.4996 42.8559 42.5234 44.4309 42.9959C46.0453 43.429 47.8566 42.6218 49.8648 40.5743C50.5342 39.8262 51.2626 38.8418 52.0501 37.6211C51.617 37.6605 51.1051 37.7195 50.5145 37.7983L49.2151 37.9755C48.7426 38.0149 48.3685 38.0542 48.0929 38.0936C47.266 38.133 46.7344 38.0542 46.4981 37.8574C46.38 37.818 46.3209 37.7195 46.3209 37.562V37.1486C46.3209 36.9517 46.3603 36.8139 46.4391 36.7351C46.4784 36.6564 46.5375 36.6367 46.6163 36.6761C46.8131 36.7942 47.3053 36.7548 48.0929 36.558C48.3291 36.5186 48.7032 36.4398 49.2151 36.3217L50.4554 36.0264C51.5579 35.7901 52.4242 35.6917 53.0542 35.7311ZM65.8554 29.234C65.6191 30.1397 64.7922 31.7147 63.3747 33.9591L62.4887 35.3176L61.6028 36.7942C60.9334 37.9755 60.3821 39.078 59.949 40.1018C60.579 39.3536 61.4847 38.1724 62.6659 36.558L64.0835 34.4907L65.5601 32.4826C67.9226 29.4112 69.537 27.9543 70.4033 28.1118C70.9152 28.1906 71.3286 28.4662 71.6436 28.9387C71.9586 29.3325 72.1161 29.7262 72.1161 30.12C72.1161 30.6713 71.8996 31.6557 71.4664 33.0732C71.2696 33.6245 71.0333 34.2742 70.7577 35.0223L70.0489 37.0895C68.7495 40.5546 68.2179 42.3462 68.4542 42.4643C68.6511 42.5431 70.1277 40.2002 72.884 35.4357C74.1834 33.2307 75.2072 31.5966 75.9553 30.5334C77.0184 29.0372 77.7666 28.289 78.1997 28.289C78.5935 28.289 79.0069 28.545 79.4401 29.0568C79.8338 29.5294 79.9913 29.9428 79.9126 30.2972C79.7944 30.8485 79.5385 31.7738 79.1447 33.0732C79.0266 33.5063 78.8494 34.097 78.6132 34.8451L78.0816 36.7351C77.1366 39.8458 76.7034 41.5981 76.7822 41.9918C76.9791 42.8581 78.5147 42.5825 81.3892 41.1649C82.3736 40.6924 83.417 40.1412 84.5196 39.5111C84.9133 39.2749 85.2874 39.0386 85.6418 38.8024C85.9568 38.6055 86.1733 38.4677 86.2915 38.3889C86.5671 38.1921 86.7837 38.2117 86.9412 38.448C87.0593 38.6843 87.0199 38.9008 86.823 39.0977C86.6655 39.2552 86.4687 39.4521 86.2324 39.6883C85.878 39.964 85.5236 40.2593 85.1693 40.5743C84.1849 41.3618 83.2005 42.0312 82.2161 42.5825C79.4204 44.1575 77.2941 44.4134 75.8372 43.3503C75.0103 42.7597 74.6362 41.6768 74.715 40.1018C74.715 38.8418 75.0103 37.3061 75.6009 35.4948C75.8372 34.786 76.0931 34.0379 76.3687 33.2504C76.605 32.6597 76.8609 32.0297 77.1366 31.3603L77.8453 29.5884C77.7272 29.6278 77.2153 30.4744 76.3097 32.1282L76.0144 32.7188L75.66 33.3094L74.9512 34.6089C74.3606 35.7114 73.8487 36.6564 73.4156 37.4439C70.4624 42.5628 68.4936 44.9647 67.5092 44.6497C66.3279 44.2559 65.7766 43.2125 65.8554 41.5193C65.9341 40.2199 66.387 38.4874 67.2139 36.3217C67.5289 35.5736 67.9029 34.727 68.3361 33.782L68.8676 32.6007C69.0645 32.1282 69.2023 31.7935 69.2811 31.5966C69.8717 30.2578 70.0292 29.6475 69.7536 29.7656C69.0448 30.0412 67.0563 32.5613 63.7881 37.3258C62.5675 39.0977 61.3468 40.9484 60.1262 42.8778C59.0237 44.571 58.2361 45.8113 57.7636 46.5988C57.6455 46.9532 57.3502 47.0123 56.8777 46.776C56.3658 46.5397 56.0705 46.1066 55.9917 45.4766C55.7555 43.7441 56.9171 40.5743 59.4765 35.9673L60.1853 34.6089L60.894 33.3685C61.524 32.3054 61.9769 31.5178 62.2525 31.006C63.1188 29.3522 63.611 28.2103 63.7291 27.5803C63.7685 27.3046 63.9063 27.1668 64.1425 27.1668C64.3788 27.1668 64.6544 27.2652 64.9694 27.4621C65.2844 27.6984 65.5207 27.974 65.6782 28.289C65.8751 28.604 65.9341 28.919 65.8554 29.234ZM106.213 36.0264C106.331 35.9083 106.508 35.9083 106.745 36.0264C106.942 36.1445 106.981 36.3217 106.863 36.558C106.036 37.9361 104.52 39.1568 102.315 40.2199C100.11 41.2831 97.8654 41.8737 95.5816 41.9918C92.9828 44.2363 90.5611 44.9844 88.3167 44.2363C86.2298 43.5275 85.0485 42.11 84.7729 39.9837C84.4973 37.818 85.2651 35.672 87.0764 33.5457C87.4701 31.38 88.4742 29.5884 90.0886 28.1709C91.8605 26.6746 93.849 26.1233 96.0541 26.5171C99.2829 27.1077 100.858 28.9584 100.779 32.0691C100.74 34.8648 99.5388 37.6408 97.1763 40.3971C98.8695 40.0821 100.641 39.4324 102.492 38.448C104.067 37.6605 105.307 36.8533 106.213 36.0264ZM89.8524 32.1282C89.2224 33.5457 89.0058 34.9239 89.2027 36.2626C89.3995 37.6014 89.9705 38.6252 90.9155 39.334C91.7818 40.0427 92.8449 40.4562 94.105 40.5743C94.8925 39.708 95.7391 38.5268 96.6447 37.0305C97.9441 34.7073 98.6135 32.6401 98.6529 30.8288C98.6529 28.8206 97.7472 27.7574 95.9359 27.6393C94.6759 27.5606 93.475 27.974 92.3331 28.8797C91.2305 29.7459 90.4036 30.8288 89.8524 32.1282ZM88.8483 43.114C89.9114 43.6259 91.2305 43.1928 92.8056 41.8146C91.6243 41.6178 90.6005 41.2043 89.7342 40.5743C88.3955 39.6687 87.5292 38.4086 87.1354 36.7942C86.466 40.2199 87.037 42.3265 88.8483 43.114ZM142.18 35.9673C142.416 35.8098 142.633 35.8098 142.83 35.9673C142.987 36.1248 143.007 36.302 142.889 36.4989C142.023 38.0346 140.763 39.5111 139.109 40.9287C137.691 42.11 135.978 43.055 133.97 43.7637C131.805 44.5119 129.816 44.7875 128.005 44.5906C125.012 44.315 122.984 42.7793 121.921 39.9837C121.016 37.503 122.276 34.5104 125.701 31.006C127.158 29.5097 128.674 28.3678 130.249 27.5803C131.942 26.714 133.36 26.4187 134.502 26.6943C136.195 27.1274 137.16 27.9149 137.396 29.0568C137.593 30.12 137.14 31.3013 136.038 32.6007C133.478 35.672 129.619 37.5817 124.461 38.3299C124.146 39.8262 124.363 41.0074 125.111 41.8737C126.568 43.4487 128.773 43.8031 131.726 42.9369C132.828 42.5825 133.99 42.0903 135.211 41.4603C136.234 40.909 137.14 40.3184 137.928 39.6883C138.873 38.9796 140.29 37.7392 142.18 35.9673ZM126.646 33.7229C125.859 34.786 125.229 35.9476 124.756 37.2077C127.276 36.4989 129.836 34.9239 132.435 32.4826C134.994 30.0412 135.644 28.5056 134.384 27.8756C133.596 27.5212 132.218 28.1906 130.249 29.8837C129.501 30.5531 128.773 31.2816 128.064 32.0691C127.434 32.7385 126.961 33.2898 126.646 33.7229ZM165.762 47.4257C165.88 46.7563 165.782 46.1657 165.467 45.6538C165.152 45.2207 164.719 44.886 164.168 44.6497C163.774 44.8466 163.419 45.0631 163.104 45.2994C162.789 45.5357 162.553 45.7129 162.396 45.831C161.372 46.776 160.663 47.7013 160.269 48.607C159.797 49.6701 159.994 50.3789 160.86 50.7333C161.411 50.9695 162.1 50.9105 162.927 50.5561C163.675 50.2411 164.286 49.8079 164.758 49.2567C165.309 48.666 165.644 48.0557 165.762 47.4257ZM162.514 44.1181C160.742 43.2125 160.939 40.9287 163.104 37.2667C163.498 36.5973 163.951 35.8886 164.463 35.1404L165.113 34.1363C165.309 33.9001 165.526 33.6048 165.762 33.2504C166.668 31.9904 167.101 31.321 167.062 31.2422C167.022 31.321 166.825 31.5769 166.471 32.01C166.077 32.5219 165.625 33.0929 165.113 33.7229C163.734 35.4161 162.356 36.9911 160.978 38.448C156.726 42.8581 153.733 44.9056 152 44.5906C151.095 44.4331 150.583 43.9016 150.465 42.9959C150.386 42.3265 150.425 41.539 150.583 40.6334C150.819 39.8458 151.213 38.9205 151.764 37.8574C151.843 37.7392 151.922 37.6014 152 37.4439C152.04 37.4045 152.079 37.3455 152.119 37.2667C152.512 36.5973 152.965 35.8886 153.477 35.1404L154.127 34.1363C154.324 33.9001 154.54 33.6048 154.776 33.2504C155.682 31.9904 156.115 31.321 156.076 31.2422C156.036 31.321 155.84 31.5769 155.485 32.01C155.091 32.5219 154.639 33.0929 154.127 33.7229C152.749 35.4161 151.37 36.9911 149.992 38.448C145.74 42.8581 142.747 44.9056 141.015 44.5906C140.109 44.4331 139.597 43.9016 139.479 42.9959C139.243 41.2634 140.129 38.7433 142.137 35.4357L142.727 34.4907L143.318 33.6048C143.791 32.8172 144.145 32.2266 144.381 31.8328C145.09 30.6122 145.503 29.6869 145.622 29.0568C145.622 28.7812 145.779 28.5843 146.094 28.4662C146.37 28.3875 146.704 28.4071 147.098 28.5253C147.492 28.6434 147.787 28.8206 147.984 29.0568C148.22 29.3325 148.24 29.6278 148.043 29.9428C147.925 30.4153 147.453 31.38 146.626 32.8369C146.311 33.3488 145.897 34.0576 145.385 34.9632L144.736 36.0264L144.027 37.1486C141.822 40.9287 140.956 42.9172 141.428 43.114C142.019 43.3109 144.637 41.2043 149.284 36.7942C154.048 32.2266 156.686 29.0372 157.198 27.2259C157.356 26.7534 157.769 26.7534 158.438 27.2259C159.108 27.7378 159.462 28.1906 159.502 28.5843C159.502 29.1356 159.088 30.1594 158.261 31.6557C157.946 32.2463 157.513 32.9748 156.962 33.841L156.253 35.0223L155.544 36.1445C155.19 36.7351 154.875 37.3061 154.599 37.8574C154.166 38.6449 153.792 39.334 153.477 39.9246C153.398 40.0427 153.339 40.1609 153.3 40.279C152.394 42.0115 152.099 42.9565 152.414 43.114C153.005 43.3109 155.623 41.2043 160.269 36.7942C165.034 32.2266 167.672 29.0372 168.184 27.2259C168.341 26.7534 168.755 26.7534 169.424 27.2259C170.094 27.7378 170.448 28.1906 170.487 28.5843C170.487 29.1356 170.074 30.1594 169.247 31.6557C168.932 32.2463 168.499 32.9748 167.948 33.841L167.239 35.0223L166.53 36.1445C164.128 40.1609 163.223 42.484 163.813 43.114C164.246 43.5866 166.156 42.5628 169.542 40.0427C170.645 39.2552 171.807 38.3692 173.027 37.3849C173.421 37.0698 173.795 36.7548 174.149 36.4398C174.268 36.3611 174.366 36.2823 174.445 36.2036L174.563 36.0854C174.72 35.9673 174.898 35.9673 175.094 36.0854C175.331 36.2036 175.39 36.3808 175.272 36.617L175.153 36.7351C175.114 36.8139 175.035 36.932 174.917 37.0895C174.642 37.4045 174.346 37.7589 174.031 38.1527C173.047 39.2946 172.043 40.3184 171.019 41.224C169.129 42.8778 167.396 43.9016 165.821 44.2953C166.136 44.5316 166.412 44.8072 166.648 45.1222C167.239 45.9097 167.416 46.8154 167.18 47.8391C167.022 48.7842 166.57 49.6504 165.821 50.438C165.113 51.2255 164.286 51.7571 163.341 52.0327C162.278 52.3083 161.313 52.2099 160.447 51.7374C159.147 51.0286 158.635 49.9851 158.911 48.607C159.187 47.3863 159.915 46.2247 161.096 45.1222C161.49 44.7678 161.963 44.4331 162.514 44.1181ZM193.457 35.9673C193.694 35.8098 193.91 35.8098 194.107 35.9673C194.264 36.1248 194.284 36.302 194.166 36.4989C193.3 38.0346 192.04 39.5111 190.386 40.9287C188.968 42.11 187.256 43.055 185.247 43.7637C183.082 44.5119 181.093 44.7875 179.282 44.5906C176.289 44.315 174.262 42.7793 173.198 39.9837C172.293 37.503 173.553 34.5104 176.978 31.006C178.435 29.5097 179.951 28.3678 181.526 27.5803C183.22 26.714 184.637 26.4187 185.779 26.6943C187.472 27.1274 188.437 27.9149 188.673 29.0568C188.87 30.12 188.417 31.3013 187.315 32.6007C184.755 35.672 180.896 37.5817 175.738 38.3299C175.423 39.8262 175.64 41.0074 176.388 41.8737C177.845 43.4487 180.05 43.8031 183.003 42.9369C184.105 42.5825 185.267 42.0903 186.488 41.4603C187.512 40.909 188.417 40.3184 189.205 39.6883C190.15 38.9796 191.567 37.7392 193.457 35.9673ZM177.923 33.7229C177.136 34.786 176.506 35.9476 176.033 37.2077C178.553 36.4989 181.113 34.9239 183.712 32.4826C186.271 30.0412 186.921 28.5056 185.661 27.8756C184.873 27.5212 183.495 28.1906 181.526 29.8837C180.778 30.5531 180.05 31.2816 179.341 32.0691C178.711 32.7385 178.238 33.2898 177.923 33.7229ZM190.681 19.6657C191.193 19.7838 191.488 20.1185 191.567 20.6698C191.567 20.9848 191.548 21.2407 191.508 21.4376C191.351 21.7526 191.233 22.0086 191.154 22.2054C190.445 23.2686 189.677 23.7214 188.85 23.5639C188.338 23.4458 188.043 23.1111 187.964 22.5598C187.964 22.4417 188.004 22.1858 188.082 21.792C188.161 21.477 188.279 21.221 188.437 21.0242C189.067 19.961 189.815 19.5082 190.681 19.6657ZM185.484 19.6657C185.996 19.7838 186.291 20.1185 186.37 20.6698C186.37 20.9848 186.33 21.2407 186.251 21.4376L186.133 21.792L185.956 22.2054C185.247 23.2686 184.48 23.7214 183.653 23.5639C183.141 23.4458 182.845 23.1111 182.767 22.5598C182.767 22.2448 182.806 21.9889 182.885 21.792C182.964 21.477 183.082 21.221 183.239 21.0242C183.869 19.961 184.617 19.5082 185.484 19.6657ZM223.598 31.6557L224.07 30.8288L224.661 29.8247C225.567 28.3678 226.078 27.3834 226.197 26.8715C226.669 26.714 227.142 26.6943 227.614 26.8124C228.205 26.9306 228.618 27.2062 228.854 27.6393C228.658 28.23 228.008 29.4112 226.905 31.1831L226.197 32.3054L225.488 33.4866C224.897 34.4317 224.405 35.2586 224.011 35.9673C221.727 40.0624 221.491 42.4643 223.302 43.1731C224.09 43.6062 225.882 42.8384 228.677 40.8696C231.276 39.0583 233.127 37.4242 234.229 35.9673C234.702 35.9673 234.977 36.1642 235.056 36.558C230.961 41.9918 227.201 44.7285 223.775 44.7678C222.042 44.7678 220.861 44.0394 220.231 42.5825C219.522 41.0074 219.896 38.6843 221.353 35.6129C221.078 35.8886 220.802 36.1445 220.526 36.3808C217.258 39.2158 214.522 40.2199 212.317 39.393C212.12 39.3143 211.923 39.2158 211.726 39.0977C211.49 39.7671 211.273 40.4759 211.076 41.224C210.446 43.2715 209.974 44.571 209.659 45.1222C209.541 45.4372 209.245 45.4766 208.773 45.2403C208.261 45.0041 207.966 44.571 207.887 43.9409C207.69 42.2084 208.812 39.1568 211.253 34.786L211.962 33.5457L212.612 32.3644C213.203 31.3407 213.636 30.5925 213.911 30.12C214.738 28.545 215.211 27.4424 215.329 26.8124C215.329 26.5368 215.486 26.3399 215.801 26.2218C216.077 26.143 216.412 26.1627 216.805 26.2808C217.199 26.399 217.495 26.5762 217.691 26.8124C217.888 27.0881 217.908 27.3834 217.75 27.6984C217.514 28.5647 216.589 30.3169 214.974 32.9551C214.62 33.5063 214.305 34.0182 214.029 34.4907C213.124 36.5776 212.888 37.8377 213.321 38.2708C213.754 38.7433 215.664 37.7195 219.05 35.1995C220.152 34.412 221.314 33.526 222.535 32.5416C222.889 32.266 223.243 31.9707 223.598 31.6557ZM253.213 35.9673C253.449 35.8098 253.666 35.8098 253.863 35.9673C254.02 36.1248 254.04 36.302 253.922 36.4989C253.056 38.0346 251.796 39.5111 250.142 40.9287C248.724 42.11 247.012 43.055 245.003 43.7637C242.838 44.5119 240.849 44.7875 239.038 44.5906C236.045 44.315 234.017 42.7793 232.954 39.9837C232.049 37.503 233.309 34.5104 236.734 31.006C238.191 29.5097 239.707 28.3678 241.282 27.5803C242.976 26.714 244.393 26.4187 245.535 26.6943C247.228 27.1274 248.193 27.9149 248.429 29.0568C248.626 30.12 248.173 31.3013 247.071 32.6007C244.511 35.672 240.652 37.5817 235.494 38.3299C235.179 39.8262 235.396 41.0074 236.144 41.8737C237.601 43.4487 239.806 43.8031 242.759 42.9369C243.861 42.5825 245.023 42.0903 246.244 41.4603C247.267 40.909 248.173 40.3184 248.961 39.6883C249.906 38.9796 251.323 37.7392 253.213 35.9673ZM237.679 33.7229C236.892 34.786 236.262 35.9476 235.789 37.2077C238.309 36.4989 240.869 34.9239 243.468 32.4826C246.027 30.0412 246.677 28.5056 245.417 27.8756C244.629 27.5212 243.251 28.1906 241.282 29.8837C240.534 30.5531 239.806 31.2816 239.097 32.0691C238.467 32.7385 237.994 33.2898 237.679 33.7229ZM278.511 29.7066C275.439 32.3054 272.742 35.1404 270.419 38.2117C270.104 39.2355 270.084 40.3774 270.36 41.6374C270.635 42.8975 271.049 43.4684 271.6 43.3503C273.648 43.1928 276.443 40.5546 279.987 35.4357C281.405 33.3488 282.488 31.3603 283.236 29.4703C284.063 27.5015 284.181 26.4777 283.59 26.399C282.921 26.2808 281.227 27.3834 278.511 29.7066ZM285.953 8.62076C282.881 12.4008 279.593 17.6182 276.089 24.2727C278.924 22.737 281.306 21.2801 283.236 19.902C286.622 17.5 289.555 14.6453 292.036 11.3377C294.871 7.55761 295.482 5.09662 293.867 3.95472C292.174 2.69469 289.536 4.25004 285.953 8.62076ZM275.085 27.2259L275.203 27.4031C274.061 28.9387 272.722 31.1438 271.187 34.0182L270.714 34.9632L270.183 35.9083C272.506 32.7976 274.868 30.1397 277.27 27.9346C279.672 25.7296 281.326 24.6664 282.232 24.7452C283.216 24.8633 284.102 25.3358 284.889 26.1627C285.716 27.029 286.071 27.9543 285.953 28.9387C285.598 30.7106 284.496 32.9944 282.645 35.7901C279.298 40.8696 276.246 43.9803 273.49 45.1222C273.136 45.2403 272.604 45.201 271.895 45.0041C271.108 44.8072 270.557 44.5316 270.242 44.1772C269.769 43.7047 269.434 43.055 269.238 42.2281C269.08 41.6374 269.021 40.9484 269.06 40.1609C268.076 41.5784 267.269 42.9959 266.639 44.4134C266.206 46.146 266.127 47.4454 266.402 48.3117C266.127 48.5479 265.753 48.5873 265.28 48.4298C264.847 48.2723 264.571 48.0557 264.453 47.7801C263.351 45.3782 264.985 40.2593 269.356 32.4235C270.064 31.1635 271.088 29.0962 272.427 26.2218C276.522 17.9528 280.164 11.8693 283.354 7.97106C287.567 2.73407 291.131 1.02122 294.044 2.83251C296.919 4.56505 296.879 7.61668 293.926 11.9874C291.485 15.6494 288.059 19.016 283.649 22.0873C281.287 23.7411 278.432 25.454 275.085 27.2259ZM302.159 32.5416C302.552 30.9272 302.237 29.6278 301.214 28.6434C300.387 27.8165 298.871 28.2496 296.666 29.9428C295.839 30.5334 295.012 31.2422 294.185 32.0691C293.476 32.8172 292.945 33.4276 292.59 33.9001C289.873 37.6802 289.243 40.3774 290.7 41.9918C291.882 43.2125 293.693 43.685 296.134 43.4094C298.812 43.1337 301.292 42.2871 303.576 40.8696C304.915 40.0427 306.903 38.4677 309.542 36.1445C309.778 35.987 309.995 35.987 310.191 36.1445C310.349 36.302 310.369 36.4792 310.25 36.6761C308.794 39.2749 306.49 41.3421 303.34 42.8778C300.229 44.4528 297.099 45.0828 293.949 44.7678C290.956 44.4922 288.948 42.9369 287.924 40.1018C287.019 37.6605 288.279 34.6679 291.704 31.1241C293.161 29.6672 294.677 28.5253 296.252 27.6984C297.906 26.8321 299.304 26.5368 300.446 26.8124C302.06 27.2062 303.104 28.0528 303.576 29.3522C304.009 30.4547 303.911 31.5375 303.281 32.6007C303.123 32.8369 302.887 32.9748 302.572 33.0141C302.257 33.0141 302.119 32.8566 302.159 32.5416ZM328.485 35.9673C328.721 35.8098 328.938 35.8098 329.135 35.9673C329.292 36.1248 329.312 36.302 329.194 36.4989C328.328 38.0346 327.067 39.5111 325.414 40.9287C323.996 42.11 322.283 43.055 320.275 43.7637C318.109 44.5119 316.121 44.7875 314.31 44.5906C311.317 44.315 309.289 42.7793 308.226 39.9837C307.32 37.503 308.581 34.5104 312.006 31.006C313.463 29.5097 314.979 28.3678 316.554 27.5803C318.247 26.714 319.665 26.4187 320.807 26.6943C322.5 27.1274 323.465 27.9149 323.701 29.0568C323.898 30.12 323.445 31.3013 322.342 32.6007C319.783 35.672 315.924 37.5817 310.766 38.3299C310.451 39.8262 310.667 41.0074 311.416 41.8737C312.872 43.4487 315.078 43.8031 318.031 42.9369C319.133 42.5825 320.295 42.0903 321.515 41.4603C322.539 40.909 323.445 40.3184 324.232 39.6883C325.177 38.9796 326.595 37.7392 328.485 35.9673ZM312.951 33.7229C312.164 34.786 311.534 35.9476 311.061 37.2077C313.581 36.4989 316.141 34.9239 318.739 32.4826C321.299 30.0412 321.949 28.5056 320.689 27.8756C319.901 27.5212 318.523 28.1906 316.554 29.8837C315.806 30.5531 315.078 31.2816 314.369 32.0691C313.739 32.7385 313.266 33.2898 312.951 33.7229ZM325.709 19.6657C326.221 19.7838 326.516 20.1185 326.595 20.6698C326.595 20.9848 326.575 21.2407 326.536 21.4376C326.378 21.7526 326.26 22.0086 326.182 22.2054C325.473 23.2686 324.705 23.7214 323.878 23.5639C323.366 23.4458 323.071 23.1111 322.992 22.5598C322.992 22.4417 323.031 22.1858 323.11 21.792C323.189 21.477 323.307 21.221 323.465 21.0242C324.095 19.961 324.843 19.5082 325.709 19.6657ZM320.511 19.6657C321.023 19.7838 321.319 20.1185 321.397 20.6698C321.397 20.9848 321.358 21.2407 321.279 21.4376L321.161 21.792L320.984 22.2054C320.275 23.2686 319.507 23.7214 318.68 23.5639C318.169 23.4458 317.873 23.1111 317.794 22.5598C317.794 22.2448 317.834 21.9889 317.913 21.792C317.991 21.477 318.109 21.221 318.267 21.0242C318.897 19.961 319.645 19.5082 320.511 19.6657ZM345.334 17.4213C346.397 17.3031 347.047 17.5591 347.283 18.1891C347.283 18.9766 345.491 22.2054 341.908 27.8756L340.845 29.5294L339.782 31.1831C339.034 32.4038 338.404 33.4276 337.892 34.2545C336.592 36.3808 335.785 37.8377 335.47 38.6252C335.195 38.6646 334.919 38.4283 334.643 37.9164C334.407 37.4045 334.348 36.9714 334.466 36.617C334.742 35.7114 335.47 34.2545 336.652 32.2463C337.124 31.4588 337.715 30.5138 338.423 29.4112L339.368 27.8756L340.373 26.399C343.68 21.2014 345.334 18.2088 345.334 17.4213ZM333.816 40.2199C334.328 40.338 334.604 40.653 334.643 41.1649C334.683 41.6374 334.565 42.169 334.289 42.7597C333.501 44.2559 332.576 44.886 331.513 44.6497C331.001 44.571 330.725 44.2559 330.686 43.7047C330.647 43.2322 330.785 42.7006 331.1 42.11C331.848 40.653 332.753 40.023 333.816 40.2199Z" fill="#1A1A1A"></path></svg>