<svg xmlns="http://www.w3.org/2000/svg" width="1114" height="884" viewBox="0 0 1114 884" fill="none"><g opacity="0.2"><path d="M1103.62 529.419H10.4544C10.4544 617.331 0.261719 751.111 0.261719 839.023C0.261719 853.548 0.261719 868.072 0.261719 882.597C2.8099 882.852 14.2767 884.126 14.2767 883.106C15.296 878.01 20.6471 878.775 27.782 880.303C34.9169 882.342 43.8356 879.539 53.0091 876.736C62.4373 881.323 71.1011 872.404 78.7456 875.972C86.1354 876.991 91.9962 878.265 94.0347 878.01C95.8184 874.952 110.598 876.991 125.123 871.64C139.647 869.601 154.681 870.62 156.72 866.798C156.72 868.327 162.071 866.034 169.716 865.779C177.615 865.014 188.063 864.76 198.51 864.505C208.958 865.269 219.66 869.091 227.559 864.505C235.459 864.76 240.555 859.663 240.555 862.721C246.416 862.466 253.041 855.586 258.647 852.783C261.96 853.293 264.763 850.49 267.056 848.451C268.075 848.451 268.84 848.451 269.859 848.706C274.701 849.98 279.542 852.783 283.874 853.548C286.677 854.822 289.48 856.096 292.283 857.115C296.36 854.057 310.12 852.528 314.707 851.509C319.294 848.961 339.934 859.154 345.03 857.625C365.161 851.509 363.123 849.725 385.037 856.605C395.994 854.312 401.855 846.922 412.557 843.61C414.341 844.629 416.634 846.158 419.183 847.942C422.24 846.922 425.043 844.629 427.337 842.081C429.121 842.081 430.649 842.336 432.688 842.59C454.602 834.181 446.193 835.201 475.752 841.826C482.378 839.533 477.026 834.946 487.729 833.672C492.57 840.042 499.96 842.081 507.35 847.177C514.994 845.393 522.894 843.61 530.538 841.826C534.615 836.475 539.202 838.004 540.476 833.162C563.664 839.278 591.44 839.278 614.883 845.139C616.412 845.139 617.941 845.139 619.469 845.139C657.437 843.1 672.472 850.235 689.035 842.845C714.262 844.629 739.489 846.413 764.716 848.451C764.716 848.451 821.03 856.096 858.744 862.211C877.6 865.269 891.615 864.759 891.615 866.034C891.615 864.759 904.101 861.957 923.213 865.779C932.641 864.76 943.598 861.702 955.32 862.466C967.296 864.25 980.292 872.659 992.778 873.423C1005.52 874.952 1017.5 860.937 1029.22 860.173C1040.94 860.682 1052.41 869.346 1061.83 869.091C1080.69 866.543 1066.68 874.188 1093.69 880.558C1096.74 878.01 1107.7 877.755 1111.27 877.755C1111.27 866.288 1113.82 854.567 1113.82 843.1L1103.62 529.419Z" fill="white"></path><path d="M10.4556 529.164C10.4556 608.412 1.53698 743.211 1.02734 825.772C1.02734 829.339 1.02734 833.162 1.02734 836.474C1.02734 848.451 1.02734 862.721 1.02734 874.697C1.28216 876.226 1.28226 878.01 1.28226 879.539C3.57562 879.539 14.7876 880.813 15.2972 879.793C16.5713 875.207 21.6677 875.971 28.8026 877.245C32.1152 878.01 35.9374 878.01 39.7597 877.245C44.3464 876.736 48.9332 875.207 53.7747 873.933C58.1066 875.971 62.4385 874.952 66.5156 874.187C71.1023 873.168 75.4342 871.639 79.2565 873.423C80.5306 873.678 81.5498 873.678 82.5691 873.933C88.1751 874.697 92.507 875.461 94.5456 875.461C96.0745 873.423 104.738 873.933 114.676 872.149C118.244 871.639 121.811 870.875 125.379 869.601C133.533 868.581 141.942 868.327 147.548 867.817C152.134 867.562 155.702 866.798 156.976 865.269C156.976 866.033 158.505 865.779 160.544 865.524C162.837 865.269 166.15 864.759 169.972 864.504C175.833 863.995 182.967 863.74 190.612 863.485C193.415 863.485 195.963 863.485 198.766 863.485C206.666 864.249 214.565 866.288 221.445 865.524C223.738 865.269 225.777 864.759 227.815 863.485C230.873 863.485 233.421 862.721 235.46 862.211C238.773 861.192 240.556 859.918 240.811 861.701C245.143 861.447 249.475 857.879 253.807 854.821C255.591 853.802 257.12 852.528 258.648 851.763C259.923 852.018 261.197 851.509 262.471 850.999C263.235 850.489 264.254 849.98 265.019 849.47C265.783 848.96 266.548 848.196 267.312 847.686C268.331 847.686 269.096 847.941 270.115 847.941C273.428 848.96 276.486 850.235 279.544 851.509C281.072 852.018 282.601 852.528 284.13 853.038C285.659 853.802 287.188 854.566 288.717 855.076C289.991 855.586 291.265 855.841 292.539 856.35C295.852 853.802 305.79 852.273 311.651 851.509C312.925 851.254 313.944 850.999 314.963 850.999C319.295 848.96 337.132 857.369 343.758 857.369C344.267 857.369 344.777 857.369 345.287 857.115C365.417 850.999 363.124 849.215 385.293 856.095C396.25 854.057 402.111 846.667 412.813 843.1C414.597 844.119 416.89 845.648 419.439 847.432C422.496 846.412 425.299 844.119 427.593 841.571C429.376 841.571 430.905 841.826 432.944 842.08C454.858 833.671 446.449 834.691 476.008 841.316C482.633 839.023 477.282 834.436 487.985 833.162C492.826 839.532 500.216 841.571 507.606 846.667C514.995 844.883 523.404 842.845 530.794 841.316C534.871 835.965 539.458 837.494 540.732 832.652C563.92 838.768 591.695 838.768 615.139 844.629C616.413 844.629 618.197 844.629 619.726 844.629C657.693 842.59 672.728 849.725 689.291 842.335C712.989 843.864 741.274 845.903 764.972 847.941C764.972 847.941 821.287 855.331 859 861.447C877.856 864.25 891.871 863.995 891.871 865.014C891.871 863.74 904.357 860.937 923.468 864.759C932.897 863.485 943.854 860.427 955.575 861.192C967.552 862.975 980.548 871.13 993.034 871.894C1005.52 873.168 1017.5 859.408 1029.22 858.389C1030.49 858.389 1031.77 858.644 1033.29 858.644C1043.74 860.427 1053.43 867.053 1061.83 866.798C1063.87 866.543 1065.66 866.288 1066.93 866.288C1078.14 865.524 1069.73 872.404 1093.69 877.755C1094.96 876.736 1097.25 876.226 1099.8 875.716C1103.88 874.952 1108.98 874.697 1111.27 874.697C1111.27 863.74 1113.56 851.254 1113.56 840.297L1113.31 835.455L1103.88 529.673L10.4556 529.164Z" fill="#F0F0F0"></path><path d="M10.4538 529.164C10.4538 603.571 2.04479 746.269 1.53516 823.733C1.53516 827.046 1.53516 831.378 1.53516 834.436C1.53516 845.648 1.53516 861.192 1.53516 872.404C1.78997 873.932 2.04482 875.716 2.04482 876.99C4.33819 876.736 15.2954 878.01 16.0598 877.245C17.5887 872.913 22.685 873.678 29.5651 874.952C32.8778 875.716 36.7 875.461 40.5223 874.952C45.109 874.697 49.6957 873.168 54.5373 871.894C58.8692 873.678 63.2011 872.913 67.2782 872.149C71.8649 871.13 76.1968 869.855 80.0191 871.639C81.2932 871.894 82.3126 871.894 83.3318 872.149C88.683 872.658 93.0148 873.678 95.3081 873.423C97.0919 871.384 105.501 871.894 115.439 870.11C119.006 869.601 122.574 868.836 126.141 867.562C134.55 866.543 142.704 866.543 148.31 865.778C152.642 865.524 156.21 864.759 157.739 863.23C157.993 863.74 159.268 863.74 161.306 863.485C163.599 863.23 166.912 862.721 170.734 862.466C176.595 861.956 183.73 861.956 191.375 861.701C193.923 861.701 196.726 861.701 199.529 861.701C207.428 862.466 215.327 864.759 221.953 863.485C224.246 863.23 226.285 862.721 228.323 861.701C231.381 861.701 234.184 860.937 235.968 860.682C239.026 859.663 241.064 858.643 241.319 860.172C245.651 859.663 249.983 856.35 254.315 853.292C256.098 852.273 257.627 851.254 259.411 850.234C260.685 850.234 261.959 849.98 262.979 849.215C263.743 848.96 264.762 848.451 265.527 847.941C266.291 847.431 267.056 846.922 267.82 846.412C268.839 846.412 269.604 846.667 270.623 846.667C273.936 847.686 276.993 848.96 280.051 850.234C281.58 850.744 283.109 851.254 284.638 851.763C286.167 852.528 287.696 853.292 289.225 853.802C290.499 854.311 291.773 854.566 293.047 854.821C296.614 852.273 306.552 850.999 312.158 849.98C313.432 849.725 314.452 849.47 315.471 849.47C320.058 847.686 337.64 856.095 344.265 855.84C344.775 855.84 345.285 855.84 345.794 855.586C365.67 849.725 363.631 847.686 385.801 854.821C396.758 852.783 402.619 845.393 413.321 842.08C415.105 843.1 417.398 844.629 419.946 846.412C423.004 845.393 425.807 843.099 428.101 840.551C429.884 840.551 431.413 840.806 433.452 841.061C455.366 832.652 446.957 833.671 476.516 840.297C483.141 838.003 477.79 833.416 488.492 832.142C493.334 838.513 500.724 840.551 508.113 845.648C514.993 844.119 524.422 841.825 531.302 840.297C535.379 834.945 539.966 836.474 541.24 831.633C564.428 837.748 592.203 837.748 615.646 843.354C616.921 843.354 618.704 843.354 620.233 843.354C658.201 841.316 673.235 848.451 689.799 841.061C711.968 842.59 743.31 844.374 765.479 846.412C765.479 846.412 821.794 853.802 859.507 859.408C878.364 862.211 892.379 861.701 892.379 862.975C892.379 861.701 904.865 858.898 923.976 862.466C933.405 861.192 944.362 858.134 956.083 858.643C968.06 860.172 981.055 868.581 993.542 869.091C1006.03 870.365 1018 856.605 1029.47 855.331C1030.74 855.331 1032.02 855.331 1033.55 855.586C1043.74 857.115 1053.68 863.74 1062.09 863.485C1064.13 863.23 1065.91 862.975 1067.18 862.975C1078.91 861.956 1070.24 868.836 1093.94 874.187C1095.21 873.423 1097.51 872.913 1100.06 872.404C1104.13 871.384 1108.97 871.384 1111.27 871.384C1111.27 861.192 1113.56 847.431 1113.56 837.239L1113.31 832.397L1104.39 528.909L10.4538 529.164Z" fill="#E1E1E1"></path><path d="M10.4519 529.164C10.4519 598.474 2.80742 749.327 2.04297 821.695C2.04297 824.753 2.04297 829.34 2.04297 832.397C2.04297 843.1 2.04297 859.663 2.04297 870.11C2.5526 871.639 2.80739 873.168 2.80739 874.442C5.10075 873.933 15.5483 875.207 16.8224 874.697C18.6061 870.875 23.7025 871.384 30.5826 872.659C33.8952 873.423 37.7175 873.168 41.5398 872.404C46.1265 872.404 50.7132 871.13 55.5547 869.601C59.8867 871.384 64.2186 870.365 68.2956 869.855C72.8824 869.091 77.2143 868.072 81.0365 869.601C82.3106 869.856 83.3299 869.856 84.3491 870.11C89.4455 870.62 93.7774 871.384 96.3256 871.384C98.3642 869.601 106.773 870.11 116.456 868.327C120.024 867.817 123.591 867.052 127.159 866.033C135.568 865.269 143.977 865.269 149.328 864.25C153.405 863.995 156.717 863.23 158.756 861.956C159.011 862.466 160.285 862.466 162.324 862.211C164.617 861.956 167.929 861.447 171.752 861.447C177.613 861.192 184.747 860.937 192.392 860.682C194.94 860.682 197.743 860.682 200.546 860.682C208.446 861.447 216.345 863.74 222.97 862.466C225.264 862.211 227.302 861.701 229.341 860.682C232.653 860.682 235.201 859.918 236.985 859.663C240.043 858.643 242.081 857.624 242.336 858.898C246.668 858.389 251 854.821 255.332 852.018C257.116 850.999 258.645 849.98 260.428 849.215C261.703 849.215 262.977 848.706 263.996 848.196C264.76 847.941 265.78 847.431 266.544 846.922C267.308 846.412 268.073 845.903 268.837 845.393C269.602 845.393 270.621 845.648 271.386 845.648C274.443 846.667 277.756 848.196 280.814 849.215C282.343 849.725 283.872 850.234 285.146 850.744C286.675 851.509 288.204 852.273 289.733 852.783C291.007 853.038 292.281 853.292 293.555 853.802C297.377 851.509 307.06 849.98 312.666 849.215C313.94 848.96 314.959 848.706 315.979 848.706C320.82 846.922 338.403 855.331 344.518 855.331C345.028 855.331 345.538 855.331 346.047 855.076C365.923 849.215 363.885 847.432 386.054 854.312C397.011 852.273 402.872 844.883 413.574 841.571C415.358 842.59 417.651 844.119 420.199 845.903C423.257 844.883 426.06 842.59 428.353 840.042C430.137 840.042 431.666 840.297 433.705 840.551C455.619 832.142 447.21 833.162 476.769 840.042C483.394 837.749 478.043 833.162 488.745 831.888C493.587 838.258 500.977 840.297 508.366 845.393C514.737 843.864 525.184 841.571 531.555 840.042C535.632 834.691 540.219 836.22 541.493 831.378C564.681 837.494 592.456 837.494 615.9 843.1C617.174 843.1 619.212 843.1 620.486 843.1C658.454 840.806 673.488 847.941 690.052 840.551C710.947 841.826 745.092 843.864 765.732 845.648C765.732 845.648 822.047 852.783 859.76 858.389C878.617 861.192 892.632 860.682 892.632 861.701C892.632 860.427 905.118 857.369 924.229 860.937C933.658 859.663 944.615 856.605 956.336 857.115C968.313 858.643 981.308 866.798 993.794 867.307C1006.28 868.581 1018 854.821 1029.47 853.292C1030.74 853.292 1032.02 853.292 1033.55 853.547C1043.74 854.821 1053.68 861.447 1062.09 861.192C1064.12 860.937 1065.91 860.937 1067.18 860.682C1079.16 859.408 1070.49 866.288 1093.68 871.639C1094.96 870.875 1097.25 870.365 1099.8 870.11C1103.88 869.091 1108.72 868.836 1111.01 868.836C1111.01 859.408 1113.05 844.374 1113.05 834.946L1112.79 830.104L1104.64 529.164H10.4519Z" fill="#D2D2D2"></path><path d="M10.4531 529.163C10.4531 593.632 3.31823 752.384 2.80859 819.401C2.80859 822.204 2.80859 827.3 2.80859 830.103C2.80859 840.041 2.80859 857.624 2.80859 867.562C3.31823 869.091 3.82793 870.619 3.82793 871.639C5.86647 870.874 16.0592 872.148 17.8429 871.639C19.6266 868.071 24.9777 868.836 31.603 869.855C34.9156 870.365 38.738 870.11 42.5603 869.6C47.147 869.6 51.7337 868.581 56.5753 867.307C60.9072 868.836 65.2391 867.817 69.3162 867.562C73.9029 866.797 78.2348 866.033 82.0571 867.562C83.3312 867.817 84.3504 867.817 85.3697 868.071C89.9564 868.326 94.5432 869.091 97.3462 869.091C99.6395 867.307 107.794 867.816 117.477 866.033C121.044 865.523 124.612 865.013 128.179 863.994C136.843 863.23 145.252 863.23 150.093 862.21C153.916 862.21 157.228 861.446 159.522 860.172C159.776 860.682 161.051 860.682 163.344 860.427C165.637 860.172 168.95 859.662 172.772 859.662C178.633 859.407 185.768 859.153 193.412 859.153C195.961 859.153 198.764 859.153 201.567 859.408C209.466 860.427 217.365 862.465 223.991 861.191C226.284 860.936 228.322 860.427 230.361 859.662C233.674 859.662 236.222 858.643 237.751 858.643C240.809 857.879 242.592 856.859 243.102 857.879C247.434 857.114 251.766 853.802 255.843 850.999C257.627 850.234 259.41 849.215 260.939 848.195C262.213 848.195 263.487 847.686 264.507 847.176C265.271 846.921 266.29 846.412 267.055 845.902C267.819 845.393 268.584 845.138 269.348 844.628C270.113 844.628 271.132 844.883 271.897 844.883C274.954 845.902 278.267 847.431 281.325 848.45C282.854 848.96 284.383 849.724 285.657 849.979C287.185 850.744 288.714 851.508 290.243 852.018C291.517 852.273 292.537 852.527 294.066 852.782C297.888 850.489 307.571 849.215 313.177 848.195C314.196 847.941 315.47 847.686 316.235 847.686C321.076 846.157 338.659 854.566 344.774 854.311C345.284 854.311 345.794 854.311 346.303 854.056C366.179 848.196 364.141 846.412 386.055 853.547C397.012 851.508 402.873 844.118 413.575 840.806C415.359 841.825 417.652 843.354 420.2 845.138C423.258 844.118 426.061 841.825 428.355 839.277C430.138 839.277 431.667 839.532 433.706 839.786C455.62 831.378 447.211 832.397 476.77 839.277C483.395 836.983 478.044 832.397 488.747 831.123C493.588 837.493 500.978 839.532 508.368 844.628C514.228 843.354 525.695 840.551 531.556 839.277C535.633 833.926 540.22 835.455 541.494 830.613C564.682 836.729 592.458 836.729 615.901 842.335C616.92 842.335 619.213 842.335 620.487 842.335C658.455 840.041 673.49 847.176 690.053 839.786C709.419 841.061 746.368 843.099 765.734 844.628C765.734 844.628 822.048 851.508 859.762 856.859C878.618 859.408 892.633 858.898 892.633 859.917C892.633 858.643 905.119 855.585 924.231 859.153C933.659 857.879 944.616 854.566 956.338 855.076C968.314 856.604 981.31 864.504 993.796 865.014C1006.03 866.033 1017.75 852.527 1029.47 850.999C1030.74 850.999 1032.02 850.999 1033.29 850.999C1043.49 852.273 1053.42 858.643 1061.58 858.643C1063.62 858.388 1065.4 858.388 1066.67 858.133C1078.91 856.605 1070.24 863.485 1093.17 868.836C1094.45 868.071 1096.74 867.816 1099.29 867.307C1103.37 866.033 1107.95 865.778 1110.5 865.778C1110.5 856.859 1112.54 841.061 1112.54 832.142V827.301L1104.9 528.654L10.4531 529.163Z" fill="#C3C3C3"></path><path d="M10.4513 529.165C10.4513 588.537 3.82604 755.443 3.31641 817.364C3.31641 819.912 3.31641 825.263 3.31641 827.811C3.31641 836.985 3.31641 855.841 3.31641 865.015C4.08086 866.289 4.33574 868.072 4.33574 868.837C6.37428 867.563 16.0573 869.092 18.0958 868.837C20.1344 865.779 25.2308 866.289 31.8561 867.308C35.1687 867.818 38.9909 867.563 42.8132 867.053C47.3999 867.308 51.9866 866.289 56.8282 865.015C61.1601 866.289 65.492 865.524 69.5691 865.269C74.4106 864.76 78.7425 863.995 82.31 865.524C83.5841 865.779 84.6033 865.779 85.6226 866.034C89.9545 866.289 94.5413 867.053 97.3443 866.798C99.8925 865.27 108.047 865.524 117.475 863.741C121.042 863.231 124.61 862.721 128.177 861.702C137.096 860.938 145.25 861.192 150.092 859.918C153.659 859.918 156.972 859.154 159.52 857.88C159.775 858.389 161.304 858.389 163.342 858.135C165.635 857.88 168.948 857.625 172.77 857.37C178.631 857.115 185.766 857.115 193.156 857.115C195.704 857.115 198.507 857.37 201.055 857.37C208.954 858.389 216.854 860.428 223.224 859.154C225.518 859.154 227.556 858.644 229.595 857.625C232.907 857.37 235.456 856.606 236.985 856.606C239.788 855.841 241.826 854.822 242.336 855.841C246.668 855.077 250.999 851.509 255.077 848.961C256.86 848.197 258.644 847.177 260.173 846.158C261.447 846.158 262.721 845.648 263.74 844.884C264.505 844.629 265.524 844.12 266.289 843.865C267.053 843.61 267.817 843.1 268.582 842.845C269.346 843.1 270.366 843.1 271.13 843.355C274.188 844.374 277.501 845.903 280.558 846.923C282.087 847.432 283.616 848.197 284.89 848.452C286.419 849.216 287.948 849.98 289.477 850.49C290.496 850.745 291.77 851 293.299 851C297.376 848.706 307.059 847.432 312.411 846.668C313.43 846.413 314.704 846.158 315.468 846.158C320.565 844.884 337.892 853.293 344.008 853.038C344.518 853.038 345.027 853.038 345.282 852.783C365.158 847.177 363.119 845.139 385.034 852.274C395.991 850.235 401.852 842.846 412.554 839.533C414.338 840.807 416.631 842.081 419.179 843.865C422.237 842.846 425.04 840.552 427.334 838.004C429.117 838.004 430.646 838.259 432.685 838.514C454.599 830.105 446.19 831.124 475.749 838.004C482.374 835.711 477.023 831.124 487.725 829.85C492.567 836.22 499.957 838.259 507.346 843.61C512.698 842.336 525.184 839.533 530.535 838.259C534.612 832.908 539.199 834.436 540.473 829.595C563.661 835.711 591.436 835.711 614.88 841.317C615.899 841.317 618.192 841.317 619.466 841.317C657.434 839.023 672.214 846.158 689.032 838.514C706.869 839.788 746.875 841.826 764.713 843.355C764.713 843.355 821.027 850.235 858.74 855.332C877.597 857.88 891.612 857.115 891.612 858.389C891.612 857.115 904.098 854.057 923.209 857.37C932.638 856.096 943.595 852.783 955.316 853.038C967.293 854.567 980.289 862.467 992.775 862.976C1005.01 863.995 1016.73 850.49 1028.19 848.706C1029.47 848.706 1030.74 848.706 1032.02 848.706C1042.21 849.726 1052.15 856.096 1060.3 856.096C1062.34 855.841 1063.87 855.841 1065.4 855.586C1078.14 853.803 1069.22 860.938 1091.9 865.779C1093.17 865.269 1095.47 864.76 1098.01 864.505C1101.84 863.231 1106.42 862.976 1108.97 862.721C1108.97 854.567 1110.76 837.494 1110.76 829.34V824.499L1103.62 528.4L10.4513 529.165Z" fill="#B4B4B4"></path><path d="M10.4572 529.164C10.4572 583.695 4.34167 758.755 3.83203 815.324C3.83203 817.618 3.83203 823.479 3.83203 825.772C3.83203 834.181 3.83203 854.312 3.83203 862.721C4.59649 863.995 5.10612 865.778 5.10612 866.288C7.14467 864.759 16.318 866.033 18.8662 866.288C21.1596 863.74 26.256 864.25 32.6264 865.014C35.9391 865.524 39.7613 865.269 43.5836 864.504C48.1703 865.014 52.7571 863.995 57.3438 862.721C61.6757 863.995 66.0076 862.975 70.0847 862.975C74.9262 862.721 79.2582 861.956 82.8256 863.485C84.0997 863.74 85.1189 863.995 86.1382 863.995C90.2153 863.995 94.5471 864.759 97.8598 864.759C100.663 863.23 108.817 863.74 117.99 861.956C121.558 861.447 125.125 860.937 128.693 860.172C137.611 859.663 146.02 859.663 150.607 858.389C153.665 858.389 157.232 857.624 160.035 856.605C160.545 857.115 161.819 856.86 163.858 856.86C166.406 856.605 169.464 856.35 173.286 856.35C179.147 856.095 186.282 856.095 193.671 856.095C196.22 856.095 199.023 856.35 201.571 856.605C209.47 857.624 217.369 859.663 223.74 858.134C226.033 858.134 228.327 857.624 230.11 856.605C233.423 856.35 236.226 855.331 237.5 855.586C240.303 854.821 242.342 853.802 242.851 854.821C247.183 854.057 251.515 850.489 255.592 847.941C257.376 847.177 259.16 846.412 260.689 845.393C261.963 845.138 263.237 844.629 264.256 844.119C265.021 843.864 266.04 843.609 266.804 843.1C267.569 842.845 268.333 842.335 269.098 842.08C269.862 842.335 270.881 842.335 271.646 842.59C274.703 843.609 278.016 845.138 281.074 846.157C282.603 846.667 283.877 847.432 285.406 847.686C286.935 848.451 288.464 849.215 289.993 849.725C291.012 849.725 292.286 849.98 293.815 850.235C297.892 847.941 307.575 846.922 312.926 845.903C313.945 845.648 314.965 845.648 315.984 845.393C321.335 844.374 338.408 852.528 344.269 852.273C344.778 852.273 345.288 852.273 345.543 852.018C365.164 846.412 363.125 844.629 385.295 851.763C396.252 849.725 402.113 842.335 412.815 839.277C414.599 840.551 416.892 841.826 419.44 843.609C422.498 842.59 425.301 840.551 427.594 838.003C429.378 838.003 430.907 838.258 432.945 838.513C454.86 830.104 446.451 831.123 476.01 838.258C482.635 835.965 477.284 831.378 487.986 830.104C492.828 836.474 500.217 838.513 507.607 843.864C512.704 842.59 525.699 839.787 530.796 838.513C534.873 833.162 539.459 834.691 540.734 829.849C563.667 835.965 591.697 835.965 615.14 841.571C616.16 841.571 618.708 841.571 619.727 841.571C657.695 839.277 672.474 846.412 689.292 838.768C705.601 839.787 748.665 841.826 764.973 843.354C764.973 843.354 821.288 849.98 859.001 855.076C877.858 857.624 891.873 856.86 891.873 857.879C891.873 856.605 904.359 853.547 923.47 856.605C932.898 855.076 943.855 851.763 955.577 852.018C967.554 853.292 980.549 861.192 993.035 861.701C1005.27 862.721 1016.73 849.215 1028.2 847.177C1029.47 846.922 1030.75 846.922 1032.02 847.177C1042.22 848.196 1051.9 854.057 1060.31 854.312C1062.35 854.057 1063.88 854.057 1065.4 854.057C1078.4 852.018 1069.48 859.153 1091.9 863.995C1093.18 863.485 1095.47 863.23 1098.02 862.975C1101.84 861.447 1106.43 861.192 1108.98 860.937C1108.98 853.547 1110.51 835.2 1110.51 827.81V822.969L1104.14 529.164H10.4572Z" fill="#A5A5A5"></path><path d="M10.4506 529.164C10.4506 578.853 4.84466 761.813 4.58984 813.286C4.58984 815.579 4.58984 821.44 4.58984 823.733C4.58984 831.378 4.58984 852.783 4.58984 860.427C5.60912 861.701 6.11869 863.23 6.11869 863.74C8.15723 861.956 17.0759 863.23 19.8789 863.485C22.4271 861.192 27.5235 861.701 33.8939 862.466C37.2065 862.975 41.0288 862.466 44.8511 861.956C49.4378 862.721 54.0246 861.701 58.6113 860.427C62.9432 861.447 67.2751 860.682 71.3522 860.682C76.1937 860.427 80.5256 860.172 84.0931 861.447C85.3672 861.701 86.3864 861.956 87.4057 861.956C91.228 861.956 95.5598 862.466 99.1273 862.466C102.185 861.192 110.085 861.446 119.003 859.663C122.571 859.153 126.138 858.898 129.705 858.134C138.879 857.624 147.288 857.879 151.62 856.35C154.423 856.605 157.99 855.841 161.048 854.821C161.558 855.331 162.832 855.076 164.87 855.076C167.419 854.821 170.476 854.566 174.044 854.566C179.905 854.312 187.04 854.312 194.429 854.566C196.977 854.821 199.78 854.821 202.329 855.076C210.228 856.35 218.127 858.389 224.498 856.605C226.791 856.605 229.084 856.095 230.868 855.331C234.436 855.076 236.984 854.057 238.258 854.566C241.061 853.802 242.845 853.038 243.864 853.802C248.196 852.783 252.528 849.47 256.605 846.922C258.389 846.412 260.172 845.393 261.701 844.374C262.975 844.119 263.995 843.609 265.014 842.845C265.778 842.59 266.798 842.335 267.562 842.08C268.326 841.826 269.091 841.571 269.855 841.316C270.62 841.571 271.639 841.571 272.403 841.826C275.461 842.845 278.774 844.374 281.577 845.393C283.106 846.157 284.38 846.667 285.909 847.177C287.438 847.941 288.967 848.706 290.496 849.215C291.515 849.215 292.789 849.47 294.318 849.47C298.65 847.177 308.333 846.157 313.429 845.393C314.449 845.138 315.468 845.138 316.487 844.883C322.093 844.119 338.911 852.273 344.772 852.018C345.281 852.018 345.791 852.018 346.046 851.763C365.667 846.157 363.628 844.374 385.543 851.509C396.5 849.47 402.361 842.335 413.063 839.023C414.847 840.297 417.14 841.571 419.688 843.354C422.746 842.335 425.549 840.297 427.842 837.748C429.626 837.748 431.155 838.003 433.194 838.258C455.108 830.104 446.699 830.868 476.258 838.003C482.883 835.71 477.532 831.123 488.234 829.849C493.076 836.22 500.466 838.258 507.855 843.609C512.442 842.59 526.457 839.277 531.044 838.258C535.121 832.907 539.708 834.436 540.982 829.594C563.915 835.71 591.945 835.71 615.389 841.316C616.153 841.316 618.956 841.316 619.975 841.316C657.943 839.023 672.723 845.903 689.541 838.513C704.32 839.532 750.442 841.571 765.222 842.845C765.222 842.845 821.536 849.215 858.995 854.057C877.851 856.35 891.866 855.586 891.866 856.605C891.866 855.331 904.352 852.018 923.463 855.331C932.892 853.802 943.849 850.489 955.57 850.744C967.547 852.018 980.543 859.918 993.029 860.172C1005.26 860.937 1016.73 847.686 1027.94 845.648C1029.21 845.393 1030.49 845.393 1031.76 845.393C1041.95 846.157 1051.64 852.018 1060.05 852.273C1062.08 852.273 1063.61 852.018 1065.14 852.018C1078.65 849.725 1069.47 856.86 1091.64 861.701C1092.92 861.192 1095.21 860.937 1097.76 860.682C1101.58 858.898 1105.91 858.644 1108.72 858.644C1108.72 851.763 1110.25 832.652 1110.25 825.772V820.931C1110.25 820.931 1104.38 529.674 1104.38 529.419L10.4506 529.164Z" fill="#969696"></path><path d="M10.4566 529.164C10.4566 573.757 5.36029 764.87 5.10547 811.247C5.10547 813.286 5.10547 819.656 5.10547 821.44C5.10547 828.32 5.10547 850.999 5.10547 857.879C6.37956 859.153 6.88923 860.682 6.88923 860.937C8.67295 858.898 17.3367 860.172 20.6493 860.682C23.1975 858.898 28.2938 859.408 34.6643 859.918C37.9769 860.172 41.7992 859.918 45.6214 859.153C50.2082 860.173 54.7949 859.153 59.3817 858.134C63.7136 858.898 68.0455 858.134 72.1226 858.644C76.9641 858.644 81.2961 858.389 84.6087 859.663C85.8828 859.918 86.902 860.172 87.9213 860.172C91.4888 859.918 95.8206 860.682 99.6429 860.682C102.956 859.408 110.855 859.918 119.519 858.134C123.086 857.879 126.654 857.37 130.221 856.605C139.394 856.095 148.058 856.605 151.881 854.821C154.429 855.076 157.996 854.312 161.309 853.547C161.818 853.802 163.093 853.802 165.131 853.802C167.679 853.547 170.737 853.292 174.305 853.292C180.165 853.037 187.3 853.292 194.69 853.292C197.238 853.547 200.041 853.802 202.589 854.057C210.489 855.331 218.388 857.369 224.504 855.586C226.797 855.586 229.09 855.076 230.874 854.312C234.442 854.057 236.99 852.783 238.009 853.547C240.557 853.038 242.596 852.018 243.615 852.528C247.947 851.509 252.279 847.941 256.356 845.648C258.14 845.138 259.923 844.119 261.452 843.354C262.726 843.1 263.746 842.59 264.765 841.826C265.529 841.571 266.549 841.316 267.313 841.061C268.078 840.806 268.842 840.551 269.607 840.551C270.371 840.806 271.39 841.061 272.155 841.061C275.212 842.08 278.525 843.609 281.328 844.629C282.857 845.393 284.131 845.903 285.66 846.412C287.189 847.177 288.718 847.941 290.247 848.451C291.266 848.451 292.54 848.451 294.069 848.451C298.401 846.412 308.084 845.393 313.18 844.629C314.2 844.374 315.219 844.374 316.238 844.374C321.844 843.609 338.917 852.018 344.523 851.509C345.033 851.509 345.542 851.509 345.797 851.254C365.418 845.903 363.38 843.864 385.294 851.254C396.251 849.215 402.112 842.08 412.814 838.768C414.598 840.042 416.891 841.316 419.439 843.1C422.497 842.08 425.3 840.042 427.594 837.494C429.377 837.749 430.906 837.749 432.945 838.258C454.859 830.104 446.45 830.868 476.009 838.003C482.634 835.71 477.283 831.123 487.986 829.849C492.827 836.22 500.217 838.258 507.607 843.609C511.684 842.59 526.718 839.277 530.795 838.258C534.872 832.907 539.459 834.436 540.733 829.594C563.667 835.71 591.442 835.71 615.14 841.316C615.904 841.316 618.707 841.316 619.472 841.316C657.439 839.023 672.219 845.903 689.037 838.258C702.287 839.023 751.212 841.316 764.718 842.335C764.718 842.335 821.033 848.451 858.491 853.292C877.347 855.586 891.362 854.566 891.362 855.84C891.362 854.566 903.849 851.254 922.96 854.312C932.388 852.783 943.345 849.215 955.067 849.47C967.043 850.744 980.039 858.389 992.525 858.644C1004.5 859.408 1015.97 846.158 1027.18 843.864C1028.45 843.609 1029.73 843.609 1031 843.609C1041.2 844.119 1050.88 849.98 1059.29 850.235C1061.33 850.235 1062.85 849.98 1064.38 849.98C1078.14 847.432 1068.97 854.566 1090.89 859.153C1092.41 858.644 1094.45 858.643 1097 858.389C1100.57 856.605 1104.9 856.095 1107.7 856.095C1107.7 849.98 1108.98 829.594 1108.98 823.479V818.637L1103.63 529.673L10.4566 529.164Z" fill="#878787"></path><path d="M10.4547 529.164C10.4547 568.916 6.12292 767.928 5.61328 809.209C5.61328 810.993 5.61328 817.618 5.61328 819.402C5.61328 825.517 5.61328 849.47 5.61328 855.586C6.88737 856.86 7.65179 858.389 7.65179 858.389C9.43552 855.84 17.5896 857.369 21.4119 858.134C24.2149 856.605 29.3112 857.115 35.4269 857.624C38.7395 857.879 42.5619 857.369 46.3842 856.86C50.9709 858.134 55.5575 857.115 60.1442 856.095C64.4761 856.86 68.8081 855.841 72.6304 856.605C77.4719 856.605 81.8037 856.605 85.1164 857.879C86.3905 858.134 87.4099 858.389 88.4291 858.389C91.7418 858.134 96.0736 858.644 100.151 858.644C103.718 857.624 111.617 857.879 120.026 856.095C123.594 855.841 127.161 855.331 130.729 854.821C140.157 854.566 148.566 854.821 152.388 853.038C154.682 853.547 158.249 852.528 161.817 851.763C162.581 852.018 163.855 852.018 165.639 852.018C168.187 851.763 171.245 851.763 174.812 851.763C180.673 851.763 187.808 851.763 195.198 852.018C197.746 852.273 200.549 852.528 203.097 852.783C210.997 854.057 218.896 856.095 225.012 854.312C227.305 854.312 229.598 854.057 231.382 853.292C234.949 852.783 237.498 851.763 238.517 852.528C241.065 852.018 243.104 851.254 244.123 851.509C248.455 850.235 252.787 846.922 256.864 844.374C258.647 844.119 260.431 843.1 261.96 842.08C263.234 841.826 264.253 841.061 265.273 840.551C266.037 840.297 267.056 840.297 267.821 840.042C268.585 839.787 269.35 839.787 270.114 839.532C270.879 839.787 271.898 840.042 272.663 840.297C275.72 841.571 279.033 843.1 281.836 843.864C283.365 844.629 284.639 845.138 286.168 845.648C287.697 846.412 289.226 847.177 290.755 847.686C291.774 847.686 293.048 847.686 294.322 847.686C298.909 845.648 308.592 844.629 313.178 843.864C314.198 843.609 315.217 843.609 316.236 843.609C322.097 843.1 338.915 851.254 344.266 850.744C344.776 850.744 345.286 850.489 345.54 850.489C364.907 845.138 363.123 843.354 385.037 850.489C395.994 848.451 401.855 841.316 412.557 838.003C414.341 839.277 416.635 840.551 419.183 842.335C422.241 841.316 425.044 839.277 427.337 836.729C429.121 836.984 430.65 836.984 432.688 837.494C454.603 829.34 446.194 830.359 475.752 837.239C482.378 834.945 477.026 830.359 487.729 829.085C492.57 835.455 499.96 837.494 507.35 842.845C510.917 842.08 526.971 838.513 530.538 837.494C534.615 832.143 539.202 833.671 540.476 828.83C563.41 834.945 591.185 834.945 614.883 840.551C615.647 840.551 618.705 840.551 619.215 840.551C656.928 838.258 671.962 845.138 688.78 837.494C700.757 838.258 752.485 840.551 764.461 841.571C764.461 841.571 820.776 847.686 858.234 852.018C877.091 854.312 891.106 853.292 891.106 854.312C891.106 853.038 903.592 849.725 922.703 852.528C932.132 850.999 943.089 847.432 954.81 847.432C966.787 848.451 979.782 856.095 992.268 856.35C1004.24 857.115 1015.71 844.119 1026.67 841.316C1027.94 841.061 1029.22 841.061 1030.49 841.061C1040.68 841.571 1050.37 847.177 1058.78 847.432C1060.56 847.432 1062.34 847.177 1063.87 847.177C1078.14 844.374 1068.71 851.763 1090.37 856.095C1091.9 855.841 1093.94 855.586 1096.49 855.586C1100.06 853.547 1104.13 853.292 1107.19 853.038C1107.19 847.686 1108.47 826.027 1108.47 820.676V816.089C1108.47 816.089 1103.62 529.674 1103.62 529.419L10.4547 529.164Z" fill="#787878"></path><path d="M10.4559 529.164C10.4559 563.819 6.63372 770.986 6.37891 807.17C6.37891 808.699 6.37891 815.834 6.37891 817.363C6.37891 822.714 6.37891 847.941 6.37891 853.292C7.90781 854.312 8.67217 855.84 8.67217 855.84C10.4559 853.037 18.1005 854.566 22.4324 855.331C25.4902 854.312 30.5866 854.566 36.4474 855.076C39.76 855.331 43.5823 854.821 47.1498 854.312C51.7365 855.586 56.3231 854.821 60.9099 853.802C65.2418 854.312 69.5737 853.547 73.396 854.312C78.2375 854.566 82.5695 854.566 85.8821 855.84C87.1562 856.095 88.1754 856.35 88.9398 856.35C91.9977 855.841 96.3297 856.35 100.662 856.35C104.484 855.586 112.128 855.586 120.537 853.802C124.105 853.547 127.672 853.292 131.24 852.783C140.668 852.528 149.332 853.038 152.899 851.254C154.938 851.763 158.505 850.999 162.328 850.235C163.092 850.489 164.366 850.489 166.15 850.489C168.698 850.235 171.756 850.235 175.323 850.235C181.439 850.235 188.319 850.235 195.454 850.489C198.002 850.744 200.805 850.999 203.353 851.254C211.253 852.528 218.897 854.566 225.267 852.528C227.561 852.528 229.854 852.273 231.638 851.509C235.205 850.999 237.754 849.725 238.773 850.744C241.321 850.234 243.105 849.47 244.379 849.725C248.711 848.451 253.043 844.883 256.865 842.59C258.649 842.335 260.432 841.316 262.216 840.551C263.49 840.297 264.51 839.532 265.529 838.768C266.293 838.768 267.313 838.513 268.077 838.258C268.841 838.258 269.606 838.003 270.625 838.003C271.39 838.258 272.409 838.513 273.173 838.768C276.231 840.042 279.289 841.571 282.347 842.335C283.876 843.1 285.15 843.609 286.679 844.119C288.208 844.883 289.736 845.648 291.265 846.157C292.285 845.903 293.559 845.903 294.833 845.903C299.674 843.864 309.103 842.845 313.689 842.335C314.709 842.08 315.728 842.08 316.747 842.08C322.863 841.826 339.426 849.98 344.777 849.47C345.287 849.47 345.796 849.215 346.051 849.215C365.417 843.864 363.634 842.08 385.293 849.47C396.25 847.686 401.856 840.297 412.814 837.239C414.597 838.513 416.891 839.787 419.439 841.571C422.497 840.551 425.3 838.513 427.593 835.965C429.377 836.22 430.906 836.219 432.944 836.729C454.604 828.575 446.45 829.594 476.008 836.729C482.634 834.436 477.283 829.849 487.985 828.575C492.826 834.946 500.216 836.984 507.606 842.335C510.919 841.571 527.482 837.749 530.794 836.984C534.871 831.633 539.458 833.162 540.732 828.32C563.666 834.436 591.441 834.436 615.139 840.042C615.649 840.042 618.961 840.042 619.726 840.042C657.439 837.494 672.473 844.628 689.291 836.729C699.739 837.494 754.525 839.532 764.972 840.551C764.972 840.551 821.287 846.412 858.745 850.744C877.601 852.783 891.617 851.763 891.617 853.038C891.617 851.763 904.103 848.451 923.214 851.254C932.642 849.725 943.599 845.903 955.321 845.903C967.297 846.922 980.293 854.566 992.779 854.566C1004.76 855.076 1015.97 842.335 1027.18 839.277C1028.45 839.022 1029.73 838.768 1031 838.768C1041.19 839.023 1050.88 844.629 1059.03 845.138C1060.82 845.138 1062.6 845.138 1064.13 844.883C1078.65 841.826 1069.22 849.215 1090.37 853.547C1091.9 853.292 1093.94 853.292 1096.49 853.038C1100.06 850.999 1104.13 850.489 1106.94 850.235C1106.94 845.393 1107.96 822.969 1107.96 818.127V813.541L1103.88 529.419L10.4559 529.164Z" fill="#696969"></path><path d="M10.4541 529.164C10.4541 558.978 7.14154 774.044 6.88672 805.132C6.88672 806.406 6.88672 813.795 6.88672 815.069C6.88672 819.656 6.88672 846.157 6.88672 850.744C8.41563 851.763 9.4349 853.292 9.4349 853.037C10.9638 849.98 18.6083 851.509 23.195 852.528C26.5076 851.763 31.3492 852.273 37.4649 852.528C40.7775 852.528 44.5997 852.273 48.1671 851.509C52.7538 853.038 57.3406 852.273 61.9273 851.254C66.2592 851.509 70.5912 850.744 74.4135 851.763C79.255 852.018 83.5868 852.528 86.8995 853.547C88.1736 853.802 89.1929 854.057 89.9573 854.057C92.7603 853.292 97.0922 854.057 101.424 854.057C105.501 853.292 113.146 853.547 121.3 851.763C124.867 851.509 128.435 851.254 132.002 850.744C141.685 850.489 150.349 850.999 153.407 849.215C155.191 849.725 158.758 848.96 162.835 848.451C163.6 848.706 164.874 848.706 166.657 848.706C169.206 848.706 172.264 848.451 175.831 848.451C181.947 848.451 188.827 848.706 195.962 848.96C198.51 849.215 201.313 849.47 203.861 849.98C211.76 851.509 219.405 853.547 225.775 851.254C228.069 851.254 230.362 850.999 232.146 850.489C235.968 849.98 238.516 848.706 239.281 849.725C241.574 849.47 243.613 848.451 244.887 848.706C249.219 847.431 253.55 843.864 257.373 841.571C259.156 841.316 260.94 840.551 262.724 839.532C263.998 839.022 265.017 838.513 266.036 837.748C266.801 837.748 267.82 837.494 268.585 837.494C269.349 837.494 270.368 837.494 271.133 837.494C271.897 837.748 272.917 838.003 273.681 838.258C276.739 839.532 279.797 841.061 282.855 841.825C284.129 842.59 285.658 843.1 286.932 843.609C288.461 844.374 289.989 845.138 291.518 845.648C292.538 845.393 293.812 845.393 295.086 845.138C299.927 843.1 309.61 842.335 313.942 841.571C314.962 841.316 315.981 841.316 317 841.316C323.371 841.316 339.679 849.47 344.775 848.706C345.285 848.706 345.795 848.451 346.049 848.451C365.416 843.1 363.377 841.316 385.291 848.706C396.249 846.922 402.109 839.532 412.812 836.474C414.595 837.748 416.889 839.022 419.437 840.806C422.495 839.787 425.298 837.748 427.591 835.2C429.375 835.455 430.904 835.455 432.942 835.965C454.602 827.81 446.448 828.83 476.007 835.965C482.632 833.671 477.281 829.085 487.983 827.81C492.825 834.181 500.214 836.219 507.604 841.571C510.407 840.806 527.989 836.984 530.792 836.22C534.87 830.868 539.456 832.397 540.73 827.556C563.664 833.671 591.439 833.671 614.882 839.277C615.392 839.277 618.705 839.277 619.469 839.277C657.182 836.729 672.216 843.609 689.034 835.965C697.953 836.474 755.797 838.768 764.715 839.532C764.715 839.532 821.03 845.138 858.488 849.215C877.345 851.254 891.36 850.234 891.36 851.254C891.36 849.98 903.846 846.412 922.957 849.215C932.386 847.431 943.343 843.864 955.064 843.864C967.041 844.883 980.036 852.273 992.523 852.273C1004.24 852.783 1015.71 840.042 1026.67 836.984C1027.94 836.729 1029.22 836.474 1030.49 836.474C1040.43 836.474 1050.11 842.08 1058.52 842.59C1060.3 842.59 1062.09 842.59 1063.62 842.335C1078.65 839.022 1068.97 846.412 1089.86 850.489C1091.39 850.234 1093.43 850.234 1095.98 850.234C1099.55 847.941 1103.37 847.431 1106.43 847.177C1106.43 843.1 1107.45 819.401 1107.45 815.324V810.738L1103.88 528.909L10.4541 529.164Z" fill="#5A5A5A"></path><path d="M10.4563 529.164C10.4563 553.881 7.65326 777.102 7.39844 803.093C7.39844 804.113 7.39844 812.012 7.39844 813.031C7.39844 816.853 7.39844 844.629 7.39844 848.451C9.18216 849.47 10.2015 850.999 10.2015 850.489C11.7304 847.177 18.8652 848.451 23.9616 849.98C27.2742 849.725 32.3707 849.98 38.2315 850.235C41.5441 850.235 45.3664 849.725 48.9339 849.215C53.5206 850.999 58.1073 850.234 62.694 849.47C67.0259 849.725 71.3579 848.706 75.1801 849.98C80.0217 850.489 84.3535 850.999 87.6661 852.018C88.9402 852.273 89.9595 852.528 90.724 852.528C93.0173 851.763 97.604 852.273 102.191 852.273C106.523 851.763 114.167 851.763 122.067 849.98C125.634 849.725 129.201 849.47 132.769 849.215C142.452 849.215 151.116 849.725 154.174 847.686C155.703 848.451 159.27 847.686 163.602 847.177C164.366 847.432 165.641 847.432 167.424 847.432C169.972 847.432 173.03 847.177 176.598 847.432C182.713 847.432 189.593 847.686 196.728 847.941C199.277 848.196 201.825 848.706 204.628 848.961C212.527 850.489 220.172 852.528 226.287 850.235C228.581 850.489 230.874 849.98 232.658 849.47C236.48 848.96 239.028 847.686 239.538 848.961C241.831 848.706 243.87 847.941 245.144 847.941C249.476 846.412 253.807 843.1 257.63 840.806C259.668 840.806 261.452 839.787 262.981 838.768C264.255 838.258 265.274 837.494 266.039 836.984C266.803 836.984 267.822 836.729 268.587 836.729C269.351 836.729 270.371 836.729 271.135 836.984C271.9 837.239 272.919 837.494 273.683 837.748C276.741 839.023 279.799 840.551 282.857 841.571C284.131 842.335 285.66 842.845 286.934 843.354C288.463 844.119 289.992 844.883 291.521 845.393C292.54 845.138 293.814 844.883 295.088 844.629C300.184 842.59 309.613 841.826 313.945 841.316C314.709 841.061 315.983 841.061 317.002 841.061C323.373 841.061 339.681 849.47 344.778 848.706C345.287 848.706 345.797 848.451 346.052 848.451C365.163 843.354 363.379 841.571 385.294 848.961C396.251 847.177 401.857 839.787 412.814 836.729C414.598 838.003 416.891 839.277 419.439 841.061C422.497 840.042 425.3 838.003 427.593 835.455C429.377 835.71 430.906 835.71 432.945 836.22C454.604 828.065 446.45 829.085 476.009 836.22C482.634 833.926 477.283 829.34 487.985 828.065C492.827 834.436 500.217 836.474 507.606 841.826C509.9 841.316 528.501 837.239 530.795 836.729C534.872 831.378 539.459 832.907 540.733 828.065C563.666 834.181 591.441 834.181 614.885 839.787C615.394 839.787 618.962 839.787 619.217 839.787C656.93 837.239 671.964 844.119 688.782 836.474C696.172 836.984 757.073 839.277 764.463 839.787C764.463 839.787 820.778 845.393 858.236 849.215C877.092 851.254 891.107 849.98 891.107 850.999C891.107 849.725 903.594 846.157 922.705 848.706C932.133 846.922 943.09 843.1 954.812 843.1C966.788 844.119 979.784 851.509 992.27 851.254C1003.99 851.763 1015.2 839.023 1026.16 835.71C1027.44 835.455 1028.71 835.2 1029.98 834.946C1039.92 834.946 1049.6 840.297 1058.01 840.806C1059.8 840.806 1061.58 840.806 1063.11 840.551C1078.4 836.984 1068.72 844.374 1089.36 848.451C1090.88 848.451 1092.92 848.451 1095.47 848.451C1098.78 846.157 1102.61 845.648 1105.92 845.393C1105.92 842.08 1106.68 817.108 1106.68 813.796V809.209L1103.63 529.928L10.4563 529.164Z" fill="#4B4B4B"></path><path d="M10.4534 529.164C10.4534 549.04 8.16016 780.414 8.16016 801.055C8.16016 801.819 8.16016 810.228 8.16016 810.993C8.16016 814.05 8.16016 843.1 8.16016 846.157C9.94388 847.177 11.2178 848.706 11.2178 847.941C12.7468 844.374 19.3721 845.648 24.7233 847.177C28.2908 847.432 33.3871 847.686 38.9931 847.686C42.3057 847.686 46.128 847.177 49.6955 846.412C54.2822 848.451 58.8688 847.686 63.4555 846.922C67.7874 846.922 72.1194 846.157 75.9417 847.432C81.038 848.196 85.1152 848.706 88.4278 849.725C89.7019 849.98 90.7211 850.235 91.4855 850.235C93.5241 849.215 97.856 849.725 102.952 849.98C107.539 849.47 114.929 849.725 122.828 847.941C126.396 847.686 129.963 847.686 133.53 847.432C143.468 847.432 152.132 847.941 154.935 845.903C156.209 846.667 159.777 845.903 164.364 845.393C165.383 845.648 166.657 845.648 168.186 845.648C170.734 845.648 173.792 845.648 177.359 845.648C183.475 845.648 190.355 846.158 197.49 846.412C200.038 846.667 202.586 847.177 205.134 847.686C213.034 849.215 220.678 851.254 226.794 848.961C229.087 849.215 231.381 848.706 233.164 848.196C236.987 847.686 239.535 846.158 240.045 847.686C242.338 847.432 244.121 846.667 245.65 846.412C249.982 844.883 254.314 841.316 258.137 839.277C260.175 839.277 261.959 838.513 263.488 837.494C264.507 836.984 265.781 836.22 266.546 835.455C267.31 835.455 268.329 835.455 269.094 835.455C269.858 835.455 270.877 835.71 271.642 835.71C272.406 835.965 273.426 836.22 274.19 836.474C277.248 837.748 280.306 839.277 283.364 840.297C284.638 841.061 286.167 841.571 287.441 842.335C288.97 843.1 290.498 843.864 292.027 844.374C293.047 844.119 294.321 843.864 295.595 843.609C300.691 841.826 310.374 841.061 314.451 840.297C315.216 840.042 316.235 840.042 317.509 840.042C324.134 840.297 340.443 848.451 345.284 847.686C345.794 847.686 346.304 847.432 346.558 847.432C365.67 842.335 363.886 840.551 385.546 847.941C396.503 846.157 402.109 839.023 413.066 835.965C414.85 837.239 417.143 838.513 419.691 840.297C422.749 839.277 425.552 837.239 427.845 834.691C429.629 834.945 431.158 834.945 433.197 835.455C454.856 827.556 446.702 828.32 476.261 835.455C482.886 833.162 477.535 828.575 488.237 827.301C493.079 833.671 500.468 835.71 507.858 841.061C509.642 840.551 529.263 836.22 531.047 835.965C535.124 830.614 539.71 832.143 540.984 827.301C563.918 833.417 591.693 833.417 615.136 838.768C615.391 838.768 619.214 838.768 619.468 838.768C657.181 836.22 672.216 843.1 689.034 835.2C694.895 835.71 758.599 837.749 764.715 838.258C764.715 838.258 821.029 843.609 858.488 847.432C877.344 849.215 891.359 847.941 891.359 849.215C891.359 847.941 903.845 844.374 922.957 846.922C932.385 845.138 943.342 841.316 955.064 841.061C967.04 841.826 980.036 849.215 992.522 848.961C1004.24 849.215 1015.2 836.729 1026.16 833.162C1027.43 832.907 1028.71 832.652 1029.98 832.397C1039.92 832.143 1049.6 837.494 1058.01 838.003C1059.79 838.003 1061.58 838.003 1063.11 837.748C1078.91 833.926 1068.97 841.571 1089.35 845.393C1090.88 845.393 1092.92 845.393 1095.47 845.393C1098.78 842.845 1102.6 842.335 1105.66 842.08C1105.66 839.277 1106.17 813.541 1106.17 810.738V806.151L1103.88 529.164H10.4534Z" fill="#3C3C3C"></path><path d="M10.4556 529.163C10.4556 543.943 8.67188 783.472 8.67188 798.761C8.67188 799.525 8.67188 807.934 8.67188 808.699C8.67188 810.992 8.67188 841.315 8.67188 843.609C10.7104 844.373 11.9845 845.902 11.7297 845.393C13.0038 841.315 19.3742 842.844 25.235 844.628C29.0573 845.138 34.1537 845.393 39.7597 845.393C43.0723 845.393 46.8946 844.628 50.4621 844.118C55.0488 846.412 59.6355 845.647 63.9674 844.883C68.2993 844.628 72.6313 843.864 76.4536 845.393C81.5499 846.157 85.8817 846.921 88.9395 847.941C90.2136 848.196 91.2329 848.45 91.9974 848.45C93.7811 847.431 98.113 847.941 103.464 847.941C108.306 847.686 115.695 847.686 123.34 845.902C126.907 845.647 130.475 845.647 134.042 845.393C144.235 845.393 152.899 846.157 155.192 843.864C156.211 844.628 159.524 843.864 164.621 843.609C165.64 843.609 166.914 843.609 168.443 843.864C170.991 843.864 174.304 843.864 177.616 843.864C183.732 844.118 190.612 844.373 197.747 844.628C200.295 844.883 202.843 845.393 205.391 845.902C213.291 847.686 220.935 849.47 227.051 846.921C229.344 847.176 231.638 846.922 233.421 846.412C237.244 845.647 239.792 844.373 240.301 845.902C242.34 845.647 244.379 845.138 245.908 844.628C250.239 843.099 254.316 839.532 258.394 837.493C260.432 837.748 262.216 836.729 263.745 835.709C264.764 835.2 265.783 834.435 266.803 833.671C267.822 833.671 268.586 833.671 269.351 833.671C270.115 833.926 271.135 833.926 271.899 834.18C272.663 834.435 273.683 834.69 274.447 835.2C277.505 836.474 280.563 838.003 283.366 839.022C284.64 839.787 286.169 840.296 287.443 841.061C288.972 841.825 290.501 842.589 292.03 843.099C293.049 842.589 294.068 842.335 295.597 842.08C300.948 840.296 310.376 839.532 314.453 839.022C315.218 838.767 316.237 838.767 317.511 838.767C324.391 839.277 340.445 847.431 345.032 846.412C345.541 846.412 345.796 846.157 346.306 846.157C365.417 841.061 363.633 839.277 385.293 846.921C396.25 845.138 401.856 838.003 412.813 834.945C414.597 836.219 416.89 837.493 419.439 839.277C422.496 838.258 425.299 836.219 427.593 833.671C429.376 833.926 430.905 833.926 432.944 834.435C454.603 826.536 446.449 827.3 476.008 834.69C482.633 832.397 477.282 827.81 487.985 826.536C492.826 832.906 500.216 834.945 507.606 840.296C508.88 840.041 529.52 835.455 530.794 835.2C534.871 829.849 539.458 831.377 540.732 826.536C563.666 832.652 591.441 832.652 614.884 838.003C615.139 838.003 618.961 838.003 619.216 838.003C656.929 835.455 671.963 842.08 688.781 834.435C693.113 834.69 759.875 836.984 764.462 837.493C764.462 837.493 820.777 842.59 858.235 846.157C877.092 847.941 891.107 846.667 891.107 847.686C891.107 846.412 903.593 842.844 922.704 845.138C932.132 843.354 943.09 839.532 954.811 839.022C966.788 839.787 979.783 846.921 992.269 846.667C1003.99 846.921 1014.95 834.435 1025.65 830.613C1026.92 830.103 1028.2 829.849 1029.47 829.849C1039.41 829.594 1049.09 834.69 1057.5 835.2C1059.29 835.2 1060.82 835.2 1062.34 834.945C1078.4 830.868 1068.46 838.512 1088.59 842.335C1090.12 842.335 1092.16 842.59 1094.71 842.59C1098.02 840.041 1101.59 839.277 1104.9 839.022C1104.9 836.984 1105.41 809.973 1105.41 807.934V803.348C1105.41 803.348 1103.62 528.909 1103.62 528.654L10.4556 529.163Z" fill="#2D2D2D"></path><path d="M10.4538 529.163C10.4538 539.101 9.43451 786.53 9.17969 796.722C9.17969 797.232 9.17969 806.151 9.17969 806.405C9.17969 807.934 9.17969 839.532 9.17969 841.061C11.473 841.825 12.4923 843.354 12.4923 842.59C13.7664 838.258 19.6273 839.786 25.9978 841.825C30.0749 842.844 34.9163 843.099 40.5223 842.844C44.0897 842.59 47.6572 842.08 51.2247 841.57C55.8114 844.118 60.3981 843.354 64.73 842.59C69.0619 842.335 73.3939 841.315 77.2161 843.099C82.3125 844.118 86.6444 845.138 89.4473 845.902C90.7214 846.157 91.7407 846.412 92.5052 846.412C94.0341 845.138 98.366 845.647 103.972 845.647C109.068 845.392 116.458 845.647 123.848 843.609C127.415 843.354 130.983 843.354 134.55 843.354C144.743 843.609 153.661 844.373 155.7 841.825C156.21 842.844 159.777 842.08 165.128 841.825C166.148 841.825 167.422 841.825 168.951 841.825C171.754 841.825 174.811 841.825 178.124 842.08C184.24 842.335 191.12 842.589 198 843.099C200.548 843.354 203.096 844.118 205.644 844.628C213.544 846.412 221.188 848.45 227.049 845.647C229.342 845.902 231.636 845.647 233.42 845.138C237.497 844.373 239.79 842.844 240.3 844.628C242.338 844.628 244.377 843.864 245.906 843.354C250.238 841.57 254.315 838.258 258.392 836.219C260.43 836.474 262.214 835.709 263.743 834.69C264.762 834.181 265.781 833.161 266.801 832.652C267.82 832.652 268.585 832.652 269.349 832.652C270.113 832.906 271.133 833.161 271.897 833.416C272.662 833.671 273.681 834.181 274.445 834.435C277.503 835.709 280.561 837.238 283.364 838.258C284.638 839.022 286.167 839.532 287.441 840.296C288.97 841.061 290.499 841.825 292.028 842.335C292.792 841.825 294.066 841.57 295.595 841.061C300.946 839.277 310.375 838.767 314.452 838.003C315.216 837.748 316.235 837.748 317.509 837.748C324.644 838.512 340.443 846.667 345.03 845.647C345.539 845.647 345.794 845.393 346.304 845.393C365.16 840.296 363.632 838.767 385.291 846.412C396.248 844.628 401.854 837.493 412.811 834.435C414.595 835.709 416.888 836.984 419.437 839.022C422.494 838.003 425.297 835.964 427.591 833.416C429.375 833.671 430.903 833.671 432.942 834.18C454.602 826.281 446.447 827.046 476.006 834.435C482.632 832.142 477.28 827.555 487.983 826.281C492.824 832.652 500.214 834.69 507.604 840.041C508.623 839.787 529.773 834.945 530.792 834.945C534.869 829.594 539.456 831.123 540.73 826.281C563.664 832.397 591.439 832.397 614.882 837.748C615.137 837.748 619.214 837.748 619.214 837.748C656.927 835.2 671.961 841.825 688.779 833.926C691.837 834.181 761.402 836.474 764.46 836.729C764.46 836.729 820.775 841.57 858.233 845.138C877.09 846.922 891.105 845.393 891.105 846.412C891.105 845.138 903.591 841.315 922.702 843.609C932.131 841.825 943.088 837.748 954.809 837.493C966.786 838.258 979.781 845.393 992.267 844.883C1003.73 845.138 1014.69 832.652 1025.65 828.829C1026.92 828.32 1028.2 828.065 1029.47 827.81C1039.41 827.3 1049.09 832.397 1057.25 832.906C1059.03 832.906 1060.56 832.906 1062.09 832.652C1078.65 828.32 1068.46 835.964 1088.33 839.532C1090.12 839.787 1092.16 839.787 1094.45 840.041C1097.76 837.238 1101.07 836.729 1104.64 836.219C1104.64 834.945 1104.9 806.915 1104.9 805.386V800.799L1103.62 528.654L10.4538 529.163Z" fill="#1E1E1E"></path><path d="M10.455 529.164C10.455 534.006 9.94531 789.588 9.94531 794.684C9.94531 794.939 9.94531 804.113 9.94531 804.367C9.94531 805.132 9.94531 837.748 9.94531 838.513C12.2387 839.277 13.5128 840.806 13.5128 839.787C14.7869 835.2 20.3929 836.729 27.0181 839.023C31.0952 840.297 36.1916 840.552 41.5428 840.042C45.1103 839.787 48.6777 839.277 52.2452 838.513C56.8319 841.061 61.4186 840.552 65.7505 840.042C70.0824 839.532 74.1596 838.768 78.2367 840.806C83.333 841.826 87.6649 843.1 90.4679 843.864C91.742 844.119 92.7613 844.374 93.5257 844.374C94.7998 843.1 99.1317 843.354 104.993 843.609C110.344 843.609 117.479 843.609 124.868 841.826C128.436 841.571 132.258 841.826 135.571 841.826C146.018 842.08 154.682 842.845 156.721 840.297C156.975 841.316 160.543 840.552 166.149 840.297C167.168 840.297 168.442 840.297 169.971 840.297C172.774 840.297 175.832 840.297 179.145 840.551C185.26 840.806 192.14 841.316 199.02 841.571C201.568 842.08 204.117 842.59 206.665 843.1C214.564 844.883 222.209 846.922 228.07 844.119C230.618 844.374 232.656 844.119 234.44 843.609C238.517 842.845 241.065 841.316 241.065 843.1C243.104 843.1 244.888 842.59 246.671 841.826C251.003 840.042 255.08 836.474 258.903 834.691C260.941 834.945 262.725 834.181 264.254 833.162C265.273 832.397 266.292 831.633 267.311 830.868C268.331 830.868 269.095 831.123 270.115 831.123C270.879 831.378 271.898 831.633 272.663 831.888C273.427 832.143 274.192 832.652 275.211 832.907C278.269 834.436 281.327 835.965 284.13 836.729C285.404 837.494 286.932 838.258 288.207 838.768C289.736 839.532 291.264 840.297 292.793 840.806C293.558 840.297 294.832 839.787 296.361 839.532C301.967 837.749 311.395 837.239 315.217 836.729C315.982 836.474 317.001 836.474 318.275 836.474C325.41 837.494 341.209 845.393 345.796 844.374C346.305 844.374 346.56 844.119 347.07 844.119C365.926 839.277 364.397 837.494 386.057 845.138C397.014 843.355 402.62 836.22 413.577 833.162C415.361 834.436 417.654 835.71 420.202 837.749C423.26 836.729 426.063 834.691 428.356 832.142C430.14 832.397 431.669 832.397 433.708 832.907C455.367 825.008 447.213 825.772 476.772 833.162C483.397 830.868 478.046 826.282 488.748 825.008C493.59 831.378 500.98 833.417 508.369 838.768C508.879 838.768 531.048 833.671 531.558 833.671C535.635 828.32 540.222 829.849 541.496 825.008C564.429 831.123 592.204 830.868 615.648 836.474H619.98C657.693 833.671 672.727 840.552 689.545 832.652C691.074 832.652 763.697 835.2 765.226 835.2C765.226 835.2 821.541 840.042 858.999 843.1C877.856 844.629 891.87 843.1 891.87 844.374C891.87 843.1 904.356 839.277 923.468 841.571C932.896 839.532 943.853 835.71 955.575 835.2C967.551 835.71 980.547 842.845 993.033 842.335C1004.5 842.335 1015.46 830.104 1026.16 826.027C1027.43 825.517 1028.71 825.262 1029.73 825.008C1039.67 824.243 1049.09 829.34 1057.5 830.104C1059.29 830.359 1060.81 830.104 1062.34 829.849C1079.16 825.262 1068.97 832.907 1088.59 836.474C1090.37 836.729 1092.41 836.984 1094.71 836.984C1097.76 833.926 1101.33 833.417 1104.64 832.907C1104.64 832.142 1104.9 803.093 1104.9 802.329V797.742C1104.9 797.742 1104.39 528.145 1104.39 527.89L10.455 529.164Z" fill="#0F0F0F"></path><path d="M1103.62 529.164H10.4531V792.646V836.22C13.0013 836.984 14.2754 838.258 14.2754 837.239C15.2947 832.397 20.6458 833.926 27.7807 836.22C34.9156 839.277 43.8343 837.494 53.0078 835.965C62.436 841.826 71.3547 833.926 78.9992 838.513C86.6438 840.297 92.2498 842.335 94.2883 842.59C96.072 839.787 110.852 843.609 125.376 839.787C140.156 839.277 154.935 842.08 157.228 838.513C157.228 840.042 162.579 838.258 170.479 839.023C178.378 839.023 188.826 839.787 199.528 840.551C209.976 842.335 220.678 846.922 228.577 843.1C236.477 844.119 241.573 839.532 241.573 842.59C247.434 842.845 254.059 836.474 259.665 833.926C262.978 834.691 265.781 832.142 268.074 830.104C269.093 830.104 269.858 830.359 270.877 830.359C275.719 831.888 280.56 834.946 284.892 836.22C287.695 837.749 290.498 839.023 293.301 840.297C297.378 837.494 311.138 836.729 315.725 836.22C320.312 834.181 340.952 845.393 346.048 844.119C366.179 839.023 363.886 836.984 386.055 844.883C397.012 843.1 402.618 835.965 413.575 833.162C415.359 834.436 417.652 835.71 420.2 837.748C423.258 836.729 426.061 834.691 428.355 832.142C430.138 832.397 431.667 832.652 433.706 832.907C455.365 825.008 447.211 825.772 476.77 833.162C483.395 830.868 478.044 826.282 488.747 825.262C493.588 831.888 500.978 833.671 508.368 839.023L531.556 833.926C535.633 828.575 540.22 830.104 541.494 825.262C564.427 831.378 592.203 831.123 615.646 836.729H619.978C657.691 833.926 672.725 840.806 689.543 832.907L765.224 835.2C765.224 835.2 821.539 839.787 858.997 842.845C877.854 844.374 891.868 842.845 891.868 843.864C891.868 842.59 904.355 838.768 923.466 840.806C932.894 838.768 943.851 834.691 955.573 834.181C967.549 834.691 980.545 841.826 993.031 841.061C1005.77 841.061 1017.75 825.772 1029.47 823.479C1041.45 822.459 1052.66 829.594 1062.09 828.065C1080.94 822.969 1066.93 832.397 1094.19 835.2C1097.25 832.142 1100.56 831.378 1104.13 831.123V796.468L1103.62 529.164Z" fill="black"></path></g><path d="M10.457 105.5L10.457 835.848C13.0052 836.644 14.2793 837.971 14.2793 836.909C15.2986 831.866 20.6497 833.459 27.7846 835.848C34.9195 839.033 43.8382 837.175 53.0117 835.582C62.4399 841.687 71.3586 833.458 79.0031 838.236C86.6477 840.094 92.2537 842.218 94.2922 842.483C96.0759 839.564 110.855 843.545 125.38 839.564C140.159 839.033 154.939 841.952 157.232 838.236C157.232 839.829 162.583 837.971 170.483 838.767C178.382 838.767 188.83 839.563 199.532 840.36C209.98 842.218 220.682 846.996 228.581 843.014C236.481 844.076 241.577 839.298 241.577 842.483C247.438 842.749 254.063 836.113 259.669 833.459C265.275 834.786 269.607 826.292 271.136 827.885C278.526 832.397 285.406 837.175 293.305 840.36C297.382 837.44 311.142 836.644 315.729 836.113C320.316 833.989 340.956 845.668 346.052 844.341C366.183 839.033 363.89 836.909 386.059 845.138C402.367 842.483 406.954 827.354 433.71 832.397C455.369 824.168 447.215 824.965 476.774 832.662C483.399 830.273 478.048 825.495 488.75 824.434C493.592 831.335 500.982 833.193 508.371 838.767L531.56 833.459C535.637 827.885 540.224 829.477 541.498 824.434C564.431 830.804 592.206 830.539 615.65 836.378H619.982C657.695 833.458 672.729 840.625 689.547 832.397L765.228 834.786C765.228 834.786 821.543 839.564 859.001 842.749C877.858 844.341 891.872 842.749 891.872 843.811C891.872 842.483 904.359 838.502 923.47 840.625C932.898 838.502 943.855 834.255 955.577 833.724C967.553 834.255 980.549 841.687 993.035 840.891C1005.78 840.891 1017.75 824.965 1029.47 822.576C1041.45 821.514 1052.66 828.946 1062.09 827.354C1080.95 822.045 1066.93 831.866 1094.2 834.786C1097.26 831.601 1100.57 830.804 1104.14 830.539V105.5H10.457Z" fill="#F5F5F5"></path><path d="M1103.63 0H10.457V790.458C17.3371 790.193 27.7847 816.471 29.5684 816.205C38.9966 818.063 49.1893 811.693 59.6369 811.693C70.0844 809.039 80.5321 828.681 89.7055 827.619C98.879 825.761 107.033 828.681 112.894 825.23C118.5 817.267 122.322 827.884 122.067 824.434C123.087 816.205 127.164 818.86 132.77 822.841C138.63 827.619 145.765 825.23 152.9 822.576C160.29 832.131 167.425 819.391 173.541 826.557C179.656 829.743 184.243 832.928 185.772 833.193C187.301 828.415 199.022 834.786 210.744 828.681C222.466 827.884 234.442 832.397 236.226 826.557C236.226 828.946 240.303 826.292 246.673 827.354C253.044 827.619 261.453 828.681 269.862 830.008C278.271 832.928 286.935 840.625 293.05 834.255C299.421 835.847 303.498 828.15 303.498 833.193C308.339 833.459 313.436 823.107 318.022 818.86C322.609 820.983 325.922 807.446 327.196 809.835C333.057 817.002 338.663 824.699 344.778 829.742C348.091 824.965 359.048 823.903 362.616 822.841C366.183 819.391 383.001 837.971 386.823 835.848C402.877 827.354 401.093 824.169 418.93 837.175C431.926 832.928 435.493 809.039 457.153 817.002C474.481 803.995 467.855 805.323 491.808 817.533C497.159 813.817 492.828 806.384 501.491 804.261C505.314 815.144 511.174 818.329 517.035 827.088L535.637 818.594C538.95 809.835 542.517 812.224 543.536 804.526C561.883 814.878 584.307 814.347 602.909 823.638H606.476C636.8 819.125 648.776 830.273 662.281 817.267L722.928 821.249C722.928 821.249 768.031 828.946 798.1 833.99C813.134 836.644 824.346 833.99 824.346 835.848C824.346 833.724 834.284 827.354 849.573 830.804C857.217 827.619 865.881 820.718 875.309 819.922C884.737 820.718 895.185 832.397 905.378 831.335C915.571 831.335 925.254 806.119 934.682 802.137C944.11 800.545 953.284 812.489 960.928 809.835C975.963 801.341 964.75 817.002 986.665 821.514C990.232 813.816 994.564 815.144 998.896 813.551C1003.23 810.897 1008.07 812.489 1012.66 805.853C1017.5 805.057 1022.59 805.854 1027.69 806.915C1032.79 808.508 1038.14 813.286 1043.23 811.958C1049.1 808.242 1052.66 805.588 1057.25 803.995C1062.09 802.668 1067.95 802.403 1077.89 803.995C1090.89 788.6 1087.57 789.131 1102.86 794.174L1103.63 0Z" fill="url(#paint0_linear_1206_4886)"></path><defs><linearGradient id="paint0_linear_1206_4886" x1="373.181" y1="307.963" x2="786.453" y2="1023.71" gradientUnits="userSpaceOnUse"><stop stop-color="white"></stop><stop offset="0.1933" stop-color="#F6F6F6"></stop><stop offset="0.6367" stop-color="#E7E7E7"></stop><stop offset="1" stop-color="#E2E2E2"></stop></linearGradient></defs></svg>