<svg xmlns="http://www.w3.org/2000/svg" width="1114" height="597" viewBox="0 0 1114 597" fill="none"><g opacity="0.2"><path d="M1103.36 242.419H10.1927C10.1927 330.331 0 464.111 0 552.023C0 566.547 0 581.072 0 595.597C2.54818 595.851 14.015 597.126 14.015 596.106C15.0343 591.01 20.3854 591.774 27.5203 593.303C34.6552 595.342 43.5739 592.539 52.7474 589.736C62.1756 594.323 70.8394 585.404 78.4839 588.971C85.8736 589.991 91.7345 591.265 93.773 591.01C95.5567 587.952 110.336 589.991 124.861 584.639C139.385 582.601 154.42 583.62 156.458 579.798C156.458 581.327 161.809 579.034 169.454 578.779C177.353 578.014 187.801 577.759 198.248 577.505C208.696 578.269 219.398 582.091 227.298 577.505C235.197 577.759 240.293 572.663 240.293 575.721C246.154 575.466 252.78 568.586 258.386 565.783C261.698 566.293 264.501 563.49 266.794 561.451C267.814 561.451 268.578 561.451 269.597 561.706C274.439 562.98 279.281 565.783 283.612 566.547C286.415 567.822 289.219 569.096 292.022 570.115C296.099 567.057 309.859 565.528 314.445 564.509C319.032 561.961 339.672 572.153 344.769 570.624C364.899 564.509 362.861 562.725 384.775 569.605C395.732 567.312 401.593 559.922 412.296 556.609C414.079 557.629 416.373 559.158 418.921 560.941C421.979 559.922 424.782 557.629 427.075 555.081C428.859 555.081 430.388 555.335 432.426 555.59C454.341 547.181 445.932 548.2 475.491 554.826C482.116 552.532 476.764 547.946 487.467 546.672C492.308 553.042 499.698 555.081 507.088 560.177C514.732 558.393 522.632 556.609 530.276 554.826C534.353 549.475 538.94 551.004 540.214 546.162C563.403 552.278 591.178 552.278 614.621 558.138C616.15 558.138 617.679 558.138 619.208 558.138C657.176 556.1 672.21 563.235 688.773 555.845C714 557.629 739.227 559.413 764.454 561.451C764.454 561.451 820.769 569.096 858.482 575.211C877.338 578.269 891.353 577.759 891.353 579.033C891.353 577.759 903.84 574.956 922.951 578.779C932.379 577.759 943.336 574.702 955.058 575.466C967.034 577.25 980.03 585.659 992.516 586.423C1005.26 587.952 1017.23 573.937 1028.96 573.173C1040.68 573.682 1052.14 582.346 1061.57 582.091C1080.43 579.543 1066.41 587.188 1093.42 593.558C1096.48 591.01 1107.44 590.755 1111.01 590.755C1111.01 579.288 1113.55 567.567 1113.55 556.1L1103.36 242.419Z" fill="white"></path><path d="M10.1947 242.164C10.1947 321.412 1.27608 456.211 0.766449 538.772C0.766449 542.34 0.766449 546.162 0.766449 549.474C0.766449 561.451 0.766449 575.721 0.766449 587.697C1.02127 589.226 1.02136 591.01 1.02136 592.539C3.31472 592.539 14.5267 593.813 15.0363 592.794C16.3104 588.207 21.4068 588.971 28.5417 590.245C31.8543 591.01 35.6765 591.01 39.4988 590.245C44.0855 589.736 48.6723 588.207 53.5138 586.933C57.8457 588.971 62.1776 587.952 66.2547 587.188C70.8414 586.168 75.1733 584.639 78.9956 586.423C80.2697 586.678 81.2889 586.678 82.3082 586.933C87.9142 587.697 92.2461 588.462 94.2847 588.462C95.8136 586.423 104.477 586.933 114.415 585.149C117.983 584.639 121.55 583.875 125.118 582.601C133.272 581.582 141.681 581.327 147.287 580.817C151.874 580.562 155.441 579.798 156.715 578.269C156.715 579.033 158.244 578.779 160.283 578.524C162.576 578.269 165.889 577.759 169.711 577.504C175.572 576.995 182.707 576.74 190.351 576.485C193.154 576.485 195.702 576.485 198.505 576.485C206.405 577.25 214.304 579.288 221.184 578.524C223.477 578.269 225.516 577.759 227.554 576.485C230.612 576.485 233.16 575.721 235.199 575.211C238.512 574.192 240.295 572.918 240.55 574.702C244.882 574.447 249.214 570.879 253.546 567.821C255.33 566.802 256.859 565.528 258.388 564.764C259.662 565.018 260.936 564.509 262.21 563.999C262.974 563.49 263.994 562.98 264.758 562.47C265.522 561.961 266.287 561.196 267.051 560.687C268.071 560.687 268.835 560.941 269.854 560.941C273.167 561.961 276.225 563.235 279.283 564.509C280.812 565.018 282.34 565.528 283.869 566.038C285.398 566.802 286.927 567.567 288.456 568.076C289.73 568.586 291.004 568.841 292.278 569.35C295.591 566.802 305.529 565.273 311.39 564.509C312.664 564.254 313.683 563.999 314.702 563.999C319.034 561.961 336.871 570.37 343.497 570.37C344.006 570.37 344.516 570.37 345.026 570.115C365.156 563.999 362.863 562.215 385.032 569.096C395.989 567.057 401.85 559.667 412.552 556.1C414.336 557.119 416.629 558.648 419.178 560.432C422.235 559.412 425.038 557.119 427.332 554.571C429.116 554.571 430.644 554.826 432.683 555.081C454.597 546.672 446.188 547.691 475.747 554.316C482.373 552.023 477.021 547.436 487.724 546.162C492.565 552.532 499.955 554.571 507.345 559.667C514.734 557.883 523.143 555.845 530.533 554.316C534.61 548.965 539.197 550.494 540.471 545.652C563.66 551.768 591.435 551.768 614.878 557.629C616.152 557.629 617.936 557.629 619.465 557.629C657.433 555.59 672.467 562.725 689.03 555.335C712.728 556.864 741.013 558.903 764.711 560.941C764.711 560.941 821.026 568.331 858.739 574.447C877.595 577.25 891.61 576.995 891.61 578.014C891.61 576.74 904.096 573.937 923.208 577.759C932.636 576.485 943.593 573.427 955.315 574.192C967.291 575.976 980.287 584.13 992.773 584.894C1005.26 586.168 1017.24 572.408 1028.96 571.389C1030.23 571.389 1031.51 571.644 1033.03 571.644C1043.48 573.427 1053.16 580.053 1061.57 579.798C1063.61 579.543 1065.4 579.288 1066.67 579.288C1077.88 578.524 1069.47 585.404 1093.43 590.755C1094.7 589.736 1096.99 589.226 1099.54 588.717C1103.62 587.952 1108.72 587.697 1111.01 587.697C1111.01 576.74 1113.3 564.254 1113.3 553.297L1113.05 548.455L1103.62 242.674L10.1947 242.164Z" fill="#F0F0F0"></path><path d="M10.1927 242.164C10.1927 316.571 1.78371 459.269 1.27408 536.733C1.27408 540.046 1.27408 544.378 1.27408 547.436C1.27408 558.648 1.27408 574.192 1.27408 585.404C1.5289 586.932 1.78375 588.716 1.78375 589.99C4.07711 589.736 15.0343 591.01 15.7987 590.245C17.3276 585.913 22.424 586.678 29.3041 587.952C32.6167 588.716 36.4389 588.461 40.2612 587.952C44.8479 587.697 49.4346 586.168 54.2762 584.894C58.6081 586.678 62.94 585.913 67.0171 585.149C71.6038 584.13 75.9357 582.855 79.758 584.639C81.0321 584.894 82.0515 584.894 83.0707 585.149C88.4219 585.658 92.7537 586.678 95.0471 586.423C96.8308 584.384 105.24 584.894 115.178 583.11C118.745 582.601 122.313 581.836 125.88 580.562C134.289 579.543 142.443 579.543 148.049 578.778C152.381 578.524 155.949 577.759 157.477 576.23C157.732 576.74 159.006 576.74 161.045 576.485C163.338 576.23 166.651 575.721 170.473 575.466C176.334 574.956 183.469 574.956 191.113 574.701C193.662 574.701 196.465 574.701 199.268 574.701C207.167 575.466 215.066 577.759 221.692 576.485C223.985 576.23 226.024 575.721 228.062 574.701C231.12 574.701 233.923 573.937 235.707 573.682C238.764 572.663 240.803 571.643 241.058 573.172C245.39 572.663 249.722 569.35 254.054 566.292C255.837 565.273 257.366 564.254 259.15 563.235C260.424 563.235 261.698 562.98 262.717 562.215C263.482 561.96 264.501 561.451 265.266 560.941C266.03 560.431 266.794 559.922 267.559 559.412C268.578 559.412 269.343 559.667 270.362 559.667C273.675 560.686 276.732 561.96 279.79 563.235C281.319 563.744 282.848 564.254 284.377 564.763C285.906 565.528 287.435 566.292 288.964 566.802C290.238 567.312 291.512 567.566 292.786 567.821C296.353 565.273 306.291 563.999 311.897 562.98C313.171 562.725 314.191 562.47 315.21 562.47C319.797 560.686 337.379 569.095 344.004 568.84C344.514 568.84 345.024 568.84 345.533 568.586C365.409 562.725 363.37 560.686 385.54 567.821C396.497 565.783 402.358 558.393 413.06 555.08C414.844 556.1 417.137 557.629 419.685 559.412C422.743 558.393 425.546 556.099 427.839 553.551C429.623 553.551 431.152 553.806 433.191 554.061C455.105 545.652 446.696 546.671 476.255 553.297C482.88 551.003 477.529 546.416 488.231 545.142C493.073 551.513 500.462 553.551 507.852 558.648C514.732 557.119 524.161 554.825 531.041 553.297C535.118 547.945 539.704 549.474 540.979 544.633C564.167 550.748 591.942 550.748 615.385 556.354C616.66 556.354 618.443 556.354 619.972 556.354C657.94 554.316 672.974 561.451 689.538 554.061C711.707 555.59 743.049 557.374 765.218 559.412C765.218 559.412 821.533 566.802 859.246 572.408C878.103 575.211 892.118 574.701 892.118 575.975C892.118 574.701 904.604 571.898 923.715 575.466C933.144 574.192 944.101 571.134 955.822 571.643C967.799 573.172 980.794 581.581 993.28 582.091C1005.77 583.365 1017.74 569.605 1029.21 568.331C1030.48 568.331 1031.76 568.331 1033.29 568.586C1043.48 570.115 1053.42 576.74 1061.83 576.485C1063.87 576.23 1065.65 575.975 1066.92 575.975C1078.64 574.956 1069.98 581.836 1093.68 587.187C1094.95 586.423 1097.25 585.913 1099.79 585.404C1103.87 584.384 1108.71 584.384 1111.01 584.384C1111.01 574.192 1113.3 560.431 1113.3 550.239L1113.04 545.397L1104.13 241.909L10.1927 242.164Z" fill="#E1E1E1"></path><path d="M10.1907 242.164C10.1907 311.475 2.54619 462.327 1.78174 534.695C1.78174 537.753 1.78174 542.34 1.78174 545.397C1.78174 556.1 1.78174 572.663 1.78174 583.11C2.29137 584.639 2.54616 586.168 2.54616 587.442C4.83952 586.933 15.2871 588.207 16.5612 587.697C18.3449 583.875 23.4413 584.385 30.3214 585.659C33.634 586.423 37.4563 586.168 41.2785 585.404C45.8652 585.404 50.452 584.13 55.2935 582.601C59.6254 584.385 63.9573 583.365 68.0344 582.856C72.6211 582.091 76.953 581.072 80.7753 582.601C82.0494 582.856 83.0686 582.856 84.0879 583.11C89.1843 583.62 93.5162 584.385 96.0644 584.385C98.1029 582.601 106.512 583.11 116.195 581.327C119.763 580.817 123.33 580.053 126.897 579.033C135.306 578.269 143.715 578.269 149.067 577.25C153.144 576.995 156.456 576.23 158.495 574.956C158.75 575.466 160.024 575.466 162.062 575.211C164.356 574.956 167.668 574.447 171.49 574.447C177.351 574.192 184.486 573.937 192.131 573.682C194.679 573.682 197.482 573.682 200.285 573.682C208.184 574.447 216.084 576.74 222.709 575.466C225.002 575.211 227.041 574.701 229.079 573.682C232.392 573.682 234.94 572.918 236.724 572.663C239.782 571.644 241.82 570.624 242.075 571.898C246.407 571.389 250.739 567.821 255.071 565.018C256.855 563.999 258.384 562.98 260.167 562.215C261.441 562.215 262.715 561.706 263.735 561.196C264.499 560.941 265.518 560.432 266.283 559.922C267.047 559.412 267.812 558.903 268.576 558.393C269.341 558.393 270.36 558.648 271.124 558.648C274.182 559.667 277.495 561.196 280.553 562.215C282.082 562.725 283.61 563.235 284.884 563.744C286.413 564.509 287.942 565.273 289.471 565.783C290.745 566.038 292.019 566.292 293.294 566.802C297.116 564.509 306.799 562.98 312.405 562.215C313.679 561.961 314.698 561.706 315.718 561.706C320.559 559.922 338.142 568.331 344.257 568.331C344.767 568.331 345.276 568.331 345.786 568.076C365.662 562.215 363.623 560.432 385.792 567.312C396.75 565.273 402.61 557.883 413.313 554.571C415.097 555.59 417.39 557.119 419.938 558.903C422.996 557.884 425.799 555.59 428.092 553.042C429.876 553.042 431.405 553.297 433.443 553.552C455.358 545.143 446.949 546.162 476.508 553.042C483.133 550.749 477.782 546.162 488.484 544.888C493.326 551.258 500.715 553.297 508.105 558.393C514.476 556.864 524.923 554.571 531.293 553.042C535.371 547.691 539.957 549.22 541.231 544.378C564.42 550.494 592.195 550.494 615.638 556.1C616.912 556.1 618.951 556.1 620.225 556.1C658.193 553.806 673.227 560.941 689.79 553.552C710.685 554.826 744.831 556.864 765.471 558.648C765.471 558.648 821.786 565.783 859.499 571.389C878.356 574.192 892.371 573.682 892.371 574.702C892.371 573.427 904.857 570.37 923.968 573.937C933.396 572.663 944.353 569.605 956.075 570.115C968.052 571.644 981.047 579.798 993.533 580.307C1006.02 581.581 1017.74 567.821 1029.21 566.292C1030.48 566.292 1031.76 566.293 1033.29 566.547C1043.48 567.821 1053.42 574.447 1061.82 574.192C1063.86 573.937 1065.65 573.937 1066.92 573.682C1078.9 572.408 1070.23 579.288 1093.42 584.639C1094.7 583.875 1096.99 583.365 1099.54 583.11C1103.61 582.091 1108.46 581.836 1110.75 581.836C1110.75 572.408 1112.79 557.374 1112.79 547.946L1112.53 543.104L1104.38 242.164H10.1907Z" fill="#D2D2D2"></path><path d="M10.1927 242.163C10.1927 306.632 3.05782 465.384 2.54819 532.401C2.54819 535.204 2.54819 540.3 2.54819 543.103C2.54819 553.041 2.54819 570.624 2.54819 580.562C3.05782 582.091 3.56752 583.619 3.56752 584.639C5.60607 583.874 15.7988 585.148 17.5825 584.639C19.3662 581.071 24.7173 581.836 31.3426 582.855C34.6552 583.365 38.4776 583.11 42.2999 582.6C46.8866 582.6 51.4733 581.581 56.3149 580.307C60.6468 581.836 64.9787 580.817 69.0558 580.562C73.6425 579.797 77.9744 579.033 81.7967 580.562C83.0708 580.817 84.09 580.817 85.1093 581.071C89.696 581.326 94.2828 582.091 97.0858 582.091C99.3791 580.307 107.533 580.816 117.216 579.033C120.784 578.523 124.351 578.013 127.919 576.994C136.582 576.23 144.991 576.23 149.833 575.21C153.655 575.21 156.968 574.446 159.261 573.172C159.516 573.682 160.79 573.682 163.084 573.427C165.377 573.172 168.69 572.662 172.512 572.662C178.373 572.407 185.507 572.153 193.152 572.153C195.7 572.153 198.503 572.153 201.306 572.408C209.206 573.427 217.105 575.465 223.73 574.191C226.024 573.936 228.062 573.427 230.101 572.662C233.413 572.662 235.962 571.643 237.49 571.643C240.548 570.879 242.332 569.859 242.842 570.879C247.173 570.114 251.505 566.802 255.582 563.999C257.366 563.234 259.15 562.215 260.679 561.195C261.953 561.195 263.227 560.686 264.246 560.176C265.011 559.921 266.03 559.412 266.794 558.902C267.559 558.393 268.323 558.138 269.088 557.628C269.852 557.628 270.872 557.883 271.636 557.883C274.694 558.902 278.006 560.431 281.064 561.45C282.593 561.96 284.122 562.724 285.396 562.979C286.925 563.744 288.454 564.508 289.983 565.018C291.257 565.273 292.276 565.528 293.805 565.782C297.627 563.489 307.31 562.215 312.916 561.195C313.936 560.941 315.21 560.686 315.974 560.686C320.816 559.157 338.398 567.566 344.514 567.311C345.024 567.311 345.533 567.311 346.043 567.056C365.919 561.196 363.88 559.412 385.795 566.547C396.752 564.508 402.612 557.118 413.315 553.806C415.099 554.825 417.392 556.354 419.94 558.138C422.998 557.119 425.801 554.825 428.094 552.277C429.878 552.277 431.407 552.532 433.446 552.787C455.36 544.378 446.951 545.397 476.51 552.277C483.135 549.983 477.784 545.397 488.486 544.123C493.328 550.493 500.717 552.532 508.107 557.628C513.968 556.354 525.435 553.551 531.296 552.277C535.373 546.926 539.959 548.455 541.234 543.613C564.422 549.729 592.197 549.729 615.64 555.335C616.66 555.335 618.953 555.335 620.227 555.335C658.195 553.041 673.229 560.176 689.792 552.787C709.159 554.061 746.107 556.099 765.473 557.628C765.473 557.628 821.788 564.508 859.501 569.859C878.358 572.408 892.373 571.898 892.373 572.917C892.373 571.643 904.859 568.585 923.97 572.153C933.398 570.879 944.356 567.566 956.077 568.076C968.054 569.604 981.049 577.504 993.535 578.014C1005.77 579.033 1017.49 565.527 1029.21 563.999C1030.48 563.999 1031.76 563.999 1033.03 563.999C1043.22 565.273 1053.16 571.643 1061.32 571.643C1063.36 571.388 1065.14 571.388 1066.41 571.133C1078.64 569.605 1069.98 576.485 1092.91 581.836C1094.19 581.071 1096.48 580.816 1099.03 580.307C1103.11 579.033 1107.69 578.778 1110.24 578.778C1110.24 569.859 1112.28 554.061 1112.28 545.142V540.301L1104.64 241.654L10.1927 242.163Z" fill="#C3C3C3"></path><path d="M10.1907 242.165C10.1907 301.537 3.56545 468.443 3.05582 530.364C3.05582 532.912 3.05582 538.263 3.05582 540.811C3.05582 549.985 3.05582 568.841 3.05582 578.015C3.82027 579.289 4.07515 581.073 4.07515 581.837C6.1137 580.563 15.7967 582.092 17.8352 581.837C19.8738 578.779 24.9702 579.289 31.5955 580.308C34.9081 580.818 38.7303 580.563 42.5526 580.053C47.1393 580.308 51.7261 579.289 56.5676 578.015C60.8995 579.289 65.2314 578.524 69.3085 578.27C74.15 577.76 78.4819 576.996 82.0494 578.524C83.3235 578.779 84.3427 578.779 85.362 579.034C89.6939 579.289 94.2807 580.053 97.0837 579.799C99.6319 578.27 107.786 578.524 117.214 576.741C120.782 576.231 124.349 575.721 127.917 574.702C136.835 573.938 144.989 574.193 149.831 572.918C153.398 572.918 156.711 572.154 159.259 570.88C159.514 571.39 161.043 571.39 163.081 571.135C165.375 570.88 168.688 570.625 172.51 570.37C178.371 570.115 185.506 570.115 192.895 570.115C195.443 570.115 198.246 570.37 200.795 570.37C208.694 571.39 216.593 573.428 222.964 572.154C225.257 572.154 227.296 571.644 229.334 570.625C232.647 570.37 235.195 569.606 236.724 569.606C239.527 568.841 241.565 567.822 242.075 568.841C246.407 568.077 250.739 564.509 254.816 561.961C256.6 561.197 258.383 560.177 259.912 559.158C261.186 559.158 262.461 558.649 263.48 557.884C264.244 557.629 265.264 557.12 266.028 556.865C266.792 556.61 267.557 556.1 268.321 555.846C269.086 556.1 270.105 556.1 270.869 556.355C273.927 557.375 277.24 558.903 280.298 559.923C281.827 560.432 283.356 561.197 284.63 561.452C286.159 562.216 287.688 562.981 289.216 563.49C290.236 563.745 291.51 564 293.039 564C297.116 561.706 306.799 560.432 312.15 559.668C313.169 559.413 314.443 559.158 315.208 559.158C320.304 557.884 337.632 566.293 343.748 566.038C344.257 566.038 344.767 566.038 345.022 565.784C364.897 560.178 362.859 558.139 384.773 565.274C395.73 563.235 401.591 555.846 412.293 552.533C414.077 553.807 416.371 555.081 418.919 556.865C421.977 555.846 424.78 553.552 427.073 551.004C428.857 551.004 430.386 551.259 432.424 551.514C454.339 543.105 445.93 544.124 475.488 551.004C482.114 548.711 476.762 544.124 487.465 542.85C492.306 549.22 499.696 551.259 507.086 556.61C512.437 555.336 524.923 552.533 530.274 551.259C534.351 545.908 538.938 547.437 540.212 542.595C563.401 548.711 591.176 548.711 614.619 554.317C615.638 554.317 617.932 554.317 619.206 554.317C657.174 552.023 671.953 559.158 688.771 551.514C706.608 552.788 746.615 554.826 764.452 556.355C764.452 556.355 820.767 563.235 858.48 568.332C877.336 570.88 891.351 570.115 891.351 571.389C891.351 570.115 903.837 567.058 922.949 570.37C932.377 569.096 943.334 565.784 955.056 566.038C967.032 567.567 980.028 575.467 992.514 575.976C1004.75 576.996 1016.47 563.49 1027.93 561.706C1029.21 561.706 1030.48 561.706 1031.76 561.706C1041.95 562.726 1051.89 569.096 1060.04 569.096C1062.08 568.841 1063.61 568.841 1065.14 568.587C1077.88 566.803 1068.96 573.938 1091.64 578.779C1092.91 578.27 1095.21 577.76 1097.75 577.505C1101.58 576.231 1106.16 575.976 1108.71 575.721C1108.71 567.567 1110.49 550.494 1110.49 542.34V537.499L1103.36 241.4L10.1907 242.165Z" fill="#B4B4B4"></path><path d="M10.1937 242.164C10.1937 296.695 4.07809 471.755 3.56845 528.325C3.56845 530.618 3.56845 536.479 3.56845 538.772C3.56845 547.181 3.56845 567.312 3.56845 575.721C4.3329 576.995 4.84254 578.779 4.84254 579.288C6.88108 577.759 16.0544 579.033 18.6026 579.288C20.896 576.74 25.9924 577.25 32.3629 578.014C35.6755 578.524 39.4977 578.269 43.32 577.504C47.9067 578.014 52.4935 576.995 57.0802 575.721C61.4121 576.995 65.744 575.976 69.8211 575.976C74.6627 575.721 78.9946 574.956 82.562 576.485C83.8361 576.74 84.8554 576.995 85.8746 576.995C89.9517 576.995 94.2836 577.759 97.5962 577.759C100.399 576.23 108.553 576.74 117.727 574.956C121.294 574.447 124.862 573.937 128.429 573.173C137.348 572.663 145.757 572.663 150.344 571.389C153.401 571.389 156.969 570.624 159.772 569.605C160.281 570.115 161.556 569.86 163.594 569.86C166.142 569.605 169.2 569.35 173.022 569.35C178.883 569.095 186.018 569.096 193.408 569.096C195.956 569.096 198.759 569.35 201.307 569.605C209.207 570.624 217.106 572.663 223.476 571.134C225.77 571.134 228.063 570.624 229.847 569.605C233.159 569.35 235.962 568.331 237.237 568.586C240.04 567.821 242.078 566.802 242.588 567.821C246.92 567.057 251.252 563.489 255.329 560.941C257.112 560.177 258.896 559.412 260.425 558.393C261.699 558.138 262.973 557.629 263.992 557.119C264.757 556.864 265.776 556.609 266.541 556.1C267.305 555.845 268.069 555.335 268.834 555.081C269.598 555.335 270.618 555.335 271.382 555.59C274.44 556.609 277.753 558.138 280.81 559.158C282.339 559.667 283.613 560.432 285.142 560.687C286.671 561.451 288.2 562.215 289.729 562.725C290.748 562.725 292.022 562.98 293.551 563.235C297.628 560.941 307.311 559.922 312.663 558.903C313.682 558.648 314.701 558.648 315.72 558.393C321.072 557.374 338.144 565.528 344.005 565.273C344.515 565.273 345.024 565.273 345.279 565.018C364.9 559.412 362.862 557.629 385.031 564.764C395.988 562.725 401.849 555.335 412.551 552.277C414.335 553.552 416.628 554.826 419.177 556.609C422.234 555.59 425.037 553.552 427.331 551.003C429.114 551.003 430.643 551.258 432.682 551.513C454.596 543.104 446.187 544.123 475.746 551.258C482.371 548.965 477.02 544.378 487.723 543.104C492.564 549.474 499.954 551.513 507.344 556.864C512.44 555.59 525.436 552.787 530.532 551.513C534.609 546.162 539.196 547.691 540.47 542.849C563.404 548.965 591.433 548.965 614.877 554.571C615.896 554.571 618.444 554.571 619.464 554.571C657.431 552.277 672.211 559.412 689.029 551.768C705.337 552.787 748.401 554.826 764.71 556.355C764.71 556.355 821.025 562.98 858.738 568.076C877.594 570.624 891.609 569.86 891.609 570.879C891.609 569.605 904.095 566.547 923.206 569.605C932.635 568.076 943.592 564.764 955.313 565.018C967.29 566.292 980.286 574.192 992.772 574.702C1005 575.721 1016.47 562.215 1027.94 560.177C1029.21 559.922 1030.48 559.922 1031.76 560.177C1041.95 561.196 1051.63 567.057 1060.04 567.312C1062.08 567.057 1063.61 567.057 1065.14 567.057C1078.14 565.018 1069.22 572.153 1091.64 576.995C1092.92 576.485 1095.21 576.23 1097.76 575.976C1101.58 574.447 1106.17 574.192 1108.71 573.937C1108.71 566.547 1110.24 548.2 1110.24 540.811V535.969L1103.87 242.164H10.1937Z" fill="#A5A5A5"></path><path d="M10.1907 242.164C10.1907 291.854 4.58474 474.813 4.32993 526.286C4.32993 528.579 4.32993 534.44 4.32993 536.734C4.32993 544.378 4.32993 565.783 4.32993 573.427C5.3492 574.702 5.85877 576.23 5.85877 576.74C7.89732 574.956 16.816 576.23 19.619 576.485C22.1672 574.192 27.2635 574.702 33.634 575.466C36.9466 575.976 40.7689 575.466 44.5911 574.956C49.1779 575.721 53.7646 574.702 58.3514 573.427C62.6833 574.447 67.0152 573.682 71.0923 573.682C75.9338 573.427 80.2657 573.173 83.8332 574.447C85.1073 574.701 86.1265 574.956 87.1458 574.956C90.968 574.956 95.2999 575.466 98.8673 575.466C101.925 574.192 109.825 574.447 118.743 572.663C122.311 572.153 125.878 571.898 129.445 571.134C138.619 570.624 147.028 570.879 151.36 569.35C154.163 569.605 157.73 568.841 160.788 567.821C161.298 568.331 162.572 568.076 164.611 568.076C167.159 567.821 170.216 567.567 173.784 567.567C179.645 567.312 186.78 567.312 194.169 567.567C196.718 567.821 199.52 567.821 202.069 568.076C209.968 569.35 217.867 571.389 224.238 569.605C226.531 569.605 228.825 569.096 230.608 568.331C234.176 568.076 236.724 567.057 237.998 567.567C240.801 566.802 242.585 566.038 243.604 566.802C247.936 565.783 252.268 562.47 256.345 559.922C258.129 559.412 259.912 558.393 261.441 557.374C262.715 557.119 263.735 556.609 264.754 555.845C265.518 555.59 266.538 555.335 267.302 555.081C268.067 554.826 268.831 554.571 269.595 554.316C270.36 554.571 271.379 554.571 272.144 554.826C275.201 555.845 278.514 557.374 281.317 558.393C282.846 559.158 284.12 559.667 285.649 560.177C287.178 560.941 288.707 561.706 290.236 562.215C291.255 562.215 292.529 562.47 294.058 562.47C298.39 560.177 308.073 559.158 313.169 558.393C314.189 558.138 315.208 558.138 316.227 557.883C321.833 557.119 338.651 565.273 344.512 565.018C345.022 565.018 345.531 565.018 345.786 564.764C365.407 559.158 363.368 557.374 385.283 564.509C396.24 562.47 402.101 555.335 412.803 552.023C414.587 553.297 416.88 554.571 419.428 556.355C422.486 555.335 425.289 553.297 427.583 550.749C429.366 550.749 430.895 551.003 432.934 551.258C454.848 543.104 446.439 543.868 475.998 551.003C482.623 548.71 477.272 544.123 487.974 542.849C492.816 549.22 500.206 551.258 507.595 556.609C512.182 555.59 526.197 552.278 530.784 551.258C534.861 545.907 539.448 547.436 540.722 542.594C563.655 548.71 591.685 548.71 615.129 554.316C615.893 554.316 618.696 554.316 619.715 554.316C657.683 552.023 672.463 558.903 689.281 551.513C704.06 552.532 750.182 554.571 764.962 555.845C764.962 555.845 821.277 562.215 858.735 567.057C877.591 569.35 891.606 568.586 891.606 569.605C891.606 568.331 904.092 565.018 923.204 568.331C932.632 566.802 943.589 563.489 955.311 563.744C967.287 565.018 980.283 572.918 992.769 573.173C1005 573.937 1016.47 560.686 1027.68 558.648C1028.95 558.393 1030.23 558.393 1031.5 558.393C1041.69 559.158 1051.38 565.018 1059.79 565.273C1061.82 565.273 1063.35 565.018 1064.88 565.018C1078.39 562.725 1069.21 569.86 1091.38 574.702C1092.66 574.192 1094.95 573.937 1097.5 573.682C1101.32 571.898 1105.65 571.644 1108.46 571.644C1108.46 564.764 1109.99 545.652 1109.99 538.772V533.931C1109.99 533.931 1104.12 242.674 1104.12 242.419L10.1907 242.164Z" fill="#969696"></path><path d="M10.1936 242.164C10.1936 286.757 5.09735 477.871 4.84253 524.247C4.84253 526.286 4.84253 532.656 4.84253 534.44C4.84253 541.32 4.84253 563.999 4.84253 570.879C6.11662 572.153 6.62629 573.682 6.62629 573.937C8.41001 571.898 17.0737 573.173 20.3864 573.682C22.9345 571.898 28.0309 572.408 34.4014 572.918C37.714 573.173 41.5362 572.918 45.3585 572.153C49.9452 573.173 54.532 572.153 59.1187 571.134C63.4506 571.898 67.7825 571.134 71.8596 571.644C76.7012 571.644 81.0331 571.389 84.3458 572.663C85.6199 572.918 86.6391 573.173 87.6584 573.173C91.2258 572.918 95.5577 573.682 99.3799 573.682C102.693 572.408 110.592 572.918 119.256 571.134C122.823 570.879 126.391 570.37 129.958 569.605C139.132 569.096 147.795 569.605 151.618 567.821C154.166 568.076 157.733 567.312 161.046 566.547C161.556 566.802 162.83 566.802 164.868 566.802C167.416 566.547 170.474 566.292 174.042 566.292C179.902 566.038 187.037 566.292 194.427 566.292C196.975 566.547 199.778 566.802 202.326 567.057C210.226 568.331 218.125 570.37 224.241 568.586C226.534 568.586 228.827 568.076 230.611 567.312C234.179 567.057 236.727 565.783 237.746 566.547C240.294 566.038 242.333 565.018 243.352 565.528C247.684 564.509 252.016 560.941 256.093 558.648C257.877 558.138 259.66 557.119 261.189 556.355C262.463 556.1 263.483 555.59 264.502 554.826C265.266 554.571 266.286 554.316 267.05 554.061C267.815 553.806 268.579 553.552 269.344 553.552C270.108 553.806 271.127 554.061 271.892 554.061C274.95 555.08 278.262 556.609 281.065 557.629C282.594 558.393 283.868 558.903 285.397 559.412C286.926 560.177 288.455 560.941 289.984 561.451C291.003 561.451 292.277 561.451 293.806 561.451C298.138 559.412 307.821 558.393 312.917 557.629C313.937 557.374 314.956 557.374 315.975 557.374C321.581 556.609 338.654 565.018 344.26 564.509C344.77 564.509 345.279 564.509 345.534 564.254C365.155 558.903 363.117 556.864 385.031 564.254C395.988 562.215 401.849 555.081 412.551 551.768C414.335 553.042 416.628 554.316 419.177 556.1C422.234 555.08 425.037 553.042 427.331 550.494C429.114 550.749 430.643 550.749 432.682 551.258C454.596 543.104 446.187 543.868 475.746 551.003C482.371 548.71 477.02 544.123 487.723 542.849C492.564 549.22 499.954 551.258 507.344 556.609C511.421 555.59 526.455 552.278 530.532 551.258C534.609 545.907 539.196 547.436 540.47 542.594C563.404 548.71 591.179 548.71 614.877 554.316C615.641 554.316 618.444 554.316 619.209 554.316C657.177 552.023 671.956 558.903 688.774 551.258C702.024 552.023 750.95 554.316 764.455 555.335C764.455 555.335 820.77 561.451 858.228 566.292C877.084 568.586 891.099 567.567 891.099 568.841C891.099 567.567 903.586 564.254 922.697 567.312C932.125 565.783 943.082 562.215 954.804 562.47C966.78 563.744 979.776 571.389 992.262 571.644C1004.24 572.408 1015.71 559.158 1026.92 556.864C1028.19 556.609 1029.47 556.609 1030.74 556.609C1040.93 557.119 1050.62 562.98 1059.02 563.235C1061.06 563.235 1062.59 562.98 1064.12 562.98C1077.88 560.432 1068.71 567.567 1090.62 572.153C1092.15 571.644 1094.19 571.644 1096.74 571.389C1100.3 569.605 1104.64 569.096 1107.44 569.096C1107.44 562.98 1108.71 542.594 1108.71 536.479V531.637L1103.36 242.674L10.1936 242.164Z" fill="#878787"></path><path d="M10.1916 242.164C10.1916 281.916 5.85983 480.928 5.35019 522.209C5.35019 523.993 5.35019 530.618 5.35019 532.402C5.35019 538.517 5.35019 562.47 5.35019 568.586C6.62428 569.86 7.3887 571.389 7.3887 571.389C9.17243 568.841 17.3265 570.37 21.1488 571.134C23.9518 569.605 29.0481 570.115 35.1638 570.624C38.4764 570.879 42.2988 570.37 46.1211 569.86C50.7078 571.134 55.2944 570.115 59.8811 569.096C64.2131 569.86 68.545 568.841 72.3673 569.605C77.2088 569.605 81.5406 569.605 84.8533 570.879C86.1274 571.134 87.1468 571.389 88.166 571.389C91.4787 571.134 95.8105 571.644 99.8876 571.644C103.455 570.624 111.354 570.879 119.763 569.096C123.331 568.841 126.898 568.331 130.466 567.821C139.894 567.567 148.303 567.821 152.125 566.038C154.419 566.547 157.986 565.528 161.554 564.764C162.318 565.018 163.592 565.018 165.376 565.018C167.924 564.764 170.982 564.764 174.549 564.764C180.41 564.764 187.545 564.764 194.935 565.018C197.483 565.273 200.286 565.528 202.834 565.783C210.733 567.057 218.633 569.095 224.748 567.312C227.042 567.312 229.335 567.057 231.119 566.292C234.686 565.783 237.234 564.764 238.254 565.528C240.802 565.018 242.84 564.254 243.86 564.509C248.192 563.235 252.524 559.922 256.601 557.374C258.384 557.119 260.168 556.1 261.697 555.081C262.971 554.826 263.99 554.061 265.01 553.552C265.774 553.297 266.793 553.297 267.558 553.042C268.322 552.787 269.087 552.787 269.851 552.532C270.616 552.787 271.635 553.042 272.399 553.297C275.457 554.571 278.77 556.1 281.573 556.864C283.102 557.629 284.376 558.138 285.905 558.648C287.434 559.412 288.963 560.177 290.491 560.687C291.511 560.687 292.785 560.687 294.059 560.687C298.646 558.648 308.329 557.629 312.915 556.864C313.935 556.609 314.954 556.609 315.973 556.609C321.834 556.1 338.652 564.254 344.003 563.744C344.513 563.744 345.022 563.489 345.277 563.489C364.643 558.138 362.86 556.355 384.774 563.489C395.731 561.451 401.592 554.316 412.294 551.003C414.078 552.277 416.372 553.552 418.92 555.335C421.978 554.316 424.781 552.277 427.074 549.729C428.858 549.984 430.387 549.984 432.425 550.494C454.339 542.34 445.93 543.359 475.489 550.239C482.115 547.946 476.763 543.359 487.466 542.085C492.307 548.455 499.697 550.494 507.087 555.845C510.654 555.08 526.708 551.513 530.275 550.494C534.352 545.143 538.939 546.671 540.213 541.83C563.147 547.946 590.922 547.946 614.62 553.552C615.384 553.552 618.442 553.552 618.952 553.552C656.665 551.258 671.699 558.138 688.517 550.494C700.494 551.258 752.222 553.552 764.198 554.571C764.198 554.571 820.513 560.686 857.971 565.018C876.828 567.312 890.843 566.292 890.843 567.312C890.843 566.038 903.329 562.725 922.44 565.528C931.868 563.999 942.826 560.432 954.547 560.432C966.524 561.451 979.519 569.095 992.005 569.35C1003.98 570.115 1015.45 557.119 1026.41 554.316C1027.68 554.061 1028.95 554.061 1030.23 554.061C1040.42 554.571 1050.1 560.177 1058.51 560.432C1060.3 560.432 1062.08 560.177 1063.61 560.177C1077.88 557.374 1068.45 564.764 1090.11 569.096C1091.64 568.841 1093.68 568.586 1096.23 568.586C1099.79 566.547 1103.87 566.292 1106.93 566.038C1106.93 560.686 1108.2 539.027 1108.2 533.676V529.089C1108.2 529.089 1103.36 242.674 1103.36 242.419L10.1916 242.164Z" fill="#787878"></path><path d="M10.1937 242.164C10.1937 276.819 6.37146 483.986 6.11664 520.17C6.11664 521.699 6.11664 528.834 6.11664 530.363C6.11664 535.714 6.11664 560.941 6.11664 566.292C7.64555 567.312 8.40991 568.841 8.40991 568.841C10.1936 566.038 17.8382 567.567 22.1701 568.331C25.228 567.312 30.3243 567.567 36.1851 568.076C39.4978 568.331 43.3201 567.821 46.8875 567.312C51.4742 568.586 56.0609 567.821 60.6476 566.802C64.9795 567.312 69.3115 566.547 73.1337 567.312C77.9753 567.567 82.3072 567.567 85.6199 568.841C86.894 569.095 87.9131 569.35 88.6776 569.35C91.7354 568.841 96.0674 569.35 100.399 569.35C104.222 568.586 111.866 568.586 120.275 566.802C123.843 566.547 127.41 566.293 130.977 565.783C140.406 565.528 149.07 566.038 152.637 564.254C154.676 564.764 158.243 563.999 162.065 563.235C162.83 563.49 164.104 563.489 165.888 563.489C168.436 563.235 171.493 563.235 175.061 563.235C181.177 563.235 188.057 563.235 195.192 563.489C197.74 563.744 200.543 563.999 203.091 564.254C210.99 565.528 218.635 567.567 225.005 565.528C227.299 565.528 229.592 565.273 231.376 564.509C234.943 563.999 237.491 562.725 238.511 563.744C241.059 563.235 242.842 562.47 244.117 562.725C248.448 561.451 252.78 557.884 256.603 555.59C258.386 555.335 260.17 554.316 261.954 553.552C263.228 553.297 264.247 552.532 265.267 551.768C266.031 551.768 267.05 551.513 267.815 551.258C268.579 551.258 269.344 551.003 270.363 551.003C271.127 551.258 272.147 551.513 272.911 551.768C275.969 553.042 279.027 554.571 282.084 555.335C283.613 556.1 284.888 556.609 286.416 557.119C287.945 557.883 289.474 558.648 291.003 559.158C292.022 558.903 293.297 558.903 294.571 558.903C299.412 556.864 308.84 555.845 313.427 555.335C314.446 555.08 315.466 555.081 316.485 555.081C322.601 554.826 339.164 562.98 344.515 562.47C345.025 562.47 345.534 562.215 345.789 562.215C365.155 556.864 363.371 555.08 385.031 562.47C395.988 560.686 401.594 553.297 412.551 550.239C414.335 551.513 416.628 552.787 419.177 554.571C422.234 553.552 425.037 551.513 427.331 548.965C429.114 549.22 430.643 549.22 432.682 549.729C454.341 541.575 446.187 542.594 475.746 549.729C482.371 547.436 477.02 542.849 487.723 541.575C492.564 547.946 499.954 549.984 507.344 555.335C510.656 554.571 527.219 550.749 530.532 549.984C534.609 544.633 539.196 546.162 540.47 541.32C563.404 547.436 591.179 547.436 614.877 553.042C615.386 553.042 618.699 553.042 619.464 553.042C657.177 550.494 672.211 557.629 689.029 549.729C699.476 550.494 754.262 552.532 764.71 553.552C764.71 553.552 821.024 559.412 858.483 563.744C877.339 565.783 891.354 564.764 891.354 566.038C891.354 564.764 903.84 561.451 922.952 564.254C932.38 562.725 943.337 558.903 955.059 558.903C967.035 559.922 980.031 567.567 992.517 567.567C1004.49 568.076 1015.71 555.335 1026.92 552.277C1028.19 552.023 1029.47 551.768 1030.74 551.768C1040.93 552.023 1050.62 557.629 1058.77 558.138C1060.55 558.138 1062.34 558.138 1063.87 557.883C1078.39 554.826 1068.96 562.215 1090.11 566.547C1091.64 566.293 1093.68 566.292 1096.23 566.038C1099.8 563.999 1103.87 563.49 1106.68 563.235C1106.68 558.393 1107.69 535.969 1107.69 531.128V526.541L1103.62 242.419L10.1937 242.164Z" fill="#696969"></path><path d="M10.1916 242.164C10.1916 271.978 6.87909 487.044 6.62427 518.132C6.62427 519.406 6.62427 526.795 6.62427 528.07C6.62427 532.656 6.62427 559.157 6.62427 563.744C8.15318 564.763 9.17245 566.292 9.17245 566.037C10.7014 562.98 18.3458 564.509 22.9325 565.528C26.2452 564.763 31.0868 565.273 37.2024 565.528C40.5151 565.528 44.3372 565.273 47.9047 564.509C52.4914 566.038 57.0782 565.273 61.6649 564.254C65.9968 564.509 70.3288 563.744 74.151 564.763C78.9926 565.018 83.3244 565.528 86.637 566.547C87.9111 566.802 88.9304 567.057 89.6949 567.057C92.4979 566.292 96.8298 567.057 101.162 567.057C105.239 566.292 112.883 566.547 121.037 564.763C124.605 564.509 128.172 564.254 131.74 563.744C141.423 563.489 150.087 563.999 153.145 562.215C154.928 562.725 158.496 561.96 162.573 561.451C163.337 561.706 164.611 561.706 166.395 561.706C168.943 561.706 172.001 561.451 175.569 561.451C181.684 561.451 188.564 561.706 195.699 561.96C198.247 562.215 201.05 562.47 203.599 562.98C211.498 564.509 219.142 566.547 225.513 564.254C227.806 564.254 230.1 563.999 231.883 563.489C235.706 562.98 238.254 561.706 239.018 562.725C241.312 562.47 243.35 561.451 244.624 561.706C248.956 560.431 253.288 556.864 257.11 554.571C258.894 554.316 260.678 553.551 262.461 552.532C263.736 552.022 264.755 551.513 265.774 550.748C266.538 550.748 267.558 550.494 268.322 550.494C269.087 550.494 270.106 550.494 270.87 550.494C271.635 550.748 272.654 551.003 273.419 551.258C276.476 552.532 279.534 554.061 282.592 554.825C283.866 555.59 285.395 556.1 286.669 556.609C288.198 557.374 289.727 558.138 291.256 558.648C292.275 558.393 293.549 558.393 294.823 558.138C299.665 556.1 309.348 555.335 313.68 554.571C314.699 554.316 315.718 554.316 316.738 554.316C323.108 554.316 339.416 562.47 344.513 561.706C345.022 561.706 345.532 561.451 345.787 561.451C365.153 556.1 363.115 554.316 385.029 561.706C395.986 559.922 401.847 552.532 412.549 549.474C414.333 550.748 416.626 552.022 419.174 553.806C422.232 552.787 425.035 550.748 427.329 548.2C429.112 548.455 430.641 548.455 432.68 548.965C454.339 540.81 446.185 541.83 475.744 548.965C482.369 546.671 477.018 542.084 487.721 540.81C492.562 547.181 499.952 549.219 507.342 554.571C510.145 553.806 527.727 549.984 530.53 549.22C534.607 543.868 539.194 545.397 540.468 540.556C563.402 546.671 591.177 546.671 614.62 552.277C615.13 552.277 618.442 552.277 619.207 552.277C656.92 549.729 671.954 556.609 688.772 548.965C697.691 549.474 755.534 551.768 764.453 552.532C764.453 552.532 820.768 558.138 858.226 562.215C877.082 564.254 891.097 563.234 891.097 564.254C891.097 562.98 903.584 559.412 922.695 562.215C932.123 560.431 943.08 556.864 954.802 556.864C966.778 557.883 979.774 565.273 992.26 565.273C1003.98 565.783 1015.45 553.042 1026.41 549.984C1027.68 549.729 1028.95 549.474 1030.23 549.474C1040.17 549.474 1049.85 555.08 1058.26 555.59C1060.04 555.59 1061.83 555.59 1063.35 555.335C1078.39 552.022 1068.71 559.412 1089.6 563.489C1091.13 563.234 1093.17 563.235 1095.72 563.235C1099.28 560.941 1103.11 560.431 1106.16 560.177C1106.16 556.1 1107.18 532.402 1107.18 528.324V523.738L1103.62 241.909L10.1916 242.164Z" fill="#5A5A5A"></path><path d="M10.1947 242.164C10.1947 266.881 7.39172 490.102 7.1369 516.093C7.1369 517.113 7.1369 525.012 7.1369 526.031C7.1369 529.853 7.1369 557.629 7.1369 561.451C8.92063 562.47 9.93999 563.999 9.93999 563.489C11.4689 560.177 18.6037 561.451 23.7001 562.98C27.0127 562.725 32.1092 562.98 37.97 563.235C41.2826 563.235 45.1049 562.725 48.6724 562.215C53.2591 563.999 57.8457 563.235 62.4324 562.47C66.7643 562.725 71.0963 561.706 74.9186 562.98C79.7601 563.489 84.0919 563.999 87.4046 565.018C88.6787 565.273 89.698 565.528 90.4624 565.528C92.7558 564.764 97.3425 565.273 101.929 565.273C106.261 564.764 113.906 564.764 121.805 562.98C125.372 562.725 128.94 562.47 132.507 562.215C142.19 562.215 150.854 562.725 153.912 560.687C155.441 561.451 159.009 560.687 163.34 560.177C164.105 560.432 165.379 560.432 167.163 560.432C169.711 560.432 172.769 560.177 176.336 560.432C182.452 560.432 189.332 560.686 196.467 560.941C199.015 561.196 201.563 561.706 204.366 561.961C212.265 563.49 219.91 565.528 226.026 563.235C228.319 563.49 230.612 562.98 232.396 562.47C236.218 561.961 238.767 560.687 239.276 561.961C241.57 561.706 243.608 560.941 244.882 560.941C249.214 559.412 253.546 556.1 257.368 553.806C259.407 553.806 261.191 552.787 262.719 551.768C263.994 551.258 265.013 550.494 265.777 549.984C266.542 549.984 267.561 549.729 268.325 549.729C269.09 549.729 270.109 549.729 270.874 549.984C271.638 550.239 272.657 550.494 273.422 550.749C276.48 552.023 279.537 553.552 282.595 554.571C283.869 555.335 285.398 555.845 286.672 556.355C288.201 557.119 289.73 557.883 291.259 558.393C292.278 558.138 293.552 557.884 294.826 557.629C299.923 555.59 309.351 554.826 313.683 554.316C314.448 554.061 315.722 554.061 316.741 554.061C323.111 554.061 339.42 562.47 344.516 561.706C345.026 561.706 345.535 561.451 345.79 561.451C364.901 556.355 363.118 554.571 385.032 561.961C395.989 560.177 401.595 552.787 412.552 549.729C414.336 551.003 416.629 552.277 419.178 554.061C422.235 553.042 425.039 551.003 427.332 548.455C429.116 548.71 430.644 548.71 432.683 549.22C454.343 541.066 446.188 542.085 475.747 549.22C482.373 546.926 477.021 542.34 487.724 541.066C492.565 547.436 499.955 549.474 507.345 554.826C509.638 554.316 528.24 550.239 530.533 549.729C534.61 544.378 539.197 545.907 540.471 541.066C563.405 547.181 591.18 547.181 614.623 552.787C615.133 552.787 618.7 552.787 618.955 552.787C656.668 550.239 671.702 557.119 688.52 549.474C695.91 549.984 756.812 552.277 764.201 552.787C764.201 552.787 820.516 558.393 857.974 562.215C876.831 564.254 890.846 562.98 890.846 563.999C890.846 562.725 903.332 559.158 922.443 561.706C931.872 559.922 942.829 556.1 954.55 556.1C966.527 557.119 979.522 564.509 992.009 564.254C1003.73 564.764 1014.94 552.023 1025.9 548.71C1027.17 548.455 1028.45 548.2 1029.72 547.946C1039.66 547.946 1049.34 553.297 1057.75 553.806C1059.54 553.806 1061.32 553.806 1062.85 553.552C1078.14 549.984 1068.45 557.374 1089.09 561.451C1090.62 561.451 1092.66 561.451 1095.21 561.451C1098.52 559.158 1102.34 558.648 1105.66 558.393C1105.66 555.08 1106.42 530.108 1106.42 526.796V522.209L1103.36 242.928L10.1947 242.164Z" fill="#4B4B4B"></path><path d="M10.1916 242.164C10.1916 262.04 7.89838 493.414 7.89838 514.055C7.89838 514.819 7.89838 523.228 7.89838 523.993C7.89838 527.051 7.89838 556.1 7.89838 559.158C9.6821 560.177 10.9561 561.706 10.9561 560.941C12.485 557.374 19.1104 558.648 24.4615 560.177C28.029 560.432 33.1253 560.687 38.7313 560.687C42.0439 560.687 45.8662 560.177 49.4337 559.412C54.0204 561.451 58.607 560.686 63.1938 559.922C67.5257 559.922 71.8576 559.158 75.6799 560.432C80.7763 561.196 84.8534 561.706 88.166 562.725C89.4401 562.98 90.4593 563.235 91.2237 563.235C93.2623 562.215 97.5942 562.725 102.691 562.98C107.277 562.47 114.667 562.725 122.566 560.941C126.134 560.687 129.701 560.686 133.269 560.432C143.207 560.432 151.87 560.941 154.673 558.903C155.948 559.667 159.515 558.903 164.102 558.393C165.121 558.648 166.395 558.648 167.924 558.648C170.472 558.648 173.53 558.648 177.097 558.648C183.213 558.648 190.093 559.158 197.228 559.412C199.776 559.667 202.324 560.177 204.873 560.687C212.772 562.215 220.417 564.254 226.532 561.961C228.826 562.215 231.119 561.706 232.903 561.196C236.725 560.686 239.273 559.158 239.783 560.687C242.076 560.432 243.86 559.667 245.389 559.412C249.721 557.884 254.052 554.316 257.875 552.277C259.913 552.277 261.697 551.513 263.226 550.494C264.245 549.984 265.519 549.22 266.284 548.455C267.048 548.455 268.067 548.455 268.832 548.455C269.596 548.455 270.616 548.71 271.38 548.71C272.145 548.965 273.164 549.22 273.928 549.475C276.986 550.749 280.044 552.278 283.102 553.297C284.376 554.061 285.905 554.571 287.179 555.335C288.708 556.1 290.237 556.864 291.766 557.374C292.785 557.119 294.059 556.864 295.333 556.609C300.429 554.826 310.112 554.061 314.189 553.297C314.954 553.042 315.973 553.042 317.247 553.042C323.873 553.297 340.181 561.451 345.023 560.687C345.532 560.687 346.042 560.432 346.297 560.432C365.408 555.335 363.624 553.552 385.284 560.941C396.241 559.158 401.847 552.023 412.804 548.965C414.588 550.239 416.881 551.513 419.429 553.297C422.487 552.278 425.29 550.239 427.583 547.691C429.367 547.946 430.896 547.946 432.935 548.455C454.594 540.556 446.44 541.32 475.999 548.455C482.624 546.162 477.273 541.575 487.975 540.301C492.817 546.672 500.207 548.71 507.596 554.061C509.38 553.552 529.001 549.22 530.785 548.965C534.862 543.614 539.449 545.143 540.723 540.301C563.656 546.417 591.431 546.417 614.875 551.768C615.13 551.768 618.952 551.768 619.207 551.768C656.92 549.22 671.954 556.1 688.772 548.2C694.633 548.71 758.337 550.749 764.453 551.258C764.453 551.258 820.768 556.609 858.226 560.432C877.082 562.215 891.097 560.941 891.097 562.215C891.097 560.941 903.584 557.374 922.695 559.922C932.123 558.138 943.08 554.316 954.802 554.061C966.778 554.826 979.774 562.215 992.26 561.961C1003.98 562.215 1014.94 549.729 1025.9 546.162C1027.17 545.907 1028.44 545.652 1029.72 545.397C1039.66 545.143 1049.34 550.494 1057.75 551.003C1059.53 551.003 1061.32 551.003 1062.84 550.749C1078.64 546.926 1068.71 554.571 1089.09 558.393C1090.62 558.393 1092.66 558.393 1095.21 558.393C1098.52 555.845 1102.34 555.335 1105.4 555.081C1105.4 552.278 1105.91 526.541 1105.91 523.738V519.151L1103.62 242.164H10.1916Z" fill="#3C3C3C"></path><path d="M10.1947 242.163C10.1947 256.943 8.41098 496.472 8.41098 511.761C8.41098 512.525 8.41098 520.934 8.41098 521.699C8.41098 523.992 8.41098 554.315 8.41098 556.609C10.4495 557.373 11.7236 558.902 11.4688 558.393C12.7429 554.315 19.1133 555.844 24.9741 557.628C28.7964 558.138 33.8928 558.393 39.4988 558.393C42.8114 558.393 46.6337 557.628 50.2012 557.118C54.7879 559.412 59.3746 558.647 63.7065 557.883C68.0384 557.628 72.3704 556.864 76.1927 558.393C81.289 559.157 85.6208 559.921 88.6786 560.941C89.9527 561.196 90.972 561.45 91.7365 561.45C93.5202 560.431 97.8521 560.941 103.203 560.941C108.045 560.686 115.435 560.686 123.079 558.902C126.647 558.647 130.214 558.647 133.781 558.393C143.974 558.393 152.638 559.157 154.931 556.864C155.951 557.628 159.263 556.864 164.36 556.609C165.379 556.609 166.653 556.609 168.182 556.864C170.73 556.864 174.043 556.864 177.355 556.864C183.471 557.119 190.351 557.373 197.486 557.628C200.034 557.883 202.582 558.393 205.13 558.902C213.03 560.686 220.674 562.47 226.79 559.921C229.083 560.176 231.377 559.922 233.16 559.412C236.983 558.647 239.531 557.373 240.041 558.902C242.079 558.647 244.118 558.138 245.647 557.628C249.979 556.099 254.056 552.532 258.133 550.493C260.171 550.748 261.955 549.729 263.484 548.709C264.503 548.2 265.522 547.435 266.542 546.671C267.561 546.671 268.325 546.671 269.09 546.671C269.854 546.926 270.874 546.926 271.638 547.18C272.403 547.435 273.422 547.69 274.186 548.2C277.244 549.474 280.302 551.003 283.105 552.022C284.379 552.787 285.908 553.296 287.182 554.061C288.711 554.825 290.24 555.589 291.769 556.099C292.788 555.589 293.807 555.335 295.336 555.08C300.687 553.296 310.115 552.532 314.193 552.022C314.957 551.767 315.976 551.767 317.25 551.767C324.13 552.277 340.184 560.431 344.771 559.412C345.28 559.412 345.535 559.157 346.045 559.157C365.156 554.061 363.373 552.277 385.032 559.921C395.989 558.138 401.595 551.003 412.552 547.945C414.336 549.219 416.629 550.493 419.178 552.277C422.235 551.258 425.038 549.219 427.332 546.671C429.116 546.926 430.644 546.926 432.683 547.435C454.342 539.536 446.188 540.3 475.747 547.69C482.372 545.397 477.021 540.81 487.724 539.536C492.565 545.906 499.955 547.945 507.345 553.296C508.619 553.041 529.259 548.455 530.533 548.2C534.61 542.849 539.197 544.377 540.471 539.536C563.405 545.652 591.18 545.652 614.623 551.003C614.878 551.003 618.7 551.003 618.955 551.003C656.668 548.455 671.702 555.08 688.52 547.435C692.852 547.69 759.614 549.984 764.201 550.493C764.201 550.493 820.516 555.59 857.974 559.157C876.831 560.941 890.846 559.667 890.846 560.686C890.846 559.412 903.332 555.844 922.443 558.138C931.872 556.354 942.829 552.532 954.55 552.022C966.527 552.787 979.522 559.921 992.008 559.667C1003.73 559.921 1014.69 547.435 1025.39 543.613C1026.66 543.103 1027.94 542.849 1029.21 542.849C1039.15 542.594 1048.83 547.69 1057.24 548.2C1059.03 548.2 1060.55 548.2 1062.08 547.945C1078.14 543.868 1068.2 551.512 1088.33 555.335C1089.86 555.335 1091.9 555.59 1094.45 555.59C1097.76 553.041 1101.33 552.277 1104.64 552.022C1104.64 549.984 1105.15 522.973 1105.15 520.934V516.348C1105.15 516.348 1103.36 241.909 1103.36 241.654L10.1947 242.163Z" fill="#2D2D2D"></path><path d="M10.1927 242.163C10.1927 252.101 9.17346 499.53 8.91864 509.722C8.91864 510.232 8.91864 519.151 8.91864 519.405C8.91864 520.934 8.91864 552.532 8.91864 554.061C11.212 554.825 12.2312 556.354 12.2312 555.59C13.5053 551.258 19.3663 552.786 25.7367 554.825C29.8138 555.844 34.6552 556.099 40.2612 555.844C43.8287 555.59 47.3962 555.08 50.9636 554.57C55.5503 557.118 60.137 556.354 64.4689 555.59C68.8008 555.335 73.1328 554.315 76.9551 556.099C82.0514 557.118 86.3833 558.138 89.1863 558.902C90.4604 559.157 91.4797 559.412 92.2442 559.412C93.7731 558.138 98.105 558.647 103.711 558.647C108.807 558.392 116.197 558.647 123.587 556.609C127.154 556.354 130.722 556.354 134.289 556.354C144.482 556.609 153.4 557.373 155.439 554.825C155.949 555.844 159.516 555.08 164.867 554.825C165.887 554.825 167.161 554.825 168.69 554.825C171.493 554.825 174.55 554.825 177.863 555.08C183.979 555.335 190.859 555.589 197.739 556.099C200.287 556.354 202.835 557.118 205.383 557.628C213.283 559.412 220.927 561.45 226.788 558.647C229.081 558.902 231.375 558.647 233.158 558.138C237.236 557.373 239.529 555.844 240.039 557.628C242.077 557.628 244.116 556.864 245.645 556.354C249.977 554.57 254.054 551.258 258.131 549.219C260.169 549.474 261.953 548.709 263.482 547.69C264.501 547.181 265.52 546.161 266.54 545.652C267.559 545.652 268.323 545.652 269.088 545.652C269.852 545.906 270.872 546.161 271.636 546.416C272.401 546.671 273.42 547.181 274.184 547.435C277.242 548.709 280.3 550.238 283.103 551.258C284.377 552.022 285.906 552.532 287.18 553.296C288.709 554.061 290.238 554.825 291.767 555.335C292.531 554.825 293.805 554.57 295.334 554.061C300.685 552.277 310.113 551.767 314.191 551.003C314.955 550.748 315.974 550.748 317.248 550.748C324.383 551.512 340.182 559.667 344.769 558.647C345.278 558.647 345.533 558.393 346.043 558.393C364.899 553.296 363.371 551.767 385.03 559.412C395.987 557.628 401.593 550.493 412.55 547.435C414.334 548.709 416.627 549.984 419.176 552.022C422.233 551.003 425.036 548.964 427.33 546.416C429.114 546.671 430.642 546.671 432.681 547.18C454.34 539.281 446.186 540.046 475.745 547.435C482.37 545.142 477.019 540.555 487.722 539.281C492.563 545.652 499.953 547.69 507.343 553.041C508.362 552.787 529.512 547.945 530.531 547.945C534.608 542.594 539.195 544.123 540.469 539.281C563.403 545.397 591.178 545.397 614.621 550.748C614.876 550.748 618.953 550.748 618.953 550.748C656.666 548.2 671.7 554.825 688.518 546.926C691.576 547.181 761.141 549.474 764.199 549.729C764.199 549.729 820.514 554.57 857.972 558.138C876.829 559.922 890.844 558.393 890.844 559.412C890.844 558.138 903.33 554.315 922.441 556.609C931.87 554.825 942.827 550.748 954.548 550.493C966.525 551.258 979.52 558.393 992.006 557.883C1003.47 558.138 1014.43 545.652 1025.39 541.829C1026.66 541.32 1027.94 541.065 1029.21 540.81C1039.15 540.3 1048.83 545.397 1056.98 545.906C1058.77 545.906 1060.3 545.906 1061.83 545.652C1078.39 541.32 1068.2 548.964 1088.07 552.532C1089.86 552.787 1091.89 552.787 1094.19 553.041C1097.5 550.238 1100.81 549.729 1104.38 549.219C1104.38 547.945 1104.64 519.915 1104.64 518.386V513.799L1103.36 241.654L10.1927 242.163Z" fill="#1E1E1E"></path><path d="M10.1947 242.164C10.1947 247.006 9.68506 502.588 9.68506 507.684C9.68506 507.939 9.68506 517.113 9.68506 517.367C9.68506 518.132 9.68506 550.748 9.68506 551.513C11.9784 552.277 13.2526 553.806 13.2526 552.787C14.5267 548.2 20.1326 549.729 26.7579 552.023C30.835 553.297 35.9314 553.552 41.2826 553.042C44.85 552.787 48.4175 552.277 51.9849 551.513C56.5717 554.061 61.1584 553.552 65.4903 553.042C69.8222 552.532 73.8993 551.768 77.9764 553.806C83.0728 554.826 87.4046 556.1 90.2076 556.864C91.4817 557.119 92.501 557.374 93.2655 557.374C94.5396 556.1 98.8715 556.354 104.732 556.609C110.083 556.609 117.218 556.609 124.608 554.826C128.176 554.571 131.998 554.826 135.31 554.826C145.758 555.08 154.422 555.845 156.46 553.297C156.715 554.316 160.283 553.551 165.889 553.297C166.908 553.297 168.182 553.297 169.711 553.297C172.514 553.297 175.572 553.297 178.884 553.551C185 553.806 191.88 554.316 198.76 554.571C201.308 555.08 203.856 555.59 206.405 556.1C214.304 557.883 221.949 559.922 227.809 557.119C230.358 557.374 232.396 557.119 234.18 556.609C238.257 555.845 240.805 554.316 240.805 556.1C242.844 556.1 244.627 555.59 246.411 554.826C250.743 553.042 254.82 549.474 258.642 547.691C260.681 547.945 262.465 547.181 263.994 546.162C265.013 545.397 266.032 544.633 267.051 543.868C268.07 543.868 268.835 544.123 269.854 544.123C270.619 544.378 271.638 544.633 272.402 544.888C273.167 545.143 273.931 545.652 274.951 545.907C278.008 547.436 281.066 548.965 283.869 549.729C285.143 550.494 286.672 551.258 287.946 551.768C289.475 552.532 291.004 553.297 292.533 553.806C293.297 553.297 294.572 552.787 296.101 552.532C301.707 550.749 311.135 550.239 314.957 549.729C315.722 549.474 316.741 549.474 318.015 549.474C325.15 550.494 340.949 558.393 345.535 557.374C346.045 557.374 346.3 557.119 346.809 557.119C365.666 552.277 364.137 550.494 385.796 558.138C396.754 556.355 402.36 549.22 413.317 546.162C415.101 547.436 417.394 548.71 419.942 550.749C423 549.729 425.803 547.691 428.096 545.142C429.88 545.397 431.409 545.397 433.447 545.907C455.107 538.008 446.953 538.772 476.512 546.162C483.137 543.868 477.786 539.282 488.488 538.008C493.33 544.378 500.719 546.417 508.109 551.768C508.619 551.768 530.788 546.671 531.298 546.671C535.375 541.32 539.961 542.849 541.235 538.008C564.169 544.123 591.944 543.868 615.387 549.474H619.719C657.432 546.671 672.467 553.551 689.285 545.652C690.814 545.652 763.437 548.2 764.966 548.2C764.966 548.2 821.281 553.042 858.739 556.1C877.595 557.629 891.61 556.1 891.61 557.374C891.61 556.1 904.096 552.277 923.208 554.571C932.636 552.532 943.593 548.71 955.315 548.2C967.291 548.71 980.287 555.845 992.773 555.335C1004.24 555.335 1015.2 543.104 1025.9 539.027C1027.17 538.517 1028.45 538.262 1029.47 538.008C1039.4 537.243 1048.83 542.34 1057.24 543.104C1059.03 543.359 1060.55 543.104 1062.08 542.849C1078.9 538.262 1068.71 545.907 1088.33 549.474C1090.11 549.729 1092.15 549.984 1094.45 549.984C1097.5 546.926 1101.07 546.417 1104.38 545.907C1104.38 545.142 1104.64 516.093 1104.64 515.329V510.742C1104.64 510.742 1104.13 241.145 1104.13 240.89L10.1947 242.164Z" fill="#0F0F0F"></path><path d="M1103.36 242.164H10.1927V505.646V549.22C12.7409 549.984 14.015 551.258 14.015 550.239C15.0343 545.397 20.3854 546.926 27.5203 549.22C34.6552 552.278 43.5739 550.494 52.7474 548.965C62.1756 554.826 71.0943 546.926 78.7388 551.513C86.3834 553.297 91.9894 555.335 94.0279 555.59C95.8116 552.787 110.591 556.609 125.116 552.787C139.895 552.277 154.675 555.08 156.968 551.513C156.968 553.042 162.319 551.258 170.218 552.023C178.118 552.023 188.565 552.787 199.268 553.552C209.715 555.335 220.418 559.922 228.317 556.1C236.216 557.119 241.313 552.532 241.313 555.59C247.173 555.845 253.799 549.474 259.405 546.926C262.717 547.691 265.52 545.143 267.814 543.104C268.833 543.104 269.597 543.359 270.617 543.359C275.458 544.888 280.3 547.946 284.632 549.22C287.435 550.749 290.238 552.023 293.041 553.297C297.118 550.494 310.878 549.729 315.465 549.22C320.051 547.181 340.692 558.393 345.788 557.119C365.919 552.023 363.625 549.984 385.794 557.883C396.752 556.1 402.358 548.965 413.315 546.162C415.099 547.436 417.392 548.71 419.94 550.749C422.998 549.729 425.801 547.691 428.094 545.143C429.878 545.397 431.407 545.652 433.445 545.907C455.105 538.008 446.951 538.772 476.51 546.162C483.135 543.869 477.784 539.282 488.486 538.262C493.328 544.888 500.717 546.671 508.107 552.023L531.296 546.926C535.373 541.575 539.959 543.104 541.233 538.262C564.167 544.378 591.942 544.123 615.385 549.729H619.717C657.43 546.926 672.465 553.806 689.283 545.907L764.964 548.2C764.964 548.2 821.279 552.787 858.737 555.845C877.593 557.374 891.608 555.845 891.608 556.864C891.608 555.59 904.094 551.768 923.206 553.806C932.634 551.768 943.591 547.691 955.313 547.181C967.289 547.691 980.285 554.826 992.771 554.061C1005.51 554.061 1017.49 538.772 1029.21 536.479C1041.19 535.46 1052.4 542.594 1061.83 541.066C1080.68 535.969 1066.67 545.397 1093.93 548.2C1096.99 545.143 1100.3 544.378 1103.87 544.123V509.468L1103.36 242.164Z" fill="black"></path></g><path d="M10 0L10 550.991C12.5489 551.592 13.8234 552.593 13.8234 551.792C14.843 547.987 20.1957 549.189 27.3327 550.991C34.4697 553.394 43.391 551.992 52.5671 550.791C61.9982 555.397 70.9194 549.189 78.5662 552.793C86.213 554.195 91.8207 555.797 93.8598 555.998C95.644 553.795 110.428 556.798 124.957 553.795C139.741 553.394 154.524 555.597 156.818 552.793C156.818 553.995 162.171 552.593 170.073 553.194C177.974 553.194 188.425 553.795 199.13 554.395C209.581 555.797 220.287 559.402 228.188 556.398C236.09 557.199 241.188 553.595 241.188 555.998C247.05 556.198 253.677 551.192 259.285 549.189C264.893 550.19 269.226 543.782 270.755 544.984C278.147 548.388 285.029 551.992 292.931 554.395C297.009 552.193 310.773 551.592 315.362 551.191C319.95 549.589 340.596 558.4 345.694 557.399C365.83 553.394 363.536 551.792 385.712 558C402.025 555.998 406.613 544.583 433.377 548.388C455.043 542.18 446.886 542.781 476.454 548.588C483.081 546.786 477.728 543.181 488.434 542.38C493.277 547.587 500.669 548.989 508.061 553.194L531.256 549.189C535.334 544.984 539.922 546.185 541.197 542.38C564.137 547.186 591.92 546.986 615.37 551.392H619.704C657.428 549.189 672.466 554.596 689.289 548.388L764.993 550.19C764.993 550.19 821.324 553.795 858.793 556.198C877.655 557.399 891.674 556.198 891.674 556.999C891.674 555.997 904.164 552.994 923.281 554.596C932.712 552.994 943.672 549.79 955.397 549.389C967.377 549.79 980.377 555.397 992.867 554.796C1005.61 554.796 1017.59 542.781 1029.32 540.979C1041.3 540.178 1052.51 545.785 1061.94 544.583C1080.8 540.578 1066.79 547.987 1094.06 550.19C1097.12 547.787 1100.43 547.187 1104 546.986V0H10Z" fill="#F5F5F5"></path></svg>