<svg xmlns="http://www.w3.org/2000/svg" viewBox="0 0 55.88 81.63"><defs><style>.cls-1{fill:#fff;}</style></defs><g id="&#x421;&#x43B;&#x43E;&#x439;_2" data-name="&#x421;&#x43B;&#x43E;&#x439; 2"><g id="Layer_1" data-name="Layer 1"><path class="cls-1" d="M53.12,9.52s0,0,0-.06A6.9,6.9,0,0,0,50,5a.19.19,0,0,0,0,.09c-.7.49-.72.1-.64-.41a6.5,6.5,0,0,0-1.29-.5L38,1.28c-.1,0-.18,0-.06.1L36.3,1c-.41-.2.8.07,1,0L34.38.22h-.06a6.72,6.72,0,0,0-5.41.93l.12,0h-.2l-.07.05.36.09-.42,0-.86.63.76.22A1.31,1.31,0,0,1,28.05,2L27.77,2,16.24,10.43a6.57,6.57,0,0,0-2.66,6.94l3.74,15.91a7,7,0,0,0,4.56,4.95l12.81,4.69.06,0a7,7,0,0,0,2.12.33,6.71,6.71,0,0,0,4-1.33l.07-.06L53.31,31.64a6.61,6.61,0,0,0,2.44-6.54Zm-10,11.35c1.17.33.77.53.22.44C41.57,20.8,43.81,21.2,43.09,20.87Zm4.91,4a5.71,5.71,0,0,1-.54,1.21,4.22,4.22,0,0,1-.82,1,2.86,2.86,0,0,1-1.09.63,1.65,1.65,0,0,1-1.16-.05,1.59,1.59,0,0,1-.72-.62,1.83,1.83,0,0,1-.26-.64,2.39,2.39,0,0,1-.07-.42v-.15a3.21,3.21,0,0,0,.23.52,1.64,1.64,0,0,0,1,.87,1.33,1.33,0,0,0,.8-.09,2.48,2.48,0,0,0,.79-.57,4.42,4.42,0,0,0,.64-.88,3.8,3.8,0,0,0,.24-.5,4.05,4.05,0,0,0,.2-.55,4.47,4.47,0,0,0,.16-2.19,2,2,0,0,0-.38-.87,1.4,1.4,0,0,0-.28-.27l-.2-.1a.6.6,0,0,0-.19-.06,2,2,0,0,0-1.31.3,3.48,3.48,0,0,0-.46.32l.08-.12a2.32,2.32,0,0,1,.29-.33,2.29,2.29,0,0,1,.54-.41,1.81,1.81,0,0,1,.92-.23l.27,0,.27.08a1.64,1.64,0,0,1,.52.37,2.47,2.47,0,0,1,.63,1.1A4.64,4.64,0,0,1,48,24.89Zm1.69-13.74c1.19.29.7.45.2.38C48.68,11.23,49.19,11.08,49.69,11.15Zm.05,21.39a9.36,9.36,0,0,1,1.4-2.27C51.21,30.51,50.75,31.26,49.74,32.54ZM52,28.91a5.53,5.53,0,0,0-.8.88c-.57.34,1.08-1.48.76-1.38.48-.39-.21.65.64.1C51.79,29.42,51.69,29.42,52,28.91Zm.78-9c-.35-1.64-.74-3.56-1.13-5.63-.19-1-.4-2.1-.59-3.18,0-.27-.1-.55-.14-.82l-.08-.41a1.17,1.17,0,0,0,0-.16c-1-.22-.24-.23-.57-.36l.5.11a4.74,4.74,0,0,0-.63-1.25h0c-.14,0-.78-.05-1,0C48,8,48.59,7.82,50,8.13l0-.06a3.48,3.48,0,0,1-1.16-.44c.36.06.71.12.91.14a5.34,5.34,0,0,0-.5-.46L36.85,16.2a7.54,7.54,0,0,1-6.19,1.58L16.14,14.94l13.77,4.94c1.34.48,3.64,1.36,4.2,4.05,0,.05,0,.1,0,.15l3.63,17.36a5.5,5.5,0,0,1-.91.09,5.37,5.37,0,0,1-1.58-.25L22.45,36.57A5.15,5.15,0,0,1,19,32.88L15.29,17a4.81,4.81,0,0,1,2-5.1l12.6-9.26a5,5,0,0,1,2.23-.81c-.32-.15,1,0,1.18-.05s.36.1.46.13l.16,0s1.24.24,3.23.7l.63.14,0,0,1.58.38c1.63.4,3.53.88,5.56,1.43,1,.28,2,.55,3.13.86a5.64,5.64,0,0,1,2.31,1.38,6.54,6.54,0,0,0,1,.17c1.65.39-.65,0,.14.27L50.56,7a4.88,4.88,0,0,1,.47.55,5.62,5.62,0,0,1,.81,1.69c0,.17.06.24.11.46l.07.41c0,.27.09.55.13.82.18,1.09.33,2.16.49,3.2.31,2.08.58,4,.78,5.69.43,3.34.61,5.58.61,5.58S53.46,23.24,52.76,20ZM27.57,18c-1.53-.5-1.65-.73-2.05-1.15C29.92,17.87,26.46,17.43,27.57,18Z"></path><path class="cls-1" d="M35.89,13.55l-1.14-.27c.58.08.42,0-.61-.23,0-.1.38-.06,1.16.09A4.47,4.47,0,0,0,32.87,13c-1.6.33-2.76,1.26-2.6,2.08s1.61,1.2,3.21.87,2.77-1.26,2.6-2.07A.84.84,0,0,0,35.89,13.55Z"></path><path class="cls-1" d="M32.33,9.72l1.11.25c-1.93-.06-.2.87-3,.77.44.15,1.06.32,1.72.49a2,2,0,0,0-.65.09,5.4,5.4,0,0,0,1.42-.1c1.6-.33,2.76-1.26,2.6-2.08a.41.41,0,0,0,0-.09,27.16,27.16,0,0,0-2.88-.58c-.2-.05-.34-.1-.49-.15l-.29.08c.78.27-.81.1,1.08.61a9.46,9.46,0,0,1-1.77-.35A2.35,2.35,0,0,0,29.77,10c.49-.13,1-.26,1.48-.43A6.15,6.15,0,0,1,32.33,9.72Zm2,0c-1.57-.3-2.6-.44-2.57-.25C29.66,9,32.26,9.12,34.29,9.74Z"></path><path class="cls-1" d="M33.09,8.44c1.59.39,1.1.14,2.34.42a2.48,2.48,0,0,0-2.08-.7l.09,0C33.81,8.42,32.54,8.15,33.09,8.44Z"></path><path class="cls-1" d="M32.19,6.49c-.18-.12-.51-.27-.91-.47.69.19,1.14.3,1.45.35,1.43-.38,2.43-1.23,2.28-2S33.4,3.17,31.8,3.5,29,4.77,29.2,5.58,30.68,6.74,32.19,6.49Zm-.07-.7c2.07.55.67.39.24.43C30.67,5.76,32.53,6,32.12,5.79Z"></path><path class="cls-1" d="M20.63,22.88c.63-.44.44-1.82-.43-3.09A4.76,4.76,0,0,0,19,18.59c-.19,0-.31,0-.24,0-.3-.11-.11-.11,0-.14a1.29,1.29,0,0,0-1.36-.16c-.63.45-.44,1.83.43,3.1S20,23.33,20.63,22.88Z"></path><path class="cls-1" d="M30.71,26.15c.64-.44.45-1.83-.42-3.09s-2.11-1.94-2.75-1.5-.44,1.83.43,3.09S30.08,26.59,30.71,26.15Z"></path><path class="cls-1" d="M27.2,30.59c.64-.44.45-1.82-.43-3.09S24.67,25.56,24,26s-.45,1.83.43,3.1S26.56,31,27.2,30.59Z"></path><path class="cls-1" d="M20.91,33.39c.88,1.26,2.11,1.93,2.75,1.49s.44-1.82-.43-3.09-2.11-1.94-2.74-1.5S20,32.12,20.91,33.39Z"></path><path class="cls-1" d="M31.22,37c.88,1.27,2.1,1.94,2.74,1.5s.45-1.83-.42-3.1-2.11-1.93-2.75-1.49S30.34,35.71,31.22,37Z"></path><path class="cls-1" d="M27.2,48.5l0,0a5.78,5.78,0,0,0-4.07-1.72h-.35L9.55,47.91a5.53,5.53,0,0,0-5,3.86L.27,64.94A5.75,5.75,0,0,0,0,66.52c.5.26,2.15,1.88.85.28.34.27.37.16.66.38a4.16,4.16,0,0,1,.18-1.78v0a8,8,0,0,1-1-1c-.22-.49.38.18,1,.92l1-3.2c-.25-.39-.24-.54.09-.27l.27-.85-.31-.34c.36.21.36.2,0-.36l.37.41L6,52.23a4.1,4.1,0,0,1,3.68-2.84l13.21-1.15h.22a4.24,4.24,0,0,1,3,1.28s1.41,1.29,3.42,3.31c1,1,2.17,2.19,3.4,3.48.61.66,1.25,1.3,1.89,2A4.86,4.86,0,0,1,36,61.16a4.74,4.74,0,0,1-.15,1.58c0,.15-.06.2-.12.38l-.14.33-.26.65c-.35.87-.71,1.71-1.06,2.54-.69,1.64-1.35,3.16-1.94,4.46-1.16,2.61-2,4.31-2,4.31s.55-1.82,1.49-4.52c.47-1.34,1-2.91,1.66-4.57.32-.84.64-1.7,1-2.57l.26-.66.12-.33s.07-.21.09-.3a3.58,3.58,0,0,0,.1-1.23,3.67,3.67,0,0,0-.24-1.08L22,61.17a6.4,6.4,0,0,1-5.18-1.59h0L7.5,51.13l7.8,9.65a6.49,6.49,0,0,1,1.4,2.57,11.12,11.12,0,0,1,1.82,1.71,7.8,7.8,0,0,1-1.82-1.69,3.9,3.9,0,0,1-.14,2.19s0,0,0,.06l-5,14.24a4.25,4.25,0,0,1-1.73-1.21L2.54,69.58a3.54,3.54,0,0,1-.34-.45C2,69,1.78,68.84,1.87,69c-1.28-1.59-.41-.79,0-.52a2.72,2.72,0,0,1-.11-.25c-.89-1-.39.09-1.76-1.41a5.86,5.86,0,0,0,1.39,3.68l2.88,3.61L6,76.27,8.6,79.58l0,0A5.73,5.73,0,0,0,11,81.26c-.21-.27-.11-.21.16.06a5.37,5.37,0,0,0,1.83.31,4.93,4.93,0,0,0,.55,0h.07l13.47-2a5.6,5.6,0,0,0,4.65-3.67l5-12.45s0,0,0-.05a5.87,5.87,0,0,0-1.34-6ZM20.09,66.27c.34.5-.55-.37-.05.48-.79-.91-.8-1-.36-.6a7.89,7.89,0,0,0-.76-.91C18.61,64.68,20.19,66.55,20.09,66.27Zm-4.53,13.4c-1-1.3.46,0,.44-.18C17.15,81,15.3,79.13,15.56,79.67Zm5-3.45a4,4,0,0,1-1.2,1.85,4.49,4.49,0,0,1-.44.35,4.85,4.85,0,0,1-.49.29,3.59,3.59,0,0,1-1,.37,2.52,2.52,0,0,1-1.06,0,1.41,1.41,0,0,1-.82-.55,1.37,1.37,0,0,1-.25-.76,1.86,1.86,0,0,1,.09-.58c.05-.15.11-.26.14-.34l.06-.11a2.25,2.25,0,0,0-.06.48,1.38,1.38,0,0,0,.33,1.07,1.05,1.05,0,0,0,.62.28,2.11,2.11,0,0,0,.82-.06,3.68,3.68,0,0,0,.85-.36,3.89,3.89,0,0,0,.4-.25,3.05,3.05,0,0,0,.38-.32A3.77,3.77,0,0,0,20,76a1.91,1.91,0,0,0,.11-.8,1.79,1.79,0,0,0-.09-.32l-.1-.16a.43.43,0,0,0-.11-.12,1.58,1.58,0,0,0-1.08-.36,2.11,2.11,0,0,0-.48,0l.12,0a2.46,2.46,0,0,1,.34-.12,2.4,2.4,0,0,1,.58-.06,1.47,1.47,0,0,1,.76.24,1.39,1.39,0,0,1,.19.15l.15.18a1.35,1.35,0,0,1,.22.49A2.09,2.09,0,0,1,20.56,76.22Zm8-8.47a1.41,1.41,0,0,1-.82-.55,1.28,1.28,0,0,1-.24-.76,1.89,1.89,0,0,1,.08-.58,2.37,2.37,0,0,1,.15-.34l.06-.11a2.63,2.63,0,0,0-.07.48A1.42,1.42,0,0,0,28,67a1.08,1.08,0,0,0,.63.28,2.13,2.13,0,0,0,.82-.06,3.87,3.87,0,0,0,.85-.36l.4-.25c.11-.08.28-.23.38-.32a3.74,3.74,0,0,0,1.08-1.51,1.76,1.76,0,0,0,.11-.8.93.93,0,0,0-.09-.32l-.1-.16a.63.63,0,0,0-.1-.12A1.6,1.6,0,0,0,30.93,63a2.11,2.11,0,0,0-.48,0l.12,0a2.7,2.7,0,0,1,.35-.12,2.35,2.35,0,0,1,.58-.06,1.52,1.52,0,0,1,.76.24,1.3,1.3,0,0,1,.18.15l.16.18a1.54,1.54,0,0,1,.22.49,2.2,2.2,0,0,1,0,1.08,3.92,3.92,0,0,1-1.21,1.85,3.55,3.55,0,0,1-.44.35c-.16.11-.32.2-.48.29a3.7,3.7,0,0,1-1,.37A2.41,2.41,0,0,1,28.55,67.75Z"></path><path class="cls-1" d="M17.66,57.48c-.23.66.63,1.58,1.94,2s2.56.31,2.8-.36-.63-1.58-1.94-2S17.9,56.81,17.66,57.48Z"></path><path class="cls-1" d="M15.42,52.38c.24-.67-.63-1.58-1.94-2.05s-2.56-.3-2.8.36.63,1.58,1.94,2.05S15.18,53,15.42,52.38Z"></path><path class="cls-1" d="M32.51,58.47c.23-.67-.63-1.59-1.94-2s-2.56-.31-2.8.36.63,1.58,1.94,2S32.27,59.13,32.51,58.47Z"></path><path class="cls-1" d="M25.82,51.79c.24-.67-.63-1.59-1.94-2s-2.56-.31-2.8.36.63,1.58,1.94,2S25.58,52.45,25.82,51.79Z"></path><path class="cls-1" d="M7.24,58.86c.66,0,1.13-1.13,1.06-2.43S7.63,54.1,7,54.14s-1.13,1.12-1.06,2.43S6.59,58.9,7.24,58.86Z"></path><path class="cls-1" d="M13.89,64.42l.14.18a3.9,3.9,0,0,0,.14-1.36c-.08-1.3-.67-2.33-1.33-2.29s-1.13,1.13-1.05,2.43.67,2.33,1.33,2.29c.36,0,.66-.36.85-.88-.19-.16-.4-.34-.49-.43-.64-.75-.22-.4.39.31a7.16,7.16,0,0,0-.75-1C13.23,63.74,13.88,64.5,13.89,64.42Zm-1.41-2.59c1,1.28.95,1.54,1,2.11C10.5,60.57,13.1,62.9,12.48,61.83Z"></path><path class="cls-1" d="M4.35,61.65c.08,1.22.6,2.18,1.21,2.27l-.11-.12a1,1,0,0,1,.25.14A.73.73,0,0,0,6,63.86l-.07-.11.1.09a2.65,2.65,0,0,0,.76-2.33c-.08-1.3-.67-2.33-1.33-2.29S4.28,60.35,4.35,61.65Z"></path><path class="cls-1" d="M10.23,68.46c.07,1.31.67,2.33,1.33,2.29s1.13-1.12,1-2.43S12,66.07,11.34,66a2.93,2.93,0,0,1,.21.35c-.12-.12-.21-.23-.31-.35C10.6,66.13,10.15,67.19,10.23,68.46Z"></path><path class="cls-1" d="M3,65.29a3.89,3.89,0,0,0-.13,1.17c.1.09.16.14.18.13A16.74,16.74,0,0,0,4.12,68c0,.23-1.27-.93-.06.54A8,8,0,0,1,2.93,67.3a1.29,1.29,0,0,0,0,.19l.32.36A1.1,1.1,0,0,0,3,67.69c.25.74.67,1.23,1.12,1.2a1,1,0,0,0,.77-.68c-1-1.17-.69-.5-.78-.41-1.64-2,.43,0-1.07-1.82,0-.19,1.34,1.49,1.89,2.07-.25-.21-.87-.91-.77-.67a9.91,9.91,0,0,1,.74.81,3.57,3.57,0,0,0,.28-1.47l-.5-.17A7.59,7.59,0,0,1,4,65.76l-.76-.85c1.2.92.93.06,1.8.44-.24-.73-.66-1.21-1.11-1.18s-.73.43-.91,1c.76.78,1.27,1.23,1.34,1.1C5.51,67.68,4.16,66.67,3,65.29Z"></path><path class="cls-1" d="M8.71,73.74c.08,1.31.67,2.34,1.33,2.3s1.13-1.13,1.05-2.43-.67-2.33-1.33-2.3S8.63,72.44,8.71,73.74Z"></path></g></g></svg>